<?xml version="1.0" encoding="utf-8"?>
<svg version="1.1" id="Слой_1" x="0px" y="0px" width="236.31578" height="85.378922" viewBox="-38.907 -2.841 275.474 91.418" xmlns="http://www.w3.org/2000/svg">
  <style type="text/css" id="style259">
	.st0{fill:#FFCC29;}
	.st1{fill:#3056A7;}
	.st2{opacity:0.5;}
	.st3{fill:#FBB03B;}
	.st4{fill:#FFFFFF;}
	.st5{fill:#FFCC29;stroke:#FFCC29;stroke-width:0.5;stroke-miterlimit:10;}
	.st6{fill:#FFC41D;stroke:#FFC41D;stroke-width:0.5;stroke-miterlimit:10;}
	.st7{fill:#3056A7;stroke:#3056A7;stroke-width:0.4;stroke-miterlimit:10;}
	.st8{fill:#FFC41D;}
	.st9{fill:#3258A7;}
</style>
  <g id="g315" transform="matrix(1, 0, 0, 1, 21.987453, 0.079333)">
    <g id="g265" transform="matrix(1, 0, 0, 1, 1.710479, 0.526784)">
      <path class="st1" d="m 139.5,19.8 h -9.1 c -0.5,0 -1.3,0.2 -1.3,1.4 v 2.2 c 0,1.2 0.8,1.4 1.3,1.4 h 5.3 v 31.4 c 0,1.2 0.8,1.4 1.3,1.4 h 2.5 c 0.5,0 1.3,-0.2 1.3,-1.4 v -35 c 0,-1.2 -0.8,-1.4 -1.3,-1.4 z" id="path261"/>
      <path class="st1" d="m 162.1,19.2 c -10.2,0 -17.9,8.3 -17.9,19.4 0,11 7.7,19.4 17.9,19.4 10.3,0 18,-8.3 18,-19.4 -0.1,-11 -7.8,-19.4 -18,-19.4 z m 12.8,19.5 c 0,8.3 -5.4,14.3 -12.9,14.3 -7.4,0 -12.8,-6 -12.8,-14.3 0,-8.2 5.5,-14.4 12.8,-14.4 7.4,0 12.9,6.2 12.9,14.4 z" id="path263"/>
    </g>
    <g id="g291" style="">
      <path class="st8" d="m 136.7,83.5 c -6.9,-3.7 -12.3,-8.5 -16.4,-13 0,0 0.1,-0.1 0.1,-0.2 0.1,-3.5 0.3,-16.1 -3.3,-24 -0.1,-0.2 -0.4,-0.2 -0.5,-0.1 -1.3,1.6 -5.7,8.6 2.2,22.4 -2.8,-3.3 -4.8,-6.3 -6.1,-8.7 -3.4,-5.9 -6.1,-14.7 -4.5,-25.6 0.1,-0.9 0.3,-1.7 0.5,-2.5 0,0 0,0 0.1,0 2.8,-1.2 13.8,-6.2 16.5,-13.7 0.1,-0.2 -0.1,-0.4 -0.3,-0.4 -2.1,0.3 -10.7,2.3 -15.6,11.6 1.7,-5.7 4.6,-9.8 5.5,-11.1 3.1,-0.3 13.3,-2.4 20.2,-16.3 0.1,-0.2 -0.1,-0.5 -0.3,-0.4 -3,0.5 -15.8,2.7 -20.6,15.8 -0.2,0.2 -6.5,8.4 -7.9,19.4 -0.5,4.4 -0.4,8.6 0.3,12.6 -4.5,-9.9 -9.3,-13.9 -10.8,-15 -0.2,-0.1 -0.5,0 -0.5,0.3 0.5,13.1 10.6,20.4 13.5,22.2 1.7,4.1 4.1,8.1 7.3,12.1 3.6,4.5 7.7,8.2 11.3,11 -11.7,-5.9 -16.6,-4.3 -17.9,-3.5 -0.2,0.1 -0.2,0.4 0,0.5 8.5,6.9 18,4.7 19.5,4.3 3.2,2.3 5.6,3.7 6.4,4.1 0.1,0.1 0.3,0 0.4,-0.1 l 1,-1.2 c 0.1,-0.2 0,-0.4 -0.1,-0.5 z" id="path267"/>
      <path class="st8" d="m 123.4,64 c -0.2,-0.1 -0.5,0 -0.5,0.2 -0.1,1.9 0,9.1 9.4,15 0.2,0.1 0.5,-0.1 0.5,-0.3 C 132,76.4 129.3,68 123.4,64 Z" id="path269"/>
      <path class="st8" d="m 118.6,73.3 c -2.8,-3.1 -12.7,-13.6 -18.8,-18.4 -0.2,-0.1 -0.4,0 -0.5,0.2 -0.4,2.3 -1,12.1 18.9,18.7 0.4,0.1 0.7,-0.2 0.4,-0.5 z" id="path271"/>
      <path class="st8" d="m 116.9,30.7 c -11.2,5.1 -7.1,19.8 -6,23.2 0.1,0.3 0.4,0.3 0.6,0 5.1,-11.4 5.7,-20.8 5.8,-22.9 0,-0.2 -0.2,-0.4 -0.4,-0.3 z" id="path273"/>
      <path class="st8" d="m 105.5,37 c 3.1,-15.3 -1.1,-23 -2.2,-24.7 -0.1,-0.2 -0.4,-0.2 -0.5,0 -5.2,9.9 0.6,21.8 2.2,24.8 0.1,0.2 0.5,0.2 0.5,-0.1 z" id="path275"/>
      <path class="st8" d="m 109.2,22.4 c 6.3,-7.4 7.2,-19.4 7.4,-22.1 0,-0.2 -0.3,-0.4 -0.5,-0.3 -8.5,5.5 -7.8,19 -7.5,22.2 0,0.3 0.4,0.4 0.6,0.2 z" id="path277"/>
      <path class="st8" d="m 176.7,79.1 c 9.4,-5.8 9.6,-13 9.4,-14.9 0,-0.2 -0.3,-0.4 -0.5,-0.2 -6,4 -8.7,12.3 -9.4,14.8 0,0.3 0.3,0.5 0.5,0.3 z" id="path279"/>
      <path class="st8" d="m 199.5,76.3 c -1.3,-0.7 -6.1,-2.4 -17.9,3.5 3.6,-2.7 7.8,-6.4 11.3,-10.9 3.2,-4 5.6,-8 7.3,-12.1 2.9,-1.8 13,-9 13.6,-22.2 0,-0.2 -0.3,-0.4 -0.5,-0.3 -1.5,1.1 -6.3,5 -10.8,14.9 0.8,-4 0.9,-8.2 0.4,-12.6 -1.3,-11.2 -7.8,-19.4 -7.8,-19.4 v 0 C 190.3,4.2 177.6,1.8 174.8,1.5 c -0.2,0 -0.4,0.2 -0.3,0.4 6.9,14.1 17.1,16.2 20.1,16.5 1,1.3 3.7,5.4 5.4,11 -4.8,-9.3 -13.4,-11.3 -15.5,-11.7 -0.2,0 -0.4,0.2 -0.3,0.4 2.7,7.4 13.6,12.5 16.5,13.7 0,0 0,0 0.1,0 0.2,0.8 0.3,1.7 0.5,2.5 1.5,10.9 -1.2,19.7 -4.6,25.6 -1.4,2.3 -3.4,5.4 -6.2,8.6 8,-13.8 3.5,-20.8 2.3,-22.4 -0.1,-0.2 -0.4,-0.1 -0.5,0.1 -3.6,7.9 -3.5,20.4 -3.4,24 0,0.1 0,0.1 0.1,0.2 -4.1,4.5 -9.5,9.2 -16.5,12.9 -0.2,0.1 -0.2,0.3 -0.1,0.4 l 1,1.2 c 0.1,0.1 0.2,0.2 0.4,0.1 0.7,-0.4 3.2,-1.8 6.4,-4.1 1.6,0.4 11,2.6 19.5,-4.2 0,0 0,-0.3 -0.2,-0.4 z" id="path281"/>
      <path class="st8" d="m 208.5,55 c -6.1,4.8 -16,15.3 -18.8,18.3 -0.2,0.2 0,0.6 0.3,0.5 19.9,-6.5 19.4,-16.4 19,-18.6 -0.1,-0.2 -0.3,-0.3 -0.5,-0.2 z" id="path283"/>
      <path class="st8" d="m 198.2,53.9 c 1.1,-3.4 5.4,-18.1 -5.9,-23.2 -0.2,-0.1 -0.4,0.1 -0.4,0.3 0.1,2.2 0.6,11.6 5.7,23 0.1,0.2 0.5,0.2 0.6,-0.1 z" id="path285"/>
      <path class="st8" d="m 204.2,37.1 c 1.6,-3 7.4,-14.8 2.3,-24.8 -0.1,-0.2 -0.4,-0.2 -0.5,0 -1.2,1.8 -5.3,9.4 -2.3,24.7 0,0.3 0.4,0.4 0.5,0.1 z" id="path287"/>
      <path class="st8" d="m 200.6,22.3 c 0.3,-3.2 1.2,-16.7 -7.4,-22.3 -0.2,-0.1 -0.5,0 -0.5,0.3 0.1,2.7 1.1,14.7 7.3,22.2 0.3,0.2 0.6,0.1 0.6,-0.2 z" id="path289"/>
    </g>
    <g id="g303" transform="matrix(1.648328, 0, 0, 1.694716, -45.697144, -28.017576)" style="">
      <path class="st9" d="M 54.772 29.991 L 44.195 29.991 L 37.179 29.991 L 37.179 28.372 C 37.179 27.076 38.043 26.429 39.878 26.213 C 39.878 26.213 39.985 26.213 40.202 26.105 L 44.627 26.105 L 44.627 18.981 L 37.828 18.981 C 34.913 18.981 32.43 19.521 30.38 20.708 C 28.113 22.003 27.034 23.623 27.034 25.781 L 27.034 59.672 L 37.072 59.672 L 37.072 37.654 L 44.087 37.654 L 44.411 37.654 C 44.627 32.581 47.973 29.991 54.772 29.991 Z" id="path293" style=""/>
      <path class="st9" d="M -7.828 52.98 L -7.828 36.683 C -7.828 36.358 -7.721 35.927 -7.612 35.28 C -6.641 31.718 -3.403 29.991 2.101 29.991 L 15.593 29.991 C 18.615 29.991 20.989 30.53 22.825 31.718 C 24.659 32.797 25.631 34.524 25.631 36.683 L 25.631 52.98 C 25.631 55.139 24.659 56.866 22.825 57.945 C 20.989 59.025 18.615 59.672 15.593 59.672 L 2.101 59.672 C -3.835 59.672 -7.073 57.945 -7.612 54.383 L -7.828 52.98 Z M 4.476 52.117 L 13.327 52.117 C 13.866 52.117 14.406 51.901 14.837 51.361 C 15.269 50.93 15.593 50.39 15.593 49.958 L 15.593 39.489 C 15.593 39.057 15.377 38.626 14.837 38.193 C 14.406 37.761 13.866 37.438 13.327 37.438 L 4.476 37.438 C 3.829 37.438 3.396 37.654 2.857 38.086 C 2.426 38.517 2.209 38.949 2.209 39.38 L 2.209 49.85 C 2.209 50.282 2.426 50.714 2.857 51.145 C 3.396 51.901 3.936 52.117 4.476 52.117 Z" id="path295" style=""/>
      <path class="st9" d="M 65.135 23.623 C 65.026 22.327 65.458 21.14 66.538 20.277 C 67.509 19.413 68.696 18.874 70.207 18.874 C 71.61 18.874 72.797 19.305 73.769 20.168 C 74.74 21.032 75.28 22.111 75.28 23.407 C 75.28 24.702 74.74 25.781 73.769 26.645 C 72.797 27.508 71.61 27.94 70.207 27.94 C 68.804 27.94 67.725 27.508 66.753 26.645 C 65.674 25.997 65.242 24.917 65.135 23.623 Z" id="path297" style=""/>
      <rect x="65.135" y="29.991" class="st9" width="10.038" height="29.681" id="rect299" style=""/>
      <path class="st9" d="M 56.175 59.672 L 56.175 39.164 C 56.175 38.301 57.04 37.761 58.766 37.546 L 63.732 37.546 L 63.732 29.991 L 56.391 29.991 C 49.592 29.991 46.138 32.472 46.138 37.546 L 46.138 59.672 L 56.175 59.672 Z" id="path301" style=""/>
    </g>
    <g id="g313" style="" transform="matrix(1.062441, 0, 0, 1.062441, -7.713081, -3.734103)">
      <path class="st1" d="m 139.9,62.6 c 0,-0.2 -0.1,-0.2 -0.2,-0.2 h -1.4 c -0.1,0 -0.2,0.1 -0.2,0.2 v 5.6 c 0,1 -0.5,1.6 -1.4,1.6 h -1.2 c -0.1,0 -0.2,0.1 -0.2,0.2 l -0.1,1.4 c 0,0.2 0,0.3 0.2,0.3 h 1.3 c 2.1,0 3.2,-1.2 3.2,-3.4 z" id="path305"/>
      <path class="st1" d="m 156.5,62.4 h -1.4 c -0.1,0 -0.2,0.1 -0.2,0.2 v 3.3 H 151 v -3.3 c 0,-0.2 -0.1,-0.2 -0.2,-0.2 h -1.4 c -0.1,0 -0.2,0.1 -0.2,0.2 v 8.6 l -3.5,-8.7 c 0,-0.1 -0.1,-0.1 -0.2,-0.1 h -1.8 c -0.1,0 -0.2,0.1 -0.2,0.1 l -3.7,8.9 c 0,0.2 0,0.2 0.2,0.2 h 1.5 c 0.1,0 0.2,-0.1 0.3,-0.2 l 0.6,-1.6 h 4.3 l 0.6,1.6 c 0.1,0.2 0.2,0.2 0.3,0.2 h 1.5 c 0,0 0,0 0,0 h 0.3 c 0,0 0,0 0,0 h 1.4 c 0.1,0 0.2,-0.1 0.2,-0.2 v -3.6 h 3.9 v 3.6 c 0,0.2 0.1,0.2 0.2,0.2 h 1.4 c 0.1,0 0.2,-0.1 0.2,-0.2 v -8.8 c 0,-0.2 0,-0.2 -0.2,-0.2 z m -13.4,5.6 1.4,-3.8 h 0.2 l 1.4,3.8 z" id="path307"/>
      <path class="st1" d="m 165.4,65.7 c 0,-1.9 -1.5,-3.4 -3.3,-3.4 h -3.9 c -0.1,0 -0.2,0.1 -0.2,0.2 v 8.8 c 0,0.2 0.1,0.2 0.2,0.2 h 1.4 c 0.1,0 0.2,-0.1 0.2,-0.2 v -2.2 h 2.2 c 0.1,0 0.1,0 0.3,0 l 1,2.3 c 0.1,0.1 0.2,0.2 0.3,0.2 h 1.5 c 0.1,0 0.2,-0.1 0.1,-0.2 l -1.3,-2.8 c 0.9,-0.6 1.5,-1.6 1.5,-2.9 z m -3.3,1.6 h -2.3 v -3.1 h 2.3 c 1,0 1.5,0.6 1.5,1.5 0,0.9 -0.6,1.6 -1.5,1.6 z" id="path309"/>
      <path class="st1" d="m 173.2,69.8 h -4.9 v -2 h 4.2 c 0.1,0 0.2,-0.1 0.2,-0.2 v -1.4 c 0,-0.2 -0.1,-0.2 -0.2,-0.2 h -4.2 v -1.7 h 4.7 c 0.1,0 0.2,-0.1 0.2,-0.2 v -1.4 c 0,-0.2 -0.1,-0.2 -0.2,-0.2 h -6.3 c -0.1,0 -0.2,0.1 -0.2,0.2 v 8.8 c 0,0.2 0.1,0.2 0.2,0.2 h 6.5 c 0.1,0 0.2,-0.1 0.2,-0.2 V 70 c 0,-0.1 -0.1,-0.2 -0.2,-0.2 z" id="path311"/>
    </g>
  </g>
</svg>