<svg xmlns="http://www.w3.org/2000/svg" width="16" height="16" viewBox="0 0 16 16">
    <path fill-rule="evenodd" d="M10 5.5c2.485 0 4.5 2.015 4.5 4.5 0 .88-.253 1.701-.69 2.395l1.897 1.898c.39.39.39 1.024 0 1.414-.36.36-.928.388-1.32.083l-.094-.083-1.898-1.896c-.694.436-1.515.689-2.395.689-2.485 0-4.5-2.015-4.5-4.5S7.515 5.5 10 5.5zM8 0l8 5v1h-1.528C13.374 4.773 11.777 4 10 4c-3.314 0-6 2.686-6 6 0 2.088 1.066 3.926 2.683 5H1.5V6L0 6.032V5l8-5zm2 7c-1.657 0-3 1.343-3 3s1.343 3 3 3 3-1.343 3-3-1.343-3-3-3z" opacity=".4"/>
</svg>
