<svg xmlns="http://www.w3.org/2000/svg" width="16" height="16" viewBox="0 0 16 16">
    <g fill="none" fill-rule="evenodd">
        <circle cx="8" cy="8.5" r="6.7" stroke="#FF483D" stroke-width="1.6"/>
        <path fill="#FF483D" fill-rule="nonzero" d="M15.853 1.44c.195.195.195.511 0 .706l-.707.707c-.195.195-.511.195-.706 0L13.146 1.56c-.195-.196-.195-.512 0-.707l.707-.707c.195-.195.511-.195.707 0l1.293 1.294zM.146 1.44c-.195.195-.195.511 0 .706l.707.707c.195.195.511.195.707 0L2.853 1.56c.195-.196.195-.512 0-.707L2.146.146c-.195-.195-.511-.195-.706 0L.146 1.44zM7.927 13c2.56 0 4.627-2.03 4.627-4.5 0-2.472-2.086-4.5-4.627-4.5-.21 0-.38.166-.38.368v3.984l-3.11 2.582c-.076.055-.114.148-.133.24-.019.092.02.184.095.258C5.291 12.428 6.561 13 7.927 13z"/>
    </g>
</svg>
