<svg fill="none" height="77" viewBox="0 0 80 77" width="80" xmlns="http://www.w3.org/2000/svg"><g fill="#0050b2"><path d="m15.1 18.3c2.4-.7 4.6-3.4 4.6-3.4s-3.4-.9-5.7-.2c-.3.1-.5.2-.8.3.1-.3.2-.5.3-.8.7-2.4-.3-5.7-.3-5.7s-2.7 2.3-3.4 4.6.5 4.8.5 4.8 2.5 1.1 4.8.4z"/><path d="m21.3 9.59998c1.8-1.9 2.6-5.5 2.6-5.5s-3.6.8-5.4 2.7-1.9 4.80002-1.9 4.80002 2.8-.2 4.7-2.00002z"/><path d="m5.7 28.1s3.20001.6 5.6-.9c2.5-1.5 4.2-5.2 4.2-5.2s-4.1-.1-6.6 1.4c-.3.2-.59999.4-.79999.6.1-.3.1-.7.1-1 .09999-2.9-1.9-6.4-1.9-6.4s-2.4 3.3-2.5 6.2c-.2 2.7 1.89999 5.3 1.89999 5.3z"/><path d="m9.39999 37.5c2.20001-2.2 3.20001-6.5 3.20001-6.5s-4.40001.9-6.60001 3.1c-.3.3-.5.5-.7.8 0-.4-.1-.7-.1-1.1-.6-3.1-3.7-6.3-3.7-6.3s-1.699996 4.1-1.099996 7.2c.6 2.9 3.299996 5.1 3.299996 5.1s3.5-.1 5.7-2.3z"/><path d="m11.3 46.7c1.1-2.9.1-7 .1-7s-3.5 2.6-4.6 5.5c-.1.4-.3.8-.3 1.2-.2-.3-.3-.5-.5-.8-1.8-2.4-6-3.9-6-3.9s.2 4.3 2.1 6.7c1.8 2.4 5.3 3 5.3 3s3-2.3 3.9-4.7z"/><path d="m11.3 60.9s2.2-2.5 2.5-4.8c.4-2.7-1.3-6.2-1.3-6.2s-2.5 2.9-2.9 5.6c0 .4-.1.7-.1 1.1-.2-.2-.4-.4-.6-.5-2-1.8-5.9-2.4-5.9-2.4s1 3.7 3.1 5.5c2.2 1.8 5.2 1.7 5.2 1.7z"/><path d="m19 63c-.5-2.4-2.8-4.9-2.8-4.9s-1.3 3.2-.9 5.6l.3.9c-.2-.1-.4-.2-.6-.3-2.2-1-5.60001-.4-5.60001-.4s1.90001 2.9 4.20001 3.8c2.2 1 4.8 0 4.8 0s1-2.6.6-4.7z"/><path d="m25.7 67.7c-.9-2.2-3.7-4-3.7-4s-.6 3.3.3 5.4c.1.3.3.6.4.8-.2-.1-.4-.1-.7-.2-2.3-.5-5.4.8-5.4.8s2.4 2.2999 4.7 2.7999 4.5-.8999 4.5-.8999.6-2.8-.1-4.7z"/><path d="m33.4 71.4c-1.1-1.7-3.8-2.9-3.8-2.9s0 2.9 1.1 4.7c.2.2.3.5.5.7-.2 0-.4 0-.6-.1-2.1 0-4.6 1.5-4.6 1.5s2.4 1.6 4.5 1.7c2.1 0 3.8-1.5 3.8-1.5s0-2.6-.9-4.1z"/><path d="m64.5 18.3c-2.4-.7-4.6-3.4-4.6-3.4s3.4-.9 5.7-.2c.3.1.5.2.8.3-.1-.3-.2-.5-.3-.8-.7-2.4.3-5.7.3-5.7s2.7 2.3 3.4 4.6-.5 4.8-.5 4.8-2.5 1.1-4.8.4z"/><path d="m58.4 9.59998c-1.8-1.9-2.6-5.5-2.6-5.5s3.6.8 5.4 2.7 1.9 4.80002 1.9 4.80002-2.9-.2-4.7-2.00002z"/><path d="m74 28.1s-3.2.6-5.6-.9c-2.5-1.5-4.2-5.2-4.2-5.2s4.1-.1 6.6 1.4c.3.2.6.4.8.6-.1-.3-.1-.7-.1-1-.1-2.9 1.9-6.4 1.9-6.4s2.4 3.3 2.5 6.2c.1 2.7-1.9 5.3-1.9 5.3z"/><path d="m70.2 37.5c-2.2-2.2-3.2-6.5-3.2-6.5s4.3.9 6.6 3.1c.3.3.5.5.7.8 0-.4.1-.7.1-1.1.6-3.1 3.7-6.3 3.7-6.3s1.7 4.1 1.1 7.2c-.6 2.9-3.3 5.1-3.3 5.1s-3.5-.1-5.7-2.3z"/><path d="m68.3 46.7c-1.1-2.9-.1-7-.1-7s3.5 2.6 4.6 5.5c.1.4.3.8.3 1.2.1-.2.3-.5.5-.7 1.8-2.4 6-3.9 6-3.9s-.2 4.3-2.1 6.7c-1.8 2.4-5.3 3-5.3 3s-3-2.4-3.9-4.8z"/><path d="m68.3 60.9s-2.2-2.5-2.5-4.8c-.4-2.7 1.3-6.2 1.3-6.2s2.5 2.9 2.9 5.6c0 .4.1.7.1 1.1.2-.2.4-.4.6-.5 2-1.8 5.9-2.4 5.9-2.4s-1 3.7-3.1 5.5-5.2 1.7-5.2 1.7z"/><path d="m60.6 63c.5-2.4 2.8-4.9 2.8-4.9s1.3 3.2.9 5.6c-.1.3-.2.6-.3.9.2-.1.4-.2.6-.3 2.2-1 5.6-.4 5.6-.4s-1.9 2.9-4.2 3.8c-2.2 1-4.8 0-4.8 0s-.9-2.6-.6-4.7z"/><path d="m54 67.7c.9-2.2 3.7-4 3.7-4s.6 3.3-.3 5.4c-.1.3-.3.6-.4.8.2-.1.4-.1.7-.2 2.3-.5 5.4.8 5.4.8s-2.4 2.2999-4.7 2.7999-4.5-.8999-4.5-.8999-.7-2.8.1-4.7z"/><path d="m46.3 71.4c1.1-1.7 3.8-2.9 3.8-2.9s0 2.9-1.1 4.7c-.2.2-.3.5-.5.7.2 0 .4 0 .6-.1 2.1 0 4.6 1.5 4.6 1.5s-2.4 1.6-4.5 1.7c-2.1 0-3.8-1.5-3.8-1.5s-.1-2.6.9-4.1z"/><path d="m49 23.5h-5.1-3.4v-.8c0-.6.4-1 1.3-1.1h.1 2.1v-3.5h-3.3c-1.4 0-2.6.3-3.6.8-1.1.6-1.6 1.4-1.6 2.4v16.4h4.9v-10.6h3.4.2c.1-2.4 1.7-3.6 5-3.6z"/><path d="m18.7 34.6v-7.9c0-.2 0-.4.1-.7.5-1.7 2-2.6 4.7-2.6h6.5c1.4 0 2.6.3 3.5.8s1.3 1.3 1.3 2.4v7.9c0 1.1-.4 1.9-1.3 2.4s-2.1.8-3.5.8h-6.5c-2.9 0-4.4-.9-4.7-2.6zm6-.5h4.3c.3 0 .5-.1.7-.3s.3-.4.3-.7v-5c0-.2-.1-.4-.3-.6-.2-.3-.4-.4-.7-.4h-4.3c-.3 0-.5.1-.8.3-.2.2-.3.4-.3.6v5.1c0 .2.1.4.3.6.3.3.5.4.8.4z"/><path d="m54 20.4c0-.6.2-1.2.7-1.6s1.1-.7 1.8-.7 1.2.2 1.7.7c.5.4.7 1 .7 1.6s-.2 1.1-.7 1.6-1.1.6-1.7.6c-.7 0-1.2-.2-1.7-.6-.5-.5-.8-1-.8-1.6z"/><path d="m58.9 23.5h-4.9v14.3h4.9z"/><path d="m49.7 37.8v-9.9c0-.4.4-.7 1.2-.8h2.4v-3.7h-3.6c-3.3 0-4.9 1.2-4.9 3.7v10.7z"/><path d="m18.9 46h2.2c.4 0 .8.1 1.1.3s.4.5.4.9c0 .2-.1.4-.2.6s-.3.3-.5.4c.6.2.9.5.9 1.1 0 .4-.1.8-.4 1s-.7.4-1.1.4h-2.3v-4.7zm1 .8v1.1h.9c.5 0 .8-.2.8-.5 0-.2-.1-.4-.2-.4s-.3-.1-.6-.1h-.9zm0 1.8v1.3h1c.3 0 .5 0 .6-.1.2-.1.2-.3.2-.5 0-.3-.1-.4-.2-.5-.2-.1-.4-.1-.7-.1h-.9z"/><path d="m27.1 46v.8h-2.5v1h2.3v.8h-2.3v1.1h2.5v.9h-3.5v-4.7h3.5z"/><path d="m27.4 46h1l.7 3.2.8-3.2h1l.8 3.2.8-3.2h1l-1.3 4.7h-1l-.8-3.2-.8 3.2h-1z"/><path d="m37.5 46v.8h-2.5v1h2.3v.8h-2.3v1.1h2.5v.9h-3.5v-4.7h3.5z"/><path d="m38.3 46h2.3c.5 0 .8.1 1.1.3s.4.6.4 1c0 .3-.1.5-.2.7s-.3.3-.5.4c.4.1.6.4.7 1.1v.2.3.2c0 .1 0 .2.1.2s.1.1.1.1h-1.1c0-.1-.1-.2-.1-.3s0-.2 0-.4 0-.3 0-.3c0-.3-.1-.6-.2-.7s-.4-.2-.7-.2h-.9v1.8h-1zm1 .8v1.3h1c.3 0 .5 0 .7-.1s.2-.3.2-.5-.1-.4-.2-.5c-.2-.1-.4-.1-.6-.1h-1.1z"/><path d="m46.4 46v.9h-1.4v3.8h-1v-3.8h-1.4v-.9z"/><path d="m50.9 46v2.8c0 .7-.2 1.2-.5 1.5s-.8.5-1.5.5-1.2-.2-1.5-.5-.5-.8-.5-1.5v-2.8h1v2.8c0 .4.1.7.2.8s.4.3.8.3.6-.1.8-.3.2-.5.2-.8v-2.8z"/><path d="m51.8 50.7v-4.7h1l1.9 3.1v-3.1h1v4.7h-1l-1.9-3.1v3.1z"/><path d="m60.8 48.2v2.5h-.6l-.1-.5c-.3.4-.8.6-1.4.6-.7 0-1.2-.2-1.6-.7s-.6-1-.6-1.7.2-1.3.6-1.8 1-.7 1.7-.7c.5 0 1 .1 1.3.4.4.3.6.7.6 1.2h-1c0-.2-.2-.4-.3-.6s-.4-.2-.7-.2c-.4 0-.7.1-.9.4s-.3.7-.3 1.2.1.9.3 1.2.5.4.9.4c.3 0 .6-.1.8-.3s.3-.4.3-.8h-1v-.8h2z"/></g><path d="m33.5 6.5v1.3h-5.6c0-.3.1-.7.1-.9.1-.3.2-.5.3-.7s.3-.4.5-.6c.2-.3.4-.5.6-.6s.4-.3.8-.5c0 0 .2-.1.4-.2s.3-.2.4-.3.2-.1.3-.3.2-.2.3-.3.1-.2.2-.4c.1-.1.1-.3.1-.4 0-.3-.1-.6-.3-.8s-.5-.3-.8-.3c-.8 0-1.2.6-1.2 1.7h-1.6v-.3c0-.9.3-1.6.8-2.1s1.2-.8 2-.8 1.4.2 1.9.7.7 1 .7 1.7c0 .6-.1 1-.4 1.3s-.7.7-1.2 1.1c-.1.1-.2.1-.4.3s-.4.2-.5.3-.3.2-.4.3-.3.3-.4.4-.2.2-.3.4z" fill="#e9683e"/><path d="m36.8.0999756c.4 0 .8.1000004 1.1.2000004.3.2.6.4.8.6.2.300004.4.600004.5.900004s.2.7.3 1.1.1.7.1 1.1c0 1.2-.2 2.2-.7 2.9s-1.2 1-2 1c-.9 0-1.6-.3-2.1-1-.6-.7-.8-1.6-.8-2.9 0-.5 0-1 .1-1.4s.2-.9.4-1.2c.2-.400004.5-.700004.9-.900004.4-.3.9-.4000004 1.4-.4000004zm0 1.3000044c-.2 0-.4 0-.5.1-.2.1-.3.2-.4.4s-.2.3-.2.5c-.1.2-.1.4-.1.6v.6.5c0 1.7.4 2.6 1.3 2.6.8 0 1.3-.9 1.3-2.7 0-.9-.1-1.6-.3-2-.3-.4-.7-.6-1.1-.6z" fill="#e9683e"/><path d="m45.6 6.49998v1.3h-5.6c0-.3.1-.7.1-.9.1-.3.2-.5.3-.7s.3-.4.5-.6.4-.4.6-.5.4-.3.8-.5c0 0 .2-.1.4-.2s.3-.2.4-.3.2-.1.3-.3.2-.2.3-.3.1-.2.2-.4.1-.4.1-.5c0-.3-.1-.6-.3-.8s-.5-.3-.8-.3c-.8 0-1.2.6-1.2 1.7h-1.5v-.3c0-.9.3-1.6.8-2.100004.5-.5 1.1-.7000004 2-.7000004.8 0 1.4.2000004 1.9.7000004.5.500004.7 1.000004.7 1.700004 0 .6-.1 1-.4 1.3s-.7.7-1.2 1.1c-.1.1-.2.1-.4.3s-.4.2-.5.3-.3.2-.4.3-.3.2-.4.3-.2.2-.3.4z" fill="#e9683e"/><path d="m46.3 2.69998c0-.8.3-1.4.7-1.900004.5-.5 1.1-.7000004 1.9-.7000004s1.4.2000004 1.8.6000004c.5.400004.7.900004.7 1.500004 0 .4-.1.7-.3 1s-.5.5-.8.5c.4.1.8.3 1 .6s.4.7.4 1.1c0 .7-.3 1.3-.8 1.8s-1.2.7-2.1.7-1.6-.2-2.1-.7-.8-1.1-.8-1.9v-.1h1.5c0 .5.1.8.3 1.1s.5.4 1 .4c.4 0 .7-.1.9-.3.4-.3.6-.6.6-.9 0-.4-.1-.7-.4-.9s-.6-.3-1-.3c-.2 0-.3 0-.4 0v-1h.3c.9 0 1.3-.3 1.3-1 0-.3-.1-.5-.3-.7s-.5-.3-.8-.3c-.4 0-.6.1-.8.3s-.3.6-.3 1h-1.5z" fill="#e9683e"/><path d="m37.4 59.6c-.1 0-.1 0 0 0-.1-.1-.1-.1 0 0l.9-3-2.5-1.8s0 0 0-.1h.1 3l.9-2.9h.1.1l.9 2.9h3 .1v.1l-2.5 1.8.9 2.9v.1h-.1l-2.4-1.8z" fill="#f3b741"/><path d="m30.1 59.6c-.1-.1-.1-.1 0 0l.9-3-2.5-1.8s0 0 0-.1h.1 3l.9-2.9h.1.1l.9 2.9h3 .1v.1l-2.5 1.8.9 2.9v.1h-.1l-2.4-1.8z" fill="#f3b741"/><path d="m22.9 59.6c-.1 0-.1 0 0 0-.1-.1-.1-.1 0 0l.9-3-2.5-1.8s0 0 0-.1h.1 3l.9-2.9h.1.1l.9 2.9h3 .1v.1l-2.5 1.8.9 2.9v.1h-.1l-2.4-1.8z" fill="#f3b741"/><path d="m51.9 59.6c-.1-.1-.1-.1 0 0l.9-3-2.5-1.8s0 0 0-.1h.1 3l.9-2.9h.1.1l.9 2.9h3 .1v.1l-2.5 1.8.9 2.9v.1h-.1l-2.4-1.8z" fill="#f3b741"/><path d="m44.6 59.6c-.1-.1 0-.1 0 0l.9-3-2.5-1.8s0 0 0-.1h.1 3l.9-2.9h.1.1l.9 2.9h3 .1v.1l-2.5 1.8.9 2.9v.1h-.1l-2.4-1.8z" fill="#f3b741"/><path d="m39.8 76.9c.9389 0 1.7-.7611 1.7-1.7s-.7611-1.7-1.7-1.7-1.7.7611-1.7 1.7.7611 1.7 1.7 1.7z" fill="#e9683e"/><path d="m16.8 41.8h46.1" stroke="#0050b2" stroke-miterlimit="10" stroke-width=".5"/></svg>