<?xml version="1.0" encoding="utf-8"?>
<!-- Generator: Adobe Illustrator 21.0.0, SVG Export Plug-In . SVG Version: 6.00 Build 0)  -->
<svg version="1.1" id="Слой_1" xmlns="http://www.w3.org/2000/svg" xmlns:xlink="http://www.w3.org/1999/xlink" x="0px" y="0px"
	 width="277px" height="250.5px" viewBox="0 0 277 250.5" style="enable-background:new 0 0 277 250.5;" xml:space="preserve">
<style type="text/css">
	.st0{fill:#2759A0;}
	.st1{fill:url(#SVGID_1_);}
	.st2{fill:url(#SVGID_2_);}
	.st3{fill:url(#SVGID_3_);}
	.st4{fill:url(#SVGID_4_);}
	.st5{fill:#FFFFFF;}
</style>
<g>
	<path class="st0" d="M20.7,69.7L20.7,69.7C23,70.8,32.2,67.2,38.1,59c6.1-8.4,6.9-23.2,6.9-23.2s-13.8,5.3-19.9,13.7
		c-0.7,1-1.4,2-1.9,3.1c-0.3-1.2-0.6-2.3-1-3.5C18.6,39.3,6.8,30.4,6.8,30.4S3.5,44.8,7.1,54.6C10.5,63.9,18,69.8,20.7,69.7z"/>
	<path class="st0" d="M24.6,106.7L24.6,106.7c0.3-0.2,0.6-0.6,0.8-1.2c3.7-0.9,11.2-6.5,15.3-15.2c4.8-10.2,2.3-26,2.3-26
		s-13.9,8.8-18.8,19.1c-0.7,1.4-1.2,2.8-1.6,4.2c-0.5-0.9-1-1.9-1.6-2.8C15,75.3,0,68.6,0,68.6s-0.4,16,5.8,25.5
		C11.9,103.7,22.3,108.1,24.6,106.7z"/>
	<path class="st0" d="M43.9,141.4L43.9,141.4c0.2-0.3,0.3-0.8,0.3-1.3c3-2.1,7.8-9.7,8.4-19.1c0.7-11.2-7.1-24.9-7.1-24.9
		s-9.4,12.7-10.1,23.9c-0.1,1.5-0.1,3,0,4.4c-0.8-0.7-1.6-1.4-2.4-2.1c-8.9-6.8-24.6-8.1-24.6-8.1s5.3,14.9,14.2,21.7
		C31.4,142.7,42.3,143.4,43.9,141.4z"/>
	<path class="st0" d="M71.8,148.9c-1.6-9-11.5-18.3-11.5-18.3s-6,12-4.3,21c0.2,1.2,0.6,2.4,1,3.5c-0.8-0.4-1.7-0.8-2.6-1.2
		c-9.4-3.6-24-1.4-24-1.4s7.8,10.7,17.2,14.3s19.4,2,20.4,0c0.1-0.3,0.1-0.7,0-1.2l0,0C70.4,163.5,73.2,156.5,71.8,148.9z"/>
	<path class="st0" d="M25.8,38.5C28,39.4,36.3,33.6,40.1,24l0,0c3.8-9.6,1-24,1-24S29.2,8.5,25.4,18.1
		C21.5,27.7,23.6,37.6,25.8,38.5z"/>
	<path class="st0" d="M256.3,69.7L256.3,69.7c2.7,0.2,10.2-5.7,13.6-15.1c3.6-9.8,0.3-24.2,0.3-24.2s-11.8,8.9-15.4,18.7
		c-0.4,1.2-0.8,2.4-1,3.5c-0.6-1-1.2-2.1-1.9-3.1c-6.1-8.4-19.9-13.7-19.9-13.7s0.8,14.7,6.9,23.2C244.8,67.2,254,70.8,256.3,69.7z"
		/>
	<path class="st0" d="M277,68.6c0,0-14.9,6.7-21.1,16.2c-0.6,0.9-1.1,1.9-1.6,2.8c-0.4-1.4-0.9-2.8-1.6-4.2
		C247.9,73.1,234,64.3,234,64.3s-2.5,15.8,2.4,26.1c4.1,8.7,11.6,14.3,15.3,15.2c0.2,0.6,0.5,1,0.8,1.2l0,0
		c2.3,1.4,12.6-3.1,18.8-12.6C277.4,84.6,277,68.6,277,68.6z"/>
	<path class="st0" d="M241.5,124.3c0.1-1.4,0.1-2.9,0-4.4c-0.7-11.2-10.1-23.9-10.1-23.9s-7.8,13.8-7.1,24.9
		c0.6,9.4,5.4,17,8.4,19.1c0,0.6,0.1,1.1,0.3,1.4l0,0c1.6,2,12.4,1.3,21.3-5.5c8.9-6.8,14.2-21.7,14.2-21.7s-15.8,1.3-24.6,8.1
		C243.1,122.9,242.3,123.6,241.5,124.3z"/>
	<path class="st0" d="M222.6,153.9c-0.9,0.4-1.8,0.8-2.6,1.2c0.4-1.1,0.7-2.3,1-3.5c1.6-9-4.3-21-4.3-21s-9.8,9.3-11.5,18.3
		c-1.4,7.6,1.4,14.6,3.7,16.8l0,0c-0.1,0.5-0.1,0.9,0,1.2c1,1.9,11,3.6,20.4,0s17.2-14.3,17.2-14.3S232.1,150.3,222.6,153.9z"/>
	<path class="st0" d="M236.8,24c3.8,9.6,12.1,15.4,14.3,14.5s4.3-10.7,0.5-20.4C247.8,8.5,235.9,0,235.9,0S233,14.4,236.8,24
		L236.8,24z"/>
	
		<radialGradient id="SVGID_1_" cx="109.8535" cy="30.0126" r="61.8711" gradientTransform="matrix(1 0 0 -1 0 252)" gradientUnits="userSpaceOnUse">
		<stop  offset="0" style="stop-color:#FFFF15"/>
		<stop  offset="0.5317" style="stop-color:#F7CD45"/>
		<stop  offset="1" style="stop-color:#D29132"/>
	</radialGradient>
	<path class="st1" d="M174.9,227.7c-0.1-0.1-0.1-0.1-0.2-0.2c-0.5-0.4-0.9-0.8-1.4-1.2c-7.9-6.1-23.3-8.9-27.4-9.5
		c-1.7-0.2-3.3-0.4-5-0.6l0,0l0,0l0,0l0,0c-6.8-0.6-13.6-0.9-20.3-0.9c-11.5,6.3-23.9,14.9-28.7,25.7c-2.1,4.6,2.4,9.5,8.6,9.5
		l76.5,0.1c6.4,0,10.7-5.1,8.4-9.8C183,235.9,179.3,231.6,174.9,227.7z"/>
	<g>
		
			<radialGradient id="SVGID_2_" cx="227.5834" cy="5.3279" r="105.5174" gradientTransform="matrix(1 0 0 -1 0 252)" gradientUnits="userSpaceOnUse">
			<stop  offset="0" style="stop-color:#FFFF15"/>
			<stop  offset="0.5317" style="stop-color:#F7CD45"/>
			<stop  offset="1" style="stop-color:#D29132"/>
		</radialGradient>
		<path class="st2" d="M174.9,227.7c-0.1-0.1-0.2-0.1-0.2-0.2c-0.5-0.4-0.9-0.8-1.4-1.2c-7.9-6.2-23.3-8.9-27.4-9.5
			c-1.7-0.2-3.3-0.4-5-0.6l0,0l0,0l0,0l0,0c-6.8-0.6-13.5-0.9-20.1-0.9c-6,3.4-12.5,7.5-17.6,11.7c32.4,0,40.6,9.4,60.2,23.6H177
			c6.4,0,10.7-5.1,8.4-9.8C183,235.9,179.3,231.6,174.9,227.7z"/>
	</g>
	
		<radialGradient id="SVGID_3_" cx="93.0807" cy="228.0712" r="126.7055" gradientTransform="matrix(1 0 0 -1 0 252)" gradientUnits="userSpaceOnUse">
		<stop  offset="0" style="stop-color:#FFFF15"/>
		<stop  offset="0.5317" style="stop-color:#F7CD45"/>
		<stop  offset="1" style="stop-color:#D29132"/>
	</radialGradient>
	<path class="st3" d="M206.6,35c0,7-30.5,12.8-68.1,12.8S70.4,42,70.4,35s19.7-16.4,68.1-16.4C185.2,18.6,206.6,28,206.6,35z"/>
	<ellipse cx="138.5" cy="37.7" rx="63.2" ry="10"/>
	
		<radialGradient id="SVGID_4_" cx="93.0807" cy="228.0712" r="126.7055" gradientTransform="matrix(1 0 0 -1 0 252)" gradientUnits="userSpaceOnUse">
		<stop  offset="0" style="stop-color:#FFFF15"/>
		<stop  offset="0.5317" style="stop-color:#F7CD45"/>
		<stop  offset="1" style="stop-color:#D29132"/>
	</radialGradient>
	<path class="st4" d="M141.6,50.7c-38.2-1.3-69.2-8.3-71.1-15.7c-0.1,0.1-0.2,0.2-0.2,0.2s0,1.1,0.1,1.6l8.2,81.5
		c0,19.6,15.3,36.9,31.1,49.6c11.3-0.3,23.1,0.2,35.2,1.6l0,0c0,0,0,0,0.1,0c0,0,0,0,0.1,0l0,0c5.8,0.5,11.5,1.2,17.1,2.1
		c17.4-12.9,36-31.7,36-53.3l7.5-73.2C193.7,49.4,169.5,51.7,141.6,50.7z M138.4,126.2c-19.3,0-34.9-15.6-34.9-34.9
		s15.6-34.9,34.9-34.9s34.9,15.6,34.9,34.9S157.6,126.2,138.4,126.2z"/>
	<path class="st0" d="M138.4,215.7L138.4,215.7L138.4,215.7C138.5,215.7,138.5,215.7,138.4,215.7L138.4,215.7
		c38.8,0,74.6,9.8,101.5,27.6l3.1-26.2l23.5-12.1c-33.4-23.2-78.9-36-128-36.1l0,0c0,0,0,0-0.1,0c0,0,0,0-0.1,0l0,0
		c-49.2,0-94.6,12.8-128,36.1l23.5,12.1l3.1,26.2C63.9,225.5,99.7,215.7,138.4,215.7z"/>
	<circle class="st5" cx="138.6" cy="91.3" r="34.9"/>
	<g>
		<g>
			<path d="M138.9,117c-3.8,0-7.2-0.6-10.2-1.9s-5.3-3-7-5.1c-1.7-2.2-2.5-4.6-2.5-7.4c0-2.1,0.5-4.1,1.4-5.8c1-1.8,2.3-3.3,4-4.4
				c1.7-1.2,3.5-1.9,5.6-2.3v-0.3c-2.7-0.5-4.9-1.9-6.6-4s-2.5-4.5-2.5-7.3c0-2.6,0.8-5,2.3-7s3.6-3.7,6.3-4.9
				c2.7-1.2,5.7-1.8,9.2-1.8c3.4,0,6.5,0.6,9.2,1.8c2.7,1.2,4.8,2.8,6.3,4.9s2.3,4.4,2.3,7c0,2.8-0.9,5.2-2.6,7.3
				c-1.7,2.1-3.9,3.4-6.5,3.9V90c2,0.3,3.9,1.1,5.5,2.3c1.7,1.2,3,2.7,4,4.4c1,1.8,1.5,3.7,1.5,5.8c0,2.7-0.9,5.2-2.6,7.4
				s-4,3.9-7,5.1S142.8,117,138.9,117z M138.9,109.1c1.7,0,3.2-0.3,4.5-0.9s2.3-1.5,3-2.6s1.1-2.4,1.1-3.8c0-1.5-0.4-2.8-1.1-3.9
				c-0.7-1.1-1.8-2-3-2.7c-1.3-0.7-2.7-1-4.4-1c-1.6,0-3.1,0.3-4.4,1c-1.3,0.7-2.3,1.5-3,2.7c-0.7,1.1-1.1,2.4-1.1,3.9
				c0,1.4,0.4,2.7,1.1,3.8c0.7,1.1,1.7,2,3,2.6S137.2,109.1,138.9,109.1z M138.9,86.4c1.4,0,2.7-0.3,3.8-0.9s2-1.4,2.6-2.4
				s0.9-2.2,0.9-3.5s-0.3-2.5-0.9-3.5c-0.6-1-1.5-1.8-2.6-2.4s-2.4-0.9-3.8-0.9c-1.4,0-2.7,0.3-3.8,0.9s-2,1.4-2.6,2.4
				s-0.9,2.2-0.9,3.5s0.3,2.5,0.9,3.5c0.6,1,1.5,1.8,2.6,2.4C136.2,86.2,137.5,86.4,138.9,86.4z"/>
		</g>
	</g>
	<g>
		<path class="st5" d="M56.4,207.8c0.8,1.8,1.1,3.5,1,5s-0.6,2.9-1.5,4.1c-0.9,1.2-2,2.1-3.5,2.7c-1.5,0.6-2.9,0.9-4.4,0.7
			c-1.4-0.2-2.8-0.7-4-1.7s-2.2-2.3-3-4.1s-1.1-3.5-1-5s0.6-2.9,1.5-4.1c0.9-1.2,2-2.1,3.5-2.7c1.4-0.6,2.9-0.9,4.3-0.7
			c1.4,0.2,2.8,0.7,4,1.7S55.7,206,56.4,207.8z M52.9,209.3c-0.5-1.2-1.1-2.1-1.8-2.7s-1.4-1-2.2-1.2s-1.6,0-2.5,0.3
			c-0.8,0.4-1.5,0.9-1.9,1.6c-0.4,0.7-0.7,1.5-0.7,2.4s0.3,2,0.8,3.2s1.1,2.1,1.8,2.7c0.7,0.6,1.4,1,2.2,1.2s1.6,0,2.5-0.3
			c0.8-0.4,1.5-0.9,1.9-1.6c0.4-0.7,0.7-1.5,0.7-2.4C53.7,211.5,53.4,210.5,52.9,209.3z"/>
		<path class="st5" d="M63.2,214.9l-5.5-17l11.2-3.7l1,3l-7.7,2.5l1.3,4l6.9-2.3l1,3l-6.9,2.3l2.3,7L63.2,214.9z"/>
		<path class="st5" d="M77.5,210.4L73.3,193l6.9-1.7c1.3-0.3,2.5-0.4,3.5-0.1c1,0.2,1.9,0.7,2.6,1.5c0.7,0.7,1.2,1.7,1.5,2.8
			c0.3,1.2,0.3,2.2,0,3.2c-0.3,0.9-0.9,1.8-1.7,2.4c-0.8,0.7-1.9,1.2-3.3,1.5l-4.6,1.1l-0.7-3l4-1c0.7-0.2,1.3-0.4,1.7-0.7
			s0.7-0.7,0.8-1.1s0.1-0.9,0-1.5s-0.4-1-0.7-1.4c-0.3-0.3-0.7-0.6-1.3-0.7s-1.1-0.1-1.8,0.1l-2.5,0.6l3.5,14.4L77.5,210.4z
			 M85,200.2l6.2,6.9l-4.1,1l-6.1-6.9L85,200.2z"/>
		<path class="st5" d="M94.5,188.4l3.2,17.6l-3.7,0.7l-3.2-17.6L94.5,188.4z"/>
		<path class="st5" d="M108.3,193.8l0.4,2.9l-8.1,1.1l-0.4-2.9L108.3,193.8z"/>
		<path class="st5" d="M112.5,185.7l4.6-0.3l5.7,11.7h0.2l4.1-12.3l4.6-0.3l1.1,17.8l-3.7,0.2l-0.7-11.6h-0.1l-3.9,11.8l-2.5,0.2
			l-5.4-11.3h-0.1l0.7,11.6l-3.7,0.2L112.5,185.7z"/>
		<path class="st5" d="M140.5,184.5l0.1,17.9h-3.8l-0.1-17.9H140.5z"/>
		<path class="st5" d="M144.5,187.6l0.1-3.1l14.7,0.7l-0.1,3.1l-5.5-0.3l-0.7,14.7l-3.7-0.2l0.7-14.7L144.5,187.6z"/>
		<path class="st5" d="M174,192.6c-0.1-0.4-0.2-0.8-0.4-1.2s-0.4-0.7-0.7-0.9s-0.6-0.5-1-0.7s-0.8-0.3-1.3-0.3
			c-0.9-0.1-1.7,0-2.5,0.4c-0.7,0.4-1.3,1-1.8,1.8s-0.8,1.8-1,3.1c-0.1,1.2-0.1,2.3,0.2,3.2s0.7,1.6,1.4,2.2s1.4,0.9,2.4,1
			c0.8,0.1,1.6,0,2.2-0.2c0.6-0.2,1.2-0.6,1.5-1.1c0.4-0.5,0.6-1.2,0.7-1.9l0.7,0.2l-4.6-0.6l0.3-2.8l7.4,0.9l-0.3,2.2
			c-0.2,1.6-0.7,2.9-1.5,3.9s-1.8,1.8-3,2.3s-2.6,0.6-4.1,0.4c-1.7-0.2-3.1-0.7-4.2-1.6s-2-2.1-2.6-3.5c-0.5-1.4-0.7-3.1-0.5-5
			c0.2-1.4,0.5-2.7,1.1-3.8s1.3-2,2.1-2.7c0.9-0.7,1.8-1.2,2.9-1.5c1.1-0.3,2.2-0.4,3.3-0.2c1,0.1,1.9,0.4,2.8,0.8
			c0.8,0.4,1.6,0.9,2.2,1.5c0.6,0.6,1.1,1.3,1.4,2.1s0.5,1.6,0.5,2.5L174,192.6z"/>
		<path class="st5" d="M180,205.8l3.5-17.5l3.7,0.7l-2.8,14.5l7.5,1.5l-0.6,3.1L180,205.8z"/>
		<path class="st5" d="M202.4,192.4l-4.3,17.3l-3.7-0.9l4.3-17.3L202.4,192.4z"/>
		<path class="st5" d="M201.8,210.6l5.3-17.1l11.5,3.6l-0.9,3l-7.9-2.5l-1.3,4.1l7.3,2.3l-0.9,3l-7.3-2.3l-1.3,4.1l7.9,2.5l-0.9,3
			L201.8,210.6z"/>
		<path class="st5" d="M222.5,217.8l-5.8-2.4l6.9-16.5l5.9,2.5c1.7,0.7,3,1.6,3.9,2.8s1.5,2.5,1.6,4s-0.2,3.1-0.9,4.8
			s-1.7,3.1-2.8,4c-1.2,1-2.5,1.5-4,1.7C225.8,218.8,224.2,218.5,222.5,217.8z M221.4,213.8l2.2,0.9c1,0.4,2,0.6,2.8,0.5
			c0.9-0.1,1.6-0.4,2.3-1.1c0.7-0.6,1.3-1.6,1.8-2.8s0.7-2.3,0.7-3.2s-0.3-1.7-0.9-2.4s-1.3-1.2-2.4-1.6l-2.2-0.9L221.4,213.8z"/>
	</g>
	<g>
		<path class="st5" d="M109.8,131.7v14.2c0,0.6-0.1,1.2-0.3,1.6c-0.2,0.4-0.4,0.8-0.8,1c-0.3,0.2-0.8,0.3-1.3,0.3s-0.9-0.1-1.3-0.3
			s-0.7-0.5-0.9-0.9c-0.2-0.4-0.3-0.9-0.3-1.4h-4.2c0,1.3,0.4,2.4,0.9,3.3c0.5,0.9,1.3,1.6,2.3,2c1,0.4,2.1,0.6,3.3,0.6
			c1.4,0,2.6-0.3,3.6-0.8s1.8-1.2,2.4-2.2c0.6-1,0.9-2.1,0.9-3.4v-14H109.8L109.8,131.7z"/>
		<path class="st5" d="M128.8,137.6c-0.5-0.4-1.2-0.7-2-0.9c-0.8-0.2-1.6-0.3-2.4-0.3c-1.2,0-2.3,0.2-3.2,0.5
			c-0.9,0.3-1.6,0.8-2.2,1.5c-0.6,0.7-1,1.5-1.2,2.4l3.9,0.3c0.2-0.5,0.5-0.9,0.9-1.2c0.5-0.3,1-0.5,1.8-0.5c0.8,0,1.3,0.2,1.7,0.5
			c0.7,0.5,0.9,1.6,0.2,2.2c-0.3,0.2-0.7,0.3-1.2,0.4c-0.5,0.1-1.2,0.2-2.1,0.3c-0.7,0.1-1.4,0.2-2.1,0.4c-0.7,0.2-1.3,0.5-1.8,0.8
			c-0.6,0.4-1,0.8-1.3,1.4c-0.3,0.6-0.5,1.3-0.5,2.1c0,1,0.2,1.8,0.7,2.5c0.5,0.7,1,1.2,1.8,1.5c1.4,0.5,3.1,0.5,4.3,0.1
			c0.6-0.2,1.1-0.5,1.5-0.8c0.4-0.3,0.8-0.7,1-1.2h0.1v2.1h4v-10.2c0-0.9-0.2-1.7-0.5-2.3C129.9,138.5,129.4,138,128.8,137.6z
			 M126.6,146.4c0,0.5-0.1,1-0.4,1.4c-0.3,0.4-1.1,1.4-2.7,1.4c-0.6,0-1.3-0.3-1.7-0.6c-0.4-0.3-0.6-0.7-0.6-1.3
			c0-1.2,0.8-1.5,1.2-1.6c0.9-0.3,2.9-0.5,4.2-0.9V146.4z"/>
		<path class="st5" d="M146.1,137.2c-0.7-0.5-1.7-0.7-2.7-0.7c-1.2,0-2.1,0.3-2.9,0.8c-0.7,0.5-1.3,1.2-1.6,2.1h-0.2v-7.7h-4.1v20.1
			h4.2v-8.7c0-0.7,0.1-1.1,0.3-1.6c0.2-0.5,0.6-0.9,1-1.1c0.4-0.3,0.9-0.4,1.5-0.4c0.9,0,1.5,0.3,2,0.8s0.7,1.3,0.7,2.2v8.8h4.2
			v-9.6c0-1.1-0.2-2.1-0.6-3C147.5,138.3,146.9,137.7,146.1,137.2z"/>
		<path class="st5" d="M160.3,136.5c-0.8,0-1.5,0.2-2.2,0.7s-1.1,1.2-1.4,2.1h-0.2v-2.6h-4.1v14.9h4.3v-8.5c0-1.6,1-2.4,1.5-2.7
			c0.4-0.3,1-0.4,1.6-0.4c0.8,0,1.6,0.2,1.8,0.3v-3.7C161.1,136.5,160.7,136.5,160.3,136.5z"/>
		<path class="st5" d="M177.3,144.3c0-1.3-0.1-2.4-0.5-3.4c-0.4-1-0.9-1.8-1.5-2.4c-0.7-0.6-1.4-1.1-2.3-1.4
			c-0.9-0.3-1.8-0.5-2.8-0.5c-1.5,0-2.8,0.3-3.9,1c-1,0.6-1.9,1.5-2.5,2.7s-0.9,2.6-0.9,4.1c0,1.6,0.3,2.9,0.9,4.1
			c0.6,1.2,1.5,2.1,2.6,2.7c1.1,0.6,2.5,0.9,4,0.9c1.3,0,2.4-0.2,3.4-0.6c0.9-0.4,1.7-0.9,2.3-1.6c0.6-0.7,1-1.5,1.2-2.4l-3.9-0.3
			c-0.1,0.4-0.3,0.7-0.6,1c-0.3,0.3-1,0.8-2.3,0.8c-0.7,0-1.3-0.1-1.8-0.4c-0.5-0.3-0.9-0.8-1.2-1.3s-0.4-1.2-0.4-1.9h10.2V144.3z
			 M167.1,142.8c0-0.6,0.1-1,0.4-1.5c0.2-0.5,0.6-0.9,1.1-1.2s1.1-0.4,1.7-0.4c0.6,0,1.1,0.1,1.6,0.4c0.5,0.3,0.8,0.6,1.1,1.1
			s0.4,1,0.4,1.6H167.1z"/>
	</g>
</g>
</svg>
