<svg width="17" height="16" viewBox="0 0 17 16" fill="none" xmlns="http://www.w3.org/2000/svg">
<path d="M13.977 2.16444L13.999 5L5.99902 5.5L5.49902 12L3.49902 13L4.23743 10.2809H3.15566C1.9601 10.2809 0.991211 9.312 0.991211 8.11644V2.16444C0.991211 0.968889 1.9601 0 3.15566 0H11.8125C13.0081 0 13.977 0.968889 13.977 2.16444Z" fill="black"/>
<path fill-rule="evenodd" clip-rule="evenodd" d="M10.8245 13.4444H7.26899C6.28677 13.4444 5.49121 12.6489 5.49121 11.6667V6.77778C5.49121 5.79556 6.28677 5 7.26899 5H14.3801C15.3623 5 16.1579 5.79556 16.1579 6.77778V11.6667C16.1579 12.6489 15.3623 13.4444 14.3801 13.4444H13.4912V15.2222L10.8245 13.4444Z" stroke="black" stroke-width="1.33333" stroke-linecap="round" stroke-linejoin="round"/>
</svg>
