<svg enable-background="new 0 0 290.6 190.6" viewBox="0 0 290.6 190.6" xmlns="http://www.w3.org/2000/svg"><path d="m.3.3h290v190h-290z" fill="#fff"/><path d="m235.2 138.6c3 1.7 3 6 0 7.8l-48.4 27.5c-2.1 1.2-5.7 1.2-7.8 0l-47.5-27.4 56.4-32.2c.6-.3 1.5-.6 2.5-.6s1.9.2 2.5.6z" fill="#e6e6e6"/><path d="m135.5 149.4c-5.6-3.3-10.2-11.2-10.2-17.7s4.6-9.2 10.2-5.9 10.2 11.2 10.2 17.7-4.6 9.2-10.2 5.9zm0-21c-4.4-2.5-8-.5-8 4.6s3.6 11.3 8 13.8 8 .5 8-4.6c-.1-5.1-3.6-11.2-8-13.8z" fill="#e6e6e6"/><path d="m140 151.1c-1.5 0-3.1-.5-4.7-1.4-5.7-3.3-10.4-11.4-10.4-18 0-3.3 1.1-5.7 3.2-6.9 2-1.2 4.7-.9 7.5.7 5.7 3.3 10.4 11.4 10.4 18 0 3.3-1.1 5.7-3.2 6.9-.8.5-1.7.7-2.8.7zm-9.1-26.4c-.9 0-1.8.2-2.5.6-1.8 1.1-2.9 3.3-2.9 6.4 0 6.4 4.5 14.3 10.1 17.5 2.6 1.5 5.1 1.8 6.9.7s2.9-3.3 2.9-6.4c0-6.4-4.5-14.3-10.1-17.5-1.5-.9-3-1.3-4.4-1.3zm8.1 23.5c-1.1 0-2.4-.4-3.7-1.1-4.5-2.6-8.1-8.9-8.1-14.1 0-2.6.9-4.5 2.5-5.4s3.7-.7 5.9.6c4.5 2.6 8.1 8.9 8.1 14.1 0 2.6-.9 4.5-2.5 5.4-.6.3-1.4.5-2.2.5zm-7.1-20.6c-.7 0-1.4.2-1.9.5-1.4.8-2.2 2.6-2.2 4.9 0 5 3.5 11 7.8 13.5 2 1.2 3.9 1.4 5.3.6s2.2-2.6 2.2-4.9c0-5-3.5-11-7.8-13.5-1.2-.7-2.3-1.1-3.4-1.1z" fill="#4d4d4d"/><path d="m133.9 150.5c-5.6-3.3-10.2-11.2-10.2-17.7s4.6-9.2 10.2-5.9 10.2 11.2 10.2 17.7c.1 6.5-4.5 9.2-10.2 5.9zm0-21c-4.4-2.5-8-.5-8 4.6s3.6 11.3 8 13.8 8 .5 8-4.6-3.6-11.3-8-13.8z" fill="#e6e6e6"/><path d="m138.5 152.2c-1.5 0-3.1-.5-4.7-1.4-5.7-3.3-10.4-11.4-10.4-18 0-3.3 1.1-5.7 3.2-6.9 2-1.2 4.7-.9 7.5.7 5.7 3.3 10.4 11.4 10.4 18 0 3.3-1.1 5.7-3.2 6.9-.8.5-1.8.7-2.8.7zm-4.4-2c2.6 1.5 5.1 1.8 6.9.7s2.9-3.3 2.9-6.4c0-6.4-4.5-14.3-10.1-17.5-2.6-1.5-5.1-1.8-6.9-.7s-2.9 3.3-2.9 6.4c0 6.5 4.5 14.3 10.1 17.5zm3.4-.9c-1.1 0-2.4-.4-3.7-1.1-4.5-2.6-8.1-8.9-8.1-14.1 0-2.6.9-4.5 2.5-5.4s3.7-.7 5.9.6c4.5 2.6 8.1 8.9 8.1 14.1 0 2.6-.9 4.5-2.5 5.4-.7.3-1.4.5-2.2.5zm-7.1-20.6c-.7 0-1.4.2-1.9.5-1.4.8-2.2 2.6-2.2 4.9 0 5 3.5 11 7.8 13.5 2 1.2 3.9 1.4 5.3.6s2.2-2.6 2.2-4.9c0-5-3.5-11-7.8-13.5-1.2-.8-2.4-1.1-3.4-1.1z" fill="#4d4d4d"/><path d="m133.9 150.5c-5.6-3.3-10.2-11.2-10.2-17.7s4.6-9.2 10.2-5.9 10.2 11.2 10.2 17.7c.1 6.5-4.5 9.2-10.2 5.9zm0-21c-4.4-2.5-8-.5-8 4.6s3.6 11.3 8 13.8 8 .5 8-4.6-3.6-11.3-8-13.8z" fill="#e6e6e6"/><path d="m138.5 152.2c-1.5 0-3.1-.5-4.7-1.4-5.7-3.3-10.4-11.4-10.4-18 0-3.3 1.1-5.7 3.2-6.9 2-1.2 4.7-.9 7.5.7 5.7 3.3 10.4 11.4 10.4 18 0 3.3-1.1 5.7-3.2 6.9-.8.5-1.8.7-2.8.7zm-4.4-2c2.6 1.5 5.1 1.8 6.9.7s2.9-3.3 2.9-6.4c0-6.4-4.5-14.3-10.1-17.5-2.6-1.5-5.1-1.8-6.9-.7s-2.9 3.3-2.9 6.4c0 6.5 4.5 14.3 10.1 17.5zm3.4-.9c-1.1 0-2.4-.4-3.7-1.1-4.5-2.6-8.1-8.9-8.1-14.1 0-2.6.9-4.5 2.5-5.4s3.7-.7 5.9.6c4.5 2.6 8.1 8.9 8.1 14.1 0 2.6-.9 4.5-2.5 5.4-.7.3-1.4.5-2.2.5zm-7.1-20.6c-.7 0-1.4.2-1.9.5-1.4.8-2.2 2.6-2.2 4.9 0 5 3.5 11 7.8 13.5 2 1.2 3.9 1.4 5.3.6s2.2-2.6 2.2-4.9c0-5-3.5-11-7.8-13.5-1.2-.8-2.4-1.1-3.4-1.1z" fill="#4d4d4d"/><path d="m133.9 143.6c-2.4-1.4-4.3-4.7-4.3-7.4s1.9-3.9 4.3-2.5 4.3 4.7 4.3 7.4c0 2.8-1.9 3.9-4.3 2.5zm-3.3-6.9" fill="#e6e6e6"/><path d="m135.8 144.5c-.6 0-1.3-.2-2.1-.6-2.5-1.4-4.4-4.9-4.4-7.7 0-1.4.5-2.5 1.4-3s2.1-.4 3.3.3c2.5 1.4 4.5 4.9 4.5 7.7 0 1.4-.5 2.5-1.4 3-.4.2-.8.3-1.3.3zm-1.7-1.1c1 .6 2 .7 2.7.3s1.1-1.3 1.1-2.5c0-2.6-1.9-5.9-4.2-7.2-1-.6-2-.7-2.7-.3s-1.1 1.3-1.1 2.5c0 2.6 1.9 5.9 4.2 7.2z" fill="#4d4d4d"/><path d="m135.9 122-6.4 3.7c6.6 3.8 12 13.1 12 20.8l6.4-3.7c0-7.6-5.4-16.9-12-20.8z" fill="#fff"/><path d="m141.5 146.8c-.1 0-.1 0-.2 0-.1-.1-.1-.2-.1-.3 0-7.5-5.3-16.7-11.8-20.5-.1-.1-.1-.2-.1-.3s.1-.2.1-.3l6.4-3.7c.1-.1.2-.1.3 0 6.7 3.9 12.1 13.3 12.1 21 0 .1-.1.2-.1.3l-6.4 3.7c-.1.1-.2.1-.2.1zm-11.4-21.1c6.3 3.9 11.5 12.8 11.7 20.3l5.8-3.4c-.1-7.5-5.3-16.5-11.7-20.3z" fill="#4d4d4d"/><path d="m135.3 52.1-28.9-2.3 4.1 56.4.1.8c.2.8.9 1.5 1.9 2.1l17.2 10c1.5.9 3.6 1.2 5.6 1.1 1.4-.1 2.8-.5 3.9-1.1l27.2-15.3c1.3-.7 2-1.7 2-2.7v-.1l4.1-55.9z" fill="#fff"/><path d="m134.4 120.5c-1.8 0-3.6-.4-4.9-1.2l-17.2-10c-1-.6-1.7-1.4-2-2.2v-.1l-.1-.8-4.1-56.4c0-.1 0-.2.1-.2.1-.1.1-.1.2-.1l28.9 2.3 37.2-7.1c.1 0 .2 0 .3.1s.1.2.1.2l-4.1 55.9v.1c0 1.1-.8 2.2-2.1 3l-27.2 15.3c-1.1.6-2.6 1-4.1 1.1-.4.1-.7.1-1 .1zm-27.7-70.4 4.1 56 .1.8c.2.7.8 1.4 1.7 1.9l17.2 10c1.4.8 3.4 1.2 5.4 1.1 1.4-.1 2.8-.5 3.8-1.1l27.2-15.3c1.2-.7 1.8-1.5 1.8-2.5v-.1l4.1-55.6-36.8 7.1h-.1z" fill="#4d4d4d"/><path d="m135.3 52.1-28.9-2.3 4.1 56.4.1.8c.2.8.9 1.5 1.9 2.1l17.2 10c1.5.9 3.6 1.2 5.6 1.1 1.4-.1 2.8-.5 3.9-1.1l27.2-15.3c1.3-.7 2-1.7 2-2.7v-.1l4.1-55.9z" fill="#fff"/><path d="m134.4 120.5c-1.8 0-3.6-.4-4.9-1.2l-17.2-10c-1-.6-1.7-1.4-2-2.2v-.1l-.1-.8-4.1-56.4c0-.1 0-.2.1-.2.1-.1.1-.1.2-.1l28.9 2.3 37.2-7.1c.1 0 .2 0 .3.1s.1.2.1.2l-4.1 55.9v.1c0 1.1-.8 2.2-2.1 3l-27.2 15.3c-1.1.6-2.6 1-4.1 1.1-.4.1-.7.1-1 .1zm-27.7-70.4 4.1 56 .1.8c.2.7.8 1.4 1.7 1.9l17.2 10c1.4.8 3.4 1.2 5.4 1.1 1.4-.1 2.8-.5 3.8-1.1l27.2-15.3c1.2-.7 1.8-1.5 1.8-2.5v-.1l4.1-55.6-36.8 7.1h-.1z" fill="#4d4d4d"/><path d="m170.1 65.1-28.7-4.3.2 57 32.3-18.4c1.3-.7 2 .9 2-.1v-2.8l2.6-32.4z" fill="#e6e6e6"/><path d="m134.4 120.5c-1.8 0-3.6-.4-4.9-1.2l-17.2-10c-1-.6-1.7-1.4-2-2.2v-.1l-.1-.8-4.1-56.4c0-.1 0-.2.1-.2.1-.1.1-.1.2-.1l28.9 2.3 37.2-7.1c.1 0 .2 0 .3.1s.1.2.1.2l-4.1 55.9v.1c0 1.1-.8 2.2-2.1 3l-27.2 15.3c-1.1.6-2.6 1-4.1 1.1-.4.1-.7.1-1 .1zm-27.7-70.4 4.1 56 .1.8c.2.7.8 1.4 1.7 1.9l17.2 10c1.4.8 3.4 1.2 5.4 1.1 1.4-.1 2.8-.5 3.8-1.1l27.2-15.3c1.2-.7 1.8-1.5 1.8-2.5v-.1l4.1-55.6-36.8 7.1h-.1z" fill="#4d4d4d"/><path d="m129.2 65.2-21.9-12.6c-3.3-1.9-4.3-9.3-1-11.2l31.2-12.8c3.3-1.9 8.7-1.9 12.1 0l23.9 8.9c3.3 1.9 1.3 8.8-2 10.7l-30.3 17c-3.3 2-8.7 2-12 0z" fill="#fff"/><path d="m135.2 67c-2.2 0-4.5-.5-6.2-1.5l-21.9-12.6c-1.9-1.1-3.2-3.9-3.2-6.8 0-2.3.8-4.1 2.2-4.9l31.2-12.8c3.4-1.9 8.9-1.9 12.3 0l23.9 8.9c1.2.7 1.9 2.1 1.9 3.8 0 2.9-1.7 6.2-3.9 7.4l-30.3 17c-1.5 1-3.7 1.5-6 1.5zm-5.8-2c3.2 1.9 8.5 1.9 11.8 0l30.3-17c2-1.1 3.6-4.2 3.6-6.9 0-1.1-.3-2.6-1.6-3.3l-23.9-8.9c-3.3-1.9-8.6-1.9-11.8 0l-31.2 12.8c-1.2.7-1.9 2.3-1.9 4.4 0 2.7 1.2 5.4 2.9 6.3z" fill="#4d4d4d"/><path d="m134.4 60.3c-2.1 0-4.1-.5-5.6-1.3l-21.6-12.6c-1.3-.8-2.1-1.8-2.1-2.8s.7-2 2.1-2.8l30.2-17c1.5-.9 3.5-1.3 5.6-1.3s4.1.5 5.6 1.3l21.9 12.7c1.3.8 2.1 1.8 2.1 2.8s-.7 2-2.1 2.8l-30.5 16.9c-1.5.8-3.5 1.3-5.6 1.3z" fill="#ccc"/><path d="m134.4 60.6c-2.2 0-4.2-.5-5.8-1.4l-21.6-12.6c-1.4-.8-2.2-1.9-2.2-3s.8-2.2 2.2-3l30.2-17c1.5-.9 3.6-1.4 5.8-1.4s4.2.5 5.8 1.4l21.9 12.7c1.4.8 2.2 1.9 2.2 3s-.8 2.2-2.2 3l-30.6 17c-1.5.8-3.5 1.3-5.7 1.3zm8.7-37.9c-2.1 0-4 .5-5.5 1.3l-30.2 17c-1.2.7-1.9 1.6-1.9 2.5s.7 1.8 1.9 2.5l21.6 12.7c1.4.8 3.4 1.3 5.5 1.3s4-.5 5.5-1.3l30.6-17c1.2-.7 1.9-1.6 1.9-2.5s-.7-1.8-1.9-2.5l-22.1-12.7c-1.4-.8-3.3-1.3-5.4-1.3z" fill="#4d4d4d"/><path d="m148.7 28.1c-1.5-.9-3.5-1.3-5.6-1.3s-4.1.5-5.6 1.3l-30.2 17c-.3.2-.6.4-.9.6.3.2.5.4.9.6l21.3 12.4c1.5.9 3.5 1.3 5.6 1.3s4.1-.5 5.6-1.3l30.8-16.7c.3-.2.6-.4.9-.6-.3-.2-.5-.4-.9-.6z" fill="#ccc"/><path d="m134.1 60.3c-2.2 0-4.2-.5-5.8-1.4l-21.3-12.3c-.3-.2-.6-.4-.9-.6-.1-.1-.1-.1-.1-.2s0-.2.1-.2c.3-.2.6-.4.9-.6l30.2-17c1.5-.9 3.6-1.4 5.8-1.4s4.2.5 5.8 1.4l21.9 12.7c.3.2.6.4.9.6.1.1.1.1.1.2s0 .2-.1.2c-.3.2-.6.4-.9.6l-30.8 16.7c-1.5.9-3.6 1.3-5.8 1.3zm-27.3-14.6c.2.1.3.2.5.3l21.3 12.4c1.4.8 3.4 1.3 5.5 1.3s4-.5 5.5-1.3l30.8-16.7c.2-.1.3-.2.5-.3-.2-.1-.3-.2-.5-.3l-21.9-12.7c-1.4-.8-3.4-1.3-5.5-1.3s-4 .5-5.5 1.3l-30.2 17c-.1.1-.3.2-.5.3z" fill="#4d4d4d"/><path d="m175.2 166.3 2.2-5.8-5.4-3.3v6.4c0 1.1.7 2.4 1.7 3 .6.5 1.2.4 1.5-.3z" fill="#fff"/><g fill="#4d4d4d"><path d="m174.4 167.2c-.3 0-.6-.1-.9-.3-1-.6-1.8-2.1-1.8-3.3v-6.4c0-.1.1-.2.2-.3s.2-.1.3 0l5.4 3.3c.1.1.2.2.1.4l-2.2 5.8c-.1.4-.4.6-.7.7-.2.1-.3.1-.4.1zm-2.2-9.4v5.9c0 1 .7 2.2 1.5 2.7.3.2.6.3.8.2s.3-.2.3-.4l2.1-5.6z"/><path d="m177.4 167.2c0 1.2-.4 2.1-1.1 2.5l-3.4 2-5.5-9.6 3.4-2 .2-.1c.7-.3 1.6-.3 2.6.3 2.1 1.3 3.8 4.3 3.8 6.9z"/><path d="m172.9 172c-.2 0-.2-.1-.3-.2l-5.5-9.6c-.1-.1 0-.3.1-.4l3.6-2.2c.8-.4 1.8-.3 2.9.3 2.2 1.3 3.9 4.5 3.9 7.1 0 1.3-.4 2.3-1.2 2.8l-3.4 2.2zm-5.1-9.7 5.2 9 3.2-1.9c.6-.4.9-1.2.9-2.3 0-2.4-1.6-5.4-3.7-6.6-.9-.5-1.7-.6-2.3-.3l-.2.1z"/><path d="m166.4 164.7c0 2.5 1.7 5.6 3.8 6.8 2.1 1.3 3.8.2 3.8-2.3s-1.7-5.6-3.8-6.8c-2.1-1.3-3.8-.3-3.8 2.3z"/><path d="m171.9 172.3c-.6 0-1.2-.2-1.8-.6-2.2-1.3-3.9-4.5-3.9-7.1 0-1.4.5-2.4 1.3-2.8.8-.5 1.9-.4 2.9.3 2.2 1.3 3.9 4.5 3.9 7.1 0 1.4-.5 2.4-1.3 2.8-.4.2-.7.3-1.1.3zm-3.4-10.2c-.3 0-.6.1-.8.2-.6.4-1 1.2-1 2.3 0 2.4 1.6 5.4 3.6 6.6.9.5 1.7.6 2.3.3.6-.4 1-1.2 1-2.3 0-2.4-1.6-5.4-3.6-6.6-.5-.3-1-.5-1.5-.5z"/></g><path d="m171.9 157.3-3.4 2v6.4c0 1.1.7 2.4 1.7 3 .7.4 1.3.3 1.6-.4l2.2-5.8 3.4-2z" fill="#fff"/><path d="m171 169.3c-.3 0-.6-.1-.9-.3-1-.6-1.8-2.1-1.8-3.3v-6.4c0-.1.1-.2.1-.3l3.4-2c.1-.1.2-.1.3 0l5.4 3.3c.1.1.1.2.1.3s-.1.2-.1.3l-3.3 2-2.2 5.7c-.1.4-.4.6-.7.7-.1 0-.2 0-.3 0zm-2.2-9.8v6.3c0 1 .7 2.2 1.5 2.7.3.2.6.3.8.2s.3-.2.3-.4l2.2-5.8c0-.1.1-.1.1-.2l3-1.8-4.9-2.9z" fill="#4d4d4d"/><path d="m210.4 146 2.2-5.8-5.5-3.3v6.4c0 1.1.7 2.4 1.7 3 .7.5 1.3.4 1.6-.3z" fill="#fff"/><path d="m209.5 146.9c-.3 0-.6-.1-.9-.3-1-.6-1.8-2.1-1.8-3.3v-6.3c0-.1.1-.2.2-.3s.2-.1.3 0l5.5 3.3c.1.1.2.2.1.4l-2.2 5.8c-.1.4-.4.6-.7.7-.2 0-.3 0-.5 0zm-2.1-9.4v5.9c0 1 .7 2.2 1.5 2.7.3.2.6.3.8.2s.3-.2.3-.4l2.1-5.6z" fill="#4d4d4d"/><path d="m212.6 146.8c0 1.2-.4 2.1-1.1 2.5l-3.4 2-5.5-9.6 3.4-2 .2-.1c.7-.3 1.6-.3 2.6.3 2.1 1.4 3.8 4.4 3.8 6.9z" fill="#4d4d4d"/><path d="m208.1 151.7c-.1 0-.1 0 0 0-.2 0-.2-.1-.3-.2l-5.5-9.6c-.1-.1 0-.3.1-.4l3.6-2.2c.8-.4 1.8-.3 2.9.3 2.2 1.3 3.9 4.5 3.9 7.1 0 1.3-.4 2.3-1.2 2.8l-3.4 2.1c0 .1-.1.1-.1.1zm-5.1-9.7 5.2 9 3.2-1.9c.6-.4.9-1.2.9-2.3 0-2.4-1.6-5.4-3.7-6.6-.9-.5-1.7-.6-2.3-.3z" fill="#4d4d4d"/><path d="m201.6 144.3c0 2.5 1.7 5.6 3.8 6.8 2.1 1.3 3.8.2 3.8-2.3s-1.7-5.6-3.8-6.8-3.8-.2-3.8 2.3z" fill="#4d4d4d"/><path d="m207 152c-.6 0-1.2-.2-1.8-.6-2.2-1.3-3.9-4.5-3.9-7.1 0-1.4.5-2.4 1.3-2.8.8-.5 1.9-.4 2.9.3 2.2 1.3 3.9 4.5 3.9 7.1 0 1.4-.5 2.4-1.3 2.8-.3.2-.7.3-1.1.3zm-3.3-10.2c-.3 0-.6.1-.8.2-.6.4-1 1.2-1 2.3 0 2.4 1.6 5.4 3.6 6.6.9.5 1.7.6 2.3.3.6-.4 1-1.2 1-2.3 0-2.4-1.6-5.4-3.6-6.6-.5-.3-1.1-.5-1.5-.5z" fill="#4d4d4d"/><path d="m207.1 137-3.4 2v6.4c0 1.1.7 2.4 1.7 3 .7.4 1.3.3 1.6-.4l2.2-5.8 3.4-2z" fill="#fff"/><path d="m206.1 149c-.3 0-.6-.1-.9-.3-1-.6-1.8-2.1-1.8-3.3v-6.4c0-.1.1-.2.1-.3l3.4-2c.1-.1.2-.1.3 0l5.5 3.3c.1.1.1.2.1.3s-.1.2-.1.3l-3.3 2-2.2 5.7c-.1.4-.4.6-.7.7-.1-.1-.2 0-.4 0zm-2.1-9.8v6.3c0 1 .7 2.2 1.5 2.7.3.2.6.3.8.2s.3-.2.3-.4l2.2-5.8c0-.1.1-.1.1-.2l3-1.8-4.9-2.9z" fill="#4d4d4d"/><path d="m206 132.1v.4l-29.2-16.8c-1.4-.8-3.7-.8-5.1 0l-29.2 16.8v-.4h-6.8v5.2c0 .5.4 1.1 1.1 1.5l34.9 20.1c1.4.8 3.7.8 5.1 0l34.9-20.1c.7-.4 1.1-.9 1.1-1.5v-5.2z" fill="#fff"/><path d="m174.3 159.8c-1 0-2-.2-2.7-.7l-34.9-20.1c-.8-.5-1.2-1.1-1.2-1.7v-5.2c0-.1 0-.2.1-.2.1-.1.1-.1.2-.1h6.8c.1 0 .3.1.3.2l28.7-16.6c1.5-.9 3.9-.9 5.4 0l28.7 16.6c0-.1.2-.2.3-.2h6.8c.2 0 .3.1.3.3v5.2c0 .7-.4 1.3-1.2 1.7l-34.9 20.1c-.8.5-1.7.7-2.7.7zm-38.2-27.4v4.9c0 .4.3.9.9 1.2l34.9 20.1c1.3.8 3.5.8 4.8 0l34.9-20.1c.6-.3.9-.8.9-1.2v-4.9h-6.2v.1c0 .1-.1.2-.1.3-.1.1-.2.1-.3 0l-29.2-16.8c-1.3-.8-3.5-.8-4.8 0l-29.2 16.8c-.1.1-.2.1-.3 0s-.1-.2-.1-.3v-.1z" fill="#4d4d4d"/><path d="m211.7 133.6-3.8 2.2-31.1 17.9c-1.4.8-3.7.8-5.1 0l-31.1-17.9-3.8-2.2c-1.4-.8-1.4-2.1 0-3l34.9-20.1c1.4-.8 3.7-.8 5.1 0l34.9 20.1c1.4.8 1.4 2.1 0 3z" fill="#ccc"/><path d="m174.3 154.6c-1 0-2-.2-2.7-.7l-34.9-20.1c-.8-.4-1.2-1.1-1.2-1.7 0-.7.4-1.3 1.2-1.8l34.9-20.1c1.5-.9 3.9-.9 5.4 0l34.9 20.1c.8.5 1.2 1.1 1.2 1.8s-.4 1.3-1.2 1.7l-3.8 2.2-31.1 17.9c-.8.5-1.7.7-2.7.7zm0-44.5c-.9 0-1.8.2-2.4.6l-34.9 20.1c-.6.4-.9.8-.9 1.3 0 .4.3.9.9 1.2l3.8 2.2 31.1 17.9c1.3.8 3.5.8 4.8 0l34.9-20.1c.6-.3.9-.8.9-1.2 0-.5-.3-.9-.9-1.3l-34.9-20.1c-.7-.4-1.6-.6-2.4-.6z" fill="#4d4d4d"/><path d="m207.9 135.7-31.1 17.9c-1.4.8-3.7.8-5.1 0l-31.1-17.9 32-18.5c.4-.2 1-.4 1.7-.4.6 0 1.2.1 1.6.4z" fill="#e6e6e6"/><path d="m174.3 154.6c-1 0-2-.2-2.7-.7l-31.1-17.9c-.1-.1-.1-.2-.1-.3s.1-.2.1-.3l32-18.5c.9-.5 2.6-.5 3.6 0l32 18.5c.1.1.1.2.1.3s-.1.2-.1.3l-31.1 17.9c-.8.5-1.7.7-2.7.7zm-33.1-18.9 30.6 17.7c1.3.8 3.5.8 4.8 0l30.6-17.7-31.6-18.2c-.8-.4-2.2-.4-3 0z" fill="#4d4d4d"/><path d="m185.7 125-2.4-1.4v-67.3l2.4 1.4z" fill="#fff"/><path d="m185.7 125.3c-.1 0-.1 0-.1 0l-2.4-1.4c-.1-.1-.2-.2-.2-.3v-67.3c0-.1.1-.2.1-.3.1-.1.2-.1.3 0l2.4 1.4c.1.1.1.2.1.3v67.3c0 .1-.1.2-.1.3 0 0 0 0-.1 0zm-2.1-1.9 1.8 1v-66.6l-1.8-1z" fill="#4d4d4d"/><path d="m185.7 125 2.4-1.4v-67.3l-2.4 1.4z" fill="#fff"/><path d="m185.7 125.3c-.1 0-.1 0-.2 0-.1-.1-.1-.2-.1-.3v-67.3c0-.1.1-.2.1-.3l2.5-1.4c.1-.1.2-.1.3 0s.1.2.1.3v67.3c0 .1-.1.2-.1.3l-2.4 1.4c-.1 0-.1 0-.2 0zm.3-67.5v66.6l1.8-1v-66.6z" fill="#4d4d4d"/><path d="m193.2 88.7v.4l-15-9.1c-1.4-.8-3.7-.8-5.1 0l-29.2 16.8v-.4h-6.8v5.2c0 .5.4 1.1 1.1 1.5l20.7 12.4c1.4.8 3.7.8 5.1 0l34.9-20.1c.7-.4 1.1-.9 1.1-1.5v-5.2z" fill="#fff"/><path d="m161.5 116.4c-1 0-2-.2-2.7-.6l-20.8-12.4c-.8-.4-1.2-1.1-1.2-1.7v-5.2c0-.2.1-.3.3-.3h6.8c.1 0 .3.1.3.2l28.7-16.6c1.5-.9 3.9-.9 5.4 0l14.6 8.8c0-.1.2-.2.3-.2h6.8c.2 0 .3.1.3.3v5.2c0 .7-.4 1.3-1.2 1.7l-34.9 20.1c-.8.5-1.7.7-2.7.7zm-24.1-19.6v4.9c0 .5.3.9.9 1.2l20.7 12.4c1.3.8 3.5.8 4.8 0l34.9-20.1c.6-.3.9-.8.9-1.2v-5h-6.2v.1c0 .1-.1.2-.2.3s-.2 0-.3 0l-15-9.1c-1.3-.8-3.5-.8-4.8 0l-29.1 16.8c-.1.1-.2.1-.3 0s-.1-.2-.1-.3v-.1h-6.2z" fill="#4d4d4d"/><path d="m198.9 90.2-3.8 2.2-31.1 17.9c-1.4.8-3.7.8-5.1 0l-16.9-10.2-3.8-2.2c-1.4-.8-1.4-2.1 0-3l34.9-20.1c1.4-.8 3.7-.8 5.1 0l20.7 12.4c1.4.8 1.4 2.2 0 3z" fill="#ccc"/><path d="m161.5 111.2c-1 0-2-.2-2.7-.7l-16.9-10.2-3.8-2.2c-.8-.4-1.2-1.1-1.2-1.7 0-.7.4-1.3 1.2-1.8l34.9-20.1c1.5-.9 3.9-.9 5.4 0l20.7 12.4c.8.5 1.2 1.1 1.2 1.8s-.4 1.3-1.2 1.7l-34.9 20.1c-.8.5-1.7.7-2.7.7zm14.1-36.7c-.9 0-1.8.2-2.4.6l-34.9 20.1c-.6.4-.9.8-.9 1.3 0 .4.3.9.9 1.2l3.8 2.2 16.9 10.2c1.3.8 3.5.8 4.8 0l34.9-20.1c.6-.3.9-.8.9-1.2 0-.5-.3-.9-.9-1.3l-20.7-12.4c-.6-.4-1.5-.6-2.4-.6z" fill="#4d4d4d"/><path d="m195.1 92.4-31.1 17.9c-1.4.8-3.7.8-5.1 0l-16.9-10.2 32-18.5c.4-.2 1-.4 1.7-.4.6 0 1.2.1 1.6.4z" fill="#e6e6e6"/><path d="m161.5 111.2c-1 0-2-.2-2.7-.7l-16.9-10.2c-.1-.1-.1-.2-.1-.3s.1-.2.1-.3l32-18.5c.9-.5 2.6-.5 3.6 0l17.9 10.7c.1.1.1.2.1.3s-.1.2-.1.3l-31.1 17.9c-.9.6-1.8.8-2.8.8zm-18.9-11.1 16.5 9.9c1.3.8 3.5.8 4.8 0l30.6-17.7-17.4-10.5c-.8-.4-2.2-.4-3 0z" fill="#4d4d4d"/><path d="m193.2 55v.4l-15-9.1c-1.4-.8-3.7-.8-5.1 0l-29.2 16.8v-.4h-6.8v5.3c0 .5.4 1.1 1.1 1.5l20.7 12.4c1.4.8 3.7.8 5.1 0l34.9-20.1c.7-.4 1.1-.9 1.1-1.5v-5.3z" fill="#fff"/><path d="m161.5 82.7c-1 0-2-.2-2.7-.6l-20.8-12.4c-.8-.5-1.2-1.1-1.2-1.7v-5.2c0-.2.1-.3.3-.3h6.8c.1 0 .3.1.3.2l28.7-16.6c1.5-.9 3.9-.9 5.4 0l14.6 8.8c0-.1.2-.2.3-.2h6.8c.2 0 .3.1.3.3v5.2c0 .7-.4 1.3-1.2 1.7l-34.9 20.1c-.8.5-1.7.7-2.7.7zm-24.1-19.6v4.9c0 .4.3.9.9 1.2l20.7 12.4c1.3.8 3.5.8 4.8 0l34.9-20.1c.6-.3.9-.8.9-1.2v-4.9h-6.2v.1c0 .1-.1.2-.2.3s-.2 0-.3 0l-15-9.1c-1.3-.8-3.5-.8-4.8 0l-29.1 16.7c-.1.1-.2.1-.3 0s-.1-.2-.1-.3v-.1h-6.2z" fill="#4d4d4d"/><path d="m198.9 56.5-3.8 2.2-31.1 17.9c-1.4.8-3.7.8-5.1 0l-16.9-10.2-3.8-2.2c-1.4-.8-1.4-2.1 0-3l35.6-19.6c1.4-.8 3.7-.8 5.1 0l20 11.8c1.4.9 1.4 2.3 0 3.1z" fill="#ccc"/><path d="m161.5 77.5c-1 0-2-.2-2.7-.6l-16.9-10.2-3.8-2.2c-.8-.4-1.2-1.1-1.2-1.7 0-.7.4-1.3 1.2-1.8l35.6-19.6c1.5-.9 3.9-.9 5.4 0l20 11.8c.8.5 1.2 1.1 1.2 1.8s-.4 1.3-1.2 1.7l-34.9 20.1c-.8.5-1.7.7-2.7.7zm14.9-36.1c-.9 0-1.8.2-2.4.6l-35.6 19.6c-.6.4-.9.8-.9 1.3 0 .4.3.9.9 1.2l3.8 2.2 16.9 10.2c1.3.8 3.5.8 4.8 0l34.9-20.1c.6-.3.9-.8.9-1.2 0-.5-.3-.9-.9-1.3l-20-11.8c-.7-.5-1.5-.7-2.4-.7z" fill="#4d4d4d"/><path d="m195.1 58.7-31.1 17.9c-1.4.8-3.7.8-5.1 0l-16.9-10.2 32-18.5c.4-.2 1-.4 1.7-.4.6 0 1.2.1 1.6.4z" fill="#e6e6e6"/><path d="m161.5 77.5c-1 0-2-.2-2.7-.6l-16.9-10.2c-.1-.1-.1-.2-.1-.3s.1-.2.1-.3l32-18.5c.9-.5 2.6-.5 3.6 0l17.9 10.7c.1.1.1.2.1.3s-.1.2-.1.3l-31.1 17.9c-.9.5-1.8.7-2.8.7zm-18.9-11.1 16.5 9.9c1.3.8 3.5.8 4.8 0l30.6-17.7-17.4-10.5c-.8-.4-2.2-.4-3 0z" fill="#4d4d4d"/><path d="m153.7 143.3-2.4-1.4v-69.7l2.4 1.3z" fill="#fff"/><path d="m153.7 143.6c-.1 0-.1 0-.2 0l-2.4-1.4c-.1-.1-.1-.2-.1-.3v-69.7c0-.1.1-.2.1-.3.1-.1.2-.1.3 0l2.4 1.4c.1.1.1.2.1.3v69.8c0 .1-.1.2-.1.3 0-.1 0-.1-.1-.1zm-2.1-1.9 1.8 1v-69l-1.8-1z" fill="#4d4d4d"/><path d="m153.7 143.3 2.4 1.4v-70l-2.4-1.2z" fill="#fff"/><path d="m156.1 145c-.1 0-.1 0-.1 0l-2.4-1.4c-.1-.1-.2-.2-.2-.3v-69.8c0-.1.1-.2.1-.3.1-.1.2-.1.3 0l2.4 1.2c.1.1.2.2.2.3v69.9c0 .1-.1.2-.1.3-.1.1-.1.1-.2.1zm-2.1-1.9 1.8 1v-69.2l-1.8-.9z" fill="#4d4d4d"/><path d="m177.5 94.7-8.9-5.1 6.4-3.7 8.9 5.1z" fill="#4d4d4d"/><path d="m177.5 95c-.1 0-.1 0-.1 0l-8.9-5.1c-.1-.1-.2-.2-.2-.3s.1-.2.1-.3l6.4-3.7c.1-.1.2-.1.3 0l8.9 5.1c.1.1.2.2.2.3s-.1.2-.1.3l-6.4 3.7c-.1 0-.1 0-.2 0zm-8.3-5.4 8.3 4.8 5.8-3.4-8.3-4.8z" fill="#4d4d4d"/><path d="m177.5 97.2-8.9-5.1v-2.5l8.9 5.1z" fill="#fff"/><path d="m177.5 97.5c-.1 0-.1 0-.1 0l-8.9-5.1c-.1-.1-.2-.2-.2-.3v-2.6c0-.1.1-.2.1-.3.1-.1.2-.1.3 0l8.9 5.1c.1.1.2.2.2.3v2.6c0 .1-.1.2-.1.3-.1 0-.1 0-.2 0zm-8.6-5.6 8.3 4.8v-1.9l-8.3-4.8z" fill="#4d4d4d"/><path d="m177.5 97.2 6.4-3.7v-2.5l-6.4 3.7z" fill="#fff"/><path d="m177.5 97.5c-.1 0-.1 0-.2 0-.1-.1-.1-.2-.1-.3v-2.6c0-.1.1-.2.1-.3l6.4-3.7c.1-.1.2-.1.3 0s.1.2.1.3v2.6c0 .1-.1.2-.1.3l-6.4 3.7s0 0-.1 0zm.3-2.6v1.9l5.8-3.4v-1.9z" fill="#4d4d4d"/><path d="m172 40.5 1.7-8.4 3.7 2.1v5.6.3s5.9 6.3 5.9 9.4l-.7 7.1c-.1.8-3.9 3.8-4.8 3.3l-3-6.2c-1-.6-1.8-1.8-1.8-2.7l-.8-9.7c0-.2 0-.3 0-.5z" fill="#fff"/><path d="m178 60.2c-.2 0-.3 0-.4-.1-.1 0-.1-.1-.1-.1l-2.9-6.1c-1-.6-1.8-1.9-1.8-3l-.8-9.7c0-.1 0-.3 0-.4l-.1-.1c-.1-.1-.2-.2-.1-.3l1.7-8.4c0-.1.1-.2.2-.2s.2 0 .3 0l3.7 2.1c.1.1.1.2.1.3v5.6.2c.8.8 5.9 6.5 5.9 9.5l-.7 7.1c-.1.8-2.2 2.5-3.6 3.2-.6.2-1 .4-1.4.4zm0-.6c.1 0 .5 0 1-.3 1.5-.8 3.2-2.3 3.3-2.7l.7-7.1c0-2.9-5.8-9.1-5.8-9.1s-.1-.2-.1-.2v-.1-.1-5.4l-3.2-1.8-1.6 7.8h.1c.1.1.2.2.1.3v.5l.8 9.7c0 .9.7 2 1.6 2.5.1 0 .1.1.1.1z" fill="#4d4d4d"/><path d="m181.8 39.6c-1.2-2.8-.5-4.2-2-6.6.3-.1.6-.3.7-.3-.1-.4-.1-2-.2-2.4l-7.6-4.4-2.3 1.3-1 .6c1.6 1.9 2 4.5 2.1 5.6 0 0-3.2 9.5-3.2 10.5l.8 9.7c0 1 .8 2.2 1.8 2.7l6 3.5c.9.5 1.7.3 1.8-.6l.7-7.1c0-3.1-4.2-10.8-4.2-10.8 0-.1 0-.1 0-.2l.1-5.7s.8-.5 1.8-1c1 1.1 1.6 3.1 2.7 5.1.6.8.7 1 .8 1 .1.1.2.1.2-.1.3-.1.8-.4.9-.5.2.2.2 0 .1-.3z" fill="#fff"/><path d="m177.8 60.4c-.3 0-.7-.1-1-.3l-6-3.5c-1.1-.6-1.9-1.9-1.9-3l-.8-9.7c0-1.1 2.8-9.4 3.2-10.6-.1-1.3-.6-3.6-2-5.4-.1-.1-.1-.2-.1-.2 0-.1.1-.2.1-.2l1-.6 2.3-1.3c.1-.1.2-.1.3 0l7.6 4.4c.1 0 .1.1.1.2 0 .2.1.7.1 1.3 0 .5.1.9.1 1.1s-.1.3-.2.3-.2.1-.4.1c.7 1.2.9 2.2 1.1 3.3.2.9.3 1.9.8 3.1.1.4.1.6-.1.8-.1 0-.2.1-.3.1-.1.1-.3.2-.7.4 0 .1-.1.2-.2.2s-.3.1-.5-.1c0 0 0 0-.1-.1-.2-.1-.3-.4-.9-1.1-.4-.8-.7-1.5-1.1-2.2-.5-1.1-.9-2.1-1.5-2.7-.6.4-1.2.7-1.4.8l-.1 5.5v.1c.5.9 4.2 7.9 4.2 10.9l-.7 7.1c0 .5-.3.8-.6 1 .1.3-.1.3-.3.3zm-8-32.6c1.4 1.9 1.8 4.2 1.9 5.5v.1c-1.3 3.8-3.2 9.7-3.2 10.4l.8 9.7c0 .9.7 2 1.6 2.5l6 3.5c.4.2.8.3 1 .2s.3-.3.3-.5l.7-7.1c0-3-4.2-10.6-4.2-10.7 0 0 0-.1 0-.2v-.2l.1-5.7c0-.1.1-.2.1-.3 0 0 .8-.5 1.8-1 .1-.1.3 0 .4.1.7.7 1.2 1.8 1.7 3 .3.7.6 1.4 1 2.1.3.4.5.7.6.8.6-.3.8-.4.8-.4-.5-1.3-.7-2.3-.9-3.2-.2-1.1-.3-2.1-1.1-3.4 0-.1-.1-.2 0-.2s.1-.2.2-.2c.2-.1.4-.2.5-.2 0-.3 0-.6-.1-.9 0-.4 0-.8-.1-1.1l-7.4-4.3z" fill="#4d4d4d"/><path d="m181.5 32.4-1.5-1.2c-.2-.1-.4-.1-.6 0-.5.3-.8.9-.8 1.4 0 .2.1.4.2.5.1 0 .1.1.2.1l1.6.7c.1.1.3.1.5 0 .4-.2.7-.7.7-1.1-.1-.2-.2-.4-.3-.4z" fill="#fff"/><path d="m180.8 34.3c-.1 0-.3 0-.4-.1l-1.5-.6c-.1 0-.2-.1-.3-.1-.1-.1-.3-.3-.3-.7 0-.6.4-1.4 1-1.7.3-.2.7-.2.9 0h.1l1.5 1.1h.1c.2.1.3.4.3.6 0 .5-.4 1.1-.8 1.4-.4 0-.5.1-.6.1zm-.2-.7c.1 0 .1 0 .2.1h.2c.3-.2.5-.6.5-.9 0-.1 0-.1 0-.2l-1.4-1.1s0 0-.1 0-.2 0-.3 0c-.4.2-.7.7-.7 1.2 0 .1 0 .2.1.3h.1z" fill="#4d4d4d"/><path d="m176.6 57.3c.1.1.2 0 .2-.1l.5-4.6c.2-1.5-.1-2.9-.8-4.2-.8-1.6-2.1-3.5-3.1-4.8-.3-.3-.6-.5-.8-.7-.5-.3-1-.4-1.4-.3h-.1c-.1.1-.2.4-.3.7-.3.8-.3 1.7-.2 2.6l.7 7.8v.1c0 .1.1.2.2.3z" fill="#e6e6e6"/><path d="m160 44.7v22.3.2c-.1.7-.6 1.4-1.5 1.9-2 1.1-5.2 1.1-7.2 0-.9-.5-1.4-1.2-1.5-1.9v-22.5z" fill="#fff"/><path d="m154.9 70.1c-1.4 0-2.7-.3-3.7-.9-.9-.5-1.5-1.3-1.6-2v-.1-22.4c0-.2.1-.3.3-.3h10.1c.2 0 .3.1.3.3v22.3.2c-.1.8-.6 1.6-1.6 2.1-1.1.5-2.4.8-3.8.8zm-4.7-3.1c.1.7.5 1.3 1.3 1.8 1.9 1.1 5 1.1 6.9 0 .8-.5 1.3-1.1 1.3-1.7 0-.1 0-.1 0-.1v-22h-9.6v22z" fill="#4d4d4d"/><path d="m158.5 46.6c-2 1.1-5.2 1.1-7.2 0s-2-3 0-4.1 5.2-1.1 7.2 0 2 3 0 4.1z" fill="#fff"/><path d="m154.9 47.8c-1.4 0-2.7-.3-3.7-.9-1.1-.6-1.6-1.4-1.6-2.3s.6-1.7 1.6-2.3c2.1-1.2 5.4-1.2 7.5 0 1.1.6 1.6 1.4 1.6 2.3s-.6 1.7-1.6 2.3c-1.1.6-2.4.9-3.8.9zm0-5.9c-1.2 0-2.5.3-3.4.8s-1.3 1.1-1.3 1.8.5 1.3 1.3 1.8c1.9 1.1 5 1.1 6.9 0 .9-.5 1.3-1.1 1.3-1.8s-.5-1.3-1.3-1.8c-1-.5-2.2-.8-3.5-.8z" fill="#4d4d4d"/><path d="m160 39.1v6.9.2c-.1.7-.6 1.4-1.5 1.9-2 1.1-5.2 1.1-7.2 0-.9-.5-1.4-1.2-1.5-1.9v-7.1z" fill="#fff"/><path d="m154.9 49.3c-1.4 0-2.7-.3-3.7-.9-.9-.5-1.5-1.3-1.6-2v-.1-7.1c0-.2.1-.3.3-.3h10.1c.2 0 .3.1.3.3v6.8.2c-.1.8-.6 1.6-1.6 2.1-1.1.7-2.4 1-3.8 1zm-4.7-3.2s0 .1 0 0c.1.7.5 1.3 1.3 1.8 1.9 1.1 5 1.1 6.9 0 .8-.5 1.3-1.1 1.3-1.7 0-.1 0-.1 0-.1v-6.6h-9.6v6.6z" fill="#4d4d4d"/><path d="m158.5 41.1c-2 1.1-5.2 1.1-7.2 0s-2-3 0-4.1 5.2-1.1 7.2 0 2 3 0 4.1z" fill="#fff"/><path d="m154.9 42.3c-1.4 0-2.7-.3-3.7-.9-1.1-.6-1.6-1.4-1.6-2.3s.6-1.7 1.6-2.3c2.1-1.2 5.4-1.2 7.5 0 1.1.6 1.6 1.4 1.6 2.3s-.6 1.7-1.6 2.3c-1.1.6-2.4.9-3.8.9zm0-5.9c-1.2 0-2.5.3-3.4.8s-1.3 1.1-1.3 1.8.5 1.3 1.3 1.8c1.9 1.1 5 1.1 6.9 0 .9-.5 1.3-1.1 1.3-1.8s-.5-1.3-1.3-1.8c-1-.5-2.2-.8-3.5-.8z" fill="#4d4d4d"/><path d="m154.8 53c.4.1.8.1 1.2.1 2.2 0 3.9-1 3.9-2.2v10.3c0 1.2-1.8 2.2-3.9 2.2-.4 0-.8 0-1.2-.1z" fill="#e6e6e6"/><path d="m156.1 63.8c-.4 0-.8 0-1.3-.1-.1 0-.2-.2-.2-.3v-10.4c0-.1 0-.2.1-.2.1-.1.2-.1.2-.1 2.4.4 4.8-.6 4.8-1.8 0-.2.1-.3.3-.3s.3.1.3.3v10.3c0 1.4-1.9 2.6-4.2 2.6zm-1-.7c2.3.3 4.6-.7 4.6-1.9v-9c-.9.9-2.7 1.4-4.6 1.1z" fill="#4d4d4d"/><path d="m121.2 113.8 2.6 1.5-1-53.4-2.7-1.6z" fill="#e6e6e6"/><path d="m100.3 171.2-41.8-24.1 16.8-9.7 41.9 24.1z" fill="#ccc"/><path d="m99.2 167.3-34.1-19.6 11.3-6.5 34.1 19.6z" fill="#fff"/><path d="m99.2 167.6c-.1 0-.1 0-.2 0l-34-19.7c-.1-.1-.1-.2-.1-.3s.1-.2.1-.3l11.3-6.5c.1-.1.2-.1.3 0l34.1 19.7c.1.1.1.2.1.3s-.1.2-.1.3l-11.3 6.5c-.1 0-.1 0-.2 0zm-33.5-19.9 33.5 19.3 10.7-6.2-33.5-19.3z" fill="#4d4d4d"/><path d="m84.2 145.5 18.1 10.5-11.3 6.6-18.1-10.5.5-.7c1.5-2 3.2-3.7 5-4.7h.1c1.6-.9 3.1-1.3 4.5-1.2z" fill="#fff"/><path d="m91 162.9c-.1 0-.1 0-.2 0l-18.1-10.5c-.1 0-.1-.1-.1-.2s0-.2.1-.2l.5-.7c1.5-2.1 3.3-3.7 5.1-4.8 1.7-1 3.3-1.4 4.8-1.3l1.2.1h.1l18.1 10.5c.1.1.1.2.1.3s-.1.2-.1.3l-11.4 6.6c0-.1-.1-.1-.1-.1zm-17.7-10.9 17.7 10.2 10.8-6.2-17.6-10.2-1.1-.1c-1.3-.1-2.8.3-4.3 1.2-1.8 1.1-3.5 2.7-5 4.7z" fill="#4d4d4d"/><path d="m91.5 149.7-7.7 4.4-3.7 2.1.5-.7c1.5-2 3.2-3.7 5-4.7h.1c1.6-.9 3.1-1.3 4.5-1.2z" fill="#ccc"/><path d="m80.1 156.6c-.1 0-.2 0-.2-.1-.1-.1-.1-.3 0-.4l.5-.7c1.5-2.1 3.3-3.7 5.1-4.8 1.7-1 3.3-1.4 4.7-1.3l1.2.1c.1 0 .2.1.3.2 0 .1 0 .3-.1.3l-11.4 6.6c0 .1 0 .1-.1.1zm9.7-6.7c-1.2 0-2.5.4-3.9 1.2-1.7 1-3.3 2.4-4.7 4.2l9.3-5.4h-.3c-.1 0-.3 0-.4 0z" fill="#4d4d4d"/><path d="m84.1 158.6.5-.7c1.5-2 3.2-3.7 5-4.7h.1c1.6-.9 3.1-1.3 4.5-1.2l1.2.1" fill="#fff"/><path d="m84.1 158.9c-.1 0-.1 0-.2-.1s-.2-.3-.1-.4l.5-.7c1.5-2.1 3.3-3.7 5.1-4.8 1.7-1 3.3-1.4 4.8-1.3l1.2.1c.2 0 .3.2.3.3 0 .2-.2.3-.3.3l-1.2-.1c-1.3-.1-2.8.3-4.3 1.2-1.8 1.1-3.5 2.7-5 4.7l-.5.7c-.1.1-.2.1-.3.1z" fill="#4d4d4d"/><path d="m102.3 156-11.3 6.6.5-.7c1.5-2 3.2-3.7 5-4.7h.1c2.8-1.8 3.5-1.6 4.5-1.2z" fill="#ccc"/><path d="m91 162.9c-.1 0-.2 0-.2-.1-.1-.1-.1-.3 0-.4l.5-.7c1.5-2.1 3.3-3.7 5.1-4.8 2.9-1.8 3.7-1.7 4.8-1.3l1.2.1c.1 0 .2.1.3.2 0 .1 0 .3-.1.3l-11.4 6.6c-.1.1-.2.1-.2.1zm9-7c-.6 0-1.5.3-3.2 1.4-1.7 1-3.3 2.4-4.7 4.2l9.3-5.4h-.3-.1c-.3 0-.6-.2-1-.2z" fill="#4d4d4d"/><path d="m136.5 16.4c.2-1-1.7-2-2.4-1.2v.1l-48.2 136.7c-.1.2-.1.4.1.6.3.5 1.1.9 1.6.8.3 0 .5-.1.6-.3l48.3-136.7c-.1 0-.1 0 0 0z" fill="#fff"/><path d="m87.5 153.8c-.7 0-1.5-.4-1.8-1-.2-.3-.3-.7-.1-.9l48.1-136.6s0-.1 0-.2c0 0 0-.1.1-.1.4-.5 1.3-.5 1.9-.1.6.3 1.2.9 1 1.6 0 0 0 .1-.1.1l-48.1 136.7c-.2.3-.5.5-1 .5.1 0 .1 0 0 0zm46.8-138.5s.1 0 0 0v.1l-48.1 136.7c-.1.1 0 .2.1.4.3.4.9.7 1.4.7.2 0 .3-.1.3-.1l48.2-136.7s0-.1.1-.1c0-.3-.4-.7-.7-.8-.5-.3-1-.4-1.3-.2z" fill="#4d4d4d"/><path d="m180.6 129.3c-.3-2.7-2.6-4.9-5.4-4.9-2.9 0-5.2 2.2-5.4 5.1v.3 14.1c0 1.7 2.5 3.1 5.5 3.1s5.5-1.4 5.5-3.1v-14.1c-.1-.1-.1-.3-.2-.5z" fill="#fff"/><path d="m175.2 147.3c-3.2 0-5.8-1.5-5.8-3.4v-14.1c0-.1 0-.3 0-.4.2-3 2.7-5.3 5.7-5.3 2.9 0 5.4 2.2 5.7 5.1.1.2.1.4.1.6v14.1c.1 1.9-2.4 3.4-5.7 3.4zm0-22.6c-2.7 0-4.9 2.1-5.1 4.8v.3 14.1c0 1.5 2.4 2.8 5.2 2.8s5.2-1.3 5.2-2.8v-14.1c0-.1 0-.3-.1-.4 0 0 0 0 0-.1-.3-2.6-2.5-4.6-5.2-4.6z" fill="#4d4d4d"/><path d="m175.2 147.3c-3.2 0-5.8-1.5-5.8-3.4v-14.1c0-.1 0-.3 0-.4.2-3 2.7-5.3 5.7-5.3 2.9 0 5.4 2.2 5.7 5.1.1.2.1.4.1.6v14.1c.1 1.9-2.4 3.4-5.7 3.4zm0-22.6c-2.7 0-4.9 2.1-5.1 4.8v.3 14.1c0 1.5 2.4 2.8 5.2 2.8s5.2-1.3 5.2-2.8v-14.1c0-.1 0-.3-.1-.4 0 0 0 0 0-.1-.3-2.6-2.5-4.6-5.2-4.6z" fill="#4d4d4d"/><path d="m173.4 122.5v3.2c0 .5.8 1 1.7 1s1.7-.4 1.7-1v-3.2z" fill="#fff"/><path d="m175.1 126.9c-1.1 0-2-.5-2-1.3v-3.2c0-.2.1-.3.3-.3h3.4c.2 0 .3.1.3.3v3.2c0 .8-.8 1.3-2 1.3zm-1.4-4.1v2.9c0 .3.6.7 1.4.7s1.4-.3 1.4-.7v-2.9z" fill="#4d4d4d"/><ellipse cx="175.1" cy="122.5" fill="#fff" rx="1.7" ry="1"/><path d="m175.1 123.7c-1.1 0-2-.5-2-1.3s.9-1.3 2-1.3 2 .5 2 1.3-.8 1.3-2 1.3zm0-1.9c-.8 0-1.4.3-1.4.7s.6.7 1.4.7 1.4-.3 1.4-.7-.6-.7-1.4-.7z" fill="#4d4d4d"/><path d="m174.9 134.6c-.4.1-.8.1-1.2.1-2.2 0-3.9-1-3.9-2.2v8.3c0 1.2 1.8 2.2 3.9 2.2.4 0 .8 0 1.2-.1z" fill="#e6e6e6"/><path d="m173.7 143.3c-2.4 0-4.2-1.1-4.2-2.5v-8.3c0-.2.1-.3.3-.3s.3.1.3.3c0 1 1.7 1.9 3.6 1.9.4 0 .8 0 1.2-.1.1 0 .2 0 .2.1.1.1.1.1.1.2v8.3c0 .1-.1.3-.2.3-.5.1-.9.1-1.3.1zm-3.6-9.5v7c0 1.2 2.2 2.2 4.6 1.9v-7.7c-.3 0-.6.1-.9.1-1.7-.1-3-.6-3.7-1.3z" fill="#4d4d4d"/><path d="m86.1 49.6c-.2 0-.3-.1-.3-.3v-4.8c0-.2.1-.3.3-.3s.3.1.3.3v4.8c0 .2-.1.3-.3.3z" fill="#4d4d4d"/><path d="m86.1 60.8c-.2 0-.3-.1-.3-.3v-4.8c0-.2.1-.3.3-.3s.3.1.3.3v4.8c0 .1-.1.3-.3.3z" fill="#4d4d4d"/><path d="m78.2 52.5h4.8" fill="#fff"/><path d="m83 52.8h-4.8c-.2 0-.3-.1-.3-.3s.1-.3.3-.3h4.8c.2 0 .3.1.3.3s-.2.3-.3.3z" fill="#4d4d4d"/><path d="m89.3 52.5h4.8" fill="#fff"/><path d="m94.1 52.8h-4.8c-.2 0-.3-.1-.3-.3s.1-.3.3-.3h4.8c.2 0 .3.1.3.3s-.1.3-.3.3z" fill="#4d4d4d"/><path d="m58.5 113.1c-.2 0-.3-.1-.3-.3v-2.5c0-.2.1-.3.3-.3s.3.1.3.3v2.5c0 .1-.2.3-.3.3z" fill="#4d4d4d"/><path d="m58.5 120.1c-.2 0-.3-.1-.3-.3v-2.5c0-.2.1-.3.3-.3s.3.1.3.3v2.5c0 .2-.2.3-.3.3z" fill="#4d4d4d"/><path d="m53.7 115h2.5" fill="#fff"/><path d="m56.2 115.3h-2.5c-.2 0-.3-.1-.3-.3s.1-.3.3-.3h2.5c.2 0 .3.1.3.3s-.2.3-.3.3z" fill="#4d4d4d"/><path d="m60.8 115h2.5" fill="#fff"/><path d="m63.3 115.3h-2.5c-.2 0-.3-.1-.3-.3s.1-.3.3-.3h2.5c.2 0 .3.1.3.3s-.2.3-.3.3z" fill="#4d4d4d"/><path d="m212.2 74.8c-.2 0-.3-.1-.3-.3v-3.8c0-.2.1-.3.3-.3s.3.1.3.3v3.8c0 .2-.1.3-.3.3z" fill="#4d4d4d"/><path d="m212.2 82.7c-.2 0-.3-.1-.3-.3v-3.8c0-.2.1-.3.3-.3s.3.1.3.3v3.8c0 .2-.1.3-.3.3z" fill="#4d4d4d"/><path d="m206.3 76.6h3.9" fill="#fff"/><path d="m210.2 76.9h-3.8c-.2 0-.3-.1-.3-.3s.1-.3.3-.3h3.8c.2 0 .3.1.3.3s-.2.3-.3.3z" fill="#4d4d4d"/><path d="m214.2 76.6h3.8" fill="#fff"/><path d="m218 76.9h-3.8c-.2 0-.3-.1-.3-.3s.1-.3.3-.3h3.8c.2 0 .3.1.3.3s-.1.3-.3.3z" fill="#4d4d4d"/></svg>