<svg xmlns="http://www.w3.org/2000/svg" version="1.1" xmlns:xlink="http://www.w3.org/1999/xlink" xmlns:svgjs="http://svgjs.dev/svgjs" width="1500" height="234" viewBox="0 0 1500 234"><g transform="matrix(1,0,0,1,-0.9090909090911055,-0.6408823697653219)"><svg viewBox="0 0 396 62" data-background-color="#ffffff" preserveAspectRatio="xMidYMid meet" height="234" width="1500" xmlns="http://www.w3.org/2000/svg" xmlns:xlink="http://www.w3.org/1999/xlink"><g id="tight-bounds" transform="matrix(1,0,0,1,0.24000000000003752,0.16980643985235133)"><svg viewBox="0 0 395.5199999999999 61.660387120295304" height="61.660387120295304" width="395.5199999999999"><g><svg viewBox="0 0 395.5199999999999 61.660387120295304" height="61.660387120295304" width="395.5199999999999"><g><svg viewBox="0 0 395.5199999999999 61.660387120295304" height="61.660387120295304" width="395.5199999999999"><g id="textblocktransform"><svg viewBox="0 0 395.5199999999999 61.660387120295304" height="61.660387120295304" width="395.5199999999999" id="textblock"><g><rect width="207.64799999999997" height="3.815373407245378" y="55.070419533628936" x="187.87199999999996" fill="#000000" data-fill-palette-color="tertiary"></rect></g><g><svg viewBox="0 0 395.5199999999999 42.30793685356559" height="42.30793685356559" width="395.5199999999999"><g transform="matrix(1,0,0,1,0,0)"><svg width="395.5199999999999" viewBox="3.5 -38.85 368.17 39.300000000000004" height="42.30793685356559" data-palette-color="#000000"><path d="M7.95-26.4L7.95-26.4Q7.95-24.5 8.95-23.3 9.95-22.1 11.63-21.33 13.3-20.55 15.3-19.95 17.3-19.35 19.3-18.63 21.3-17.9 22.95-16.82 24.6-15.75 25.63-14.03 26.65-12.3 26.65-9.7L26.65-9.7Q26.65-6.2 24.88-3.95 23.1-1.7 20.15-0.63 17.2 0.45 13.7 0.45L13.7 0.45Q11.2 0.45 8.6-0.08 6-0.6 3.5-1.65L3.5-1.65 3.8-9.85 6.25-9.85 7.1-3.45 6.6-4.3Q8.35-3.5 10.25-3.1 12.15-2.7 13.95-2.7L13.95-2.7Q16.3-2.7 18.25-3.43 20.2-4.15 21.4-5.58 22.6-7 22.6-9.15L22.6-9.15Q22.6-11.15 21.58-12.38 20.55-13.6 18.9-14.4 17.25-15.2 15.25-15.8 13.25-16.4 11.25-17.07 9.25-17.75 7.6-18.8 5.95-19.85 4.93-21.53 3.9-23.2 3.9-25.8L3.9-25.8Q3.9-29 5.48-31.13 7.05-33.25 9.78-34.3 12.5-35.35 15.85-35.35L15.85-35.35Q18.2-35.35 20.75-34.85 23.3-34.35 25.75-33.3L25.75-33.3 25.35-25.45 22.85-25.45 22.1-31.45 22.7-30.85Q21.2-31.5 19.45-31.85 17.7-32.2 15.95-32.2L15.95-32.2Q13.9-32.2 12.05-31.63 10.2-31.05 9.08-29.78 7.95-28.5 7.95-26.4ZM42.35 0.45L42.35 0.45Q39.05 0.45 36.9-1.6 34.75-3.65 34.75-7.9L34.75-7.9 34.75-23.85 35.25-23.15 30.8-24.1 30.8-26.25 38.75-26.55 38.75-8.6Q38.75-5.6 40.15-4.15 41.55-2.7 43.9-2.7L43.9-2.7Q45.75-2.7 47.9-3.7 50.05-4.7 52.15-6.8L52.15-6.8 51.85-5.9 51.85-23.95 52.35-23.15 47.9-24.1 47.9-26.25 55.85-26.6 55.85-2.45 55.25-3.1 59.75-2.25 59.75-0.05 52.75 0.25 52.15-4.7 52.7-4.5Q50.25-1.95 47.52-0.75 44.8 0.45 42.35 0.45ZM70.8-26.55L70.8-2.55 70.34-3.1 74.7-2.15 74.7 0 62.9 0 62.9-2.15 67.25-3.1 66.8-2.55 66.8-23.65 67.2-23.2 62.9-24.1 62.9-26.25 70.8-26.55ZM68.5-31.95L68.5-31.95Q67.34-31.95 66.59-32.7 65.84-33.45 65.84-34.75L65.84-34.75Q65.84-36.1 66.62-36.83 67.4-37.55 68.55-37.55L68.55-37.55Q69.75-37.55 70.5-36.85 71.25-36.15 71.25-34.75L71.25-34.75Q71.25-33.4 70.45-32.68 69.65-31.95 68.5-31.95ZM82.84-20L82.84-20Q82.84-18.4 83.89-17.5 84.94-16.6 86.59-16.03 88.24-15.45 90.09-14.9 91.94-14.35 93.59-13.55 95.24-12.75 96.29-11.35 97.34-9.95 97.34-7.65L97.34-7.65Q97.34-5 95.89-3.2 94.44-1.4 91.97-0.48 89.49 0.45 86.44 0.45L86.44 0.45Q84.59 0.45 82.64 0.15 80.69-0.15 78.64-0.7L78.64-0.7 78.99-7.4 81.54-7.4 82.04-2.5 81.59-3.05Q82.74-2.75 84.09-2.55 85.44-2.35 86.59-2.35L86.59-2.35Q88.39-2.35 89.92-2.88 91.44-3.4 92.39-4.42 93.34-5.45 93.34-7L93.34-7Q93.34-8.65 92.32-9.6 91.29-10.55 89.64-11.15 87.99-11.75 86.17-12.28 84.34-12.8 82.69-13.63 81.04-14.45 79.99-15.8 78.94-17.15 78.94-19.5L78.94-19.5Q78.94-22.05 80.27-23.68 81.59-25.3 83.77-26.08 85.94-26.85 88.44-26.85L88.44-26.85Q90.14-26.85 92.19-26.5 94.24-26.15 96.39-25.45L96.39-25.45 96.14-19.8 93.59-19.8 92.84-23.95 93.44-23.25Q90.84-24 88.54-24L88.54-24Q86.09-24 84.47-22.98 82.84-21.95 82.84-20ZM106.74-20L106.74-20Q106.74-18.4 107.79-17.5 108.84-16.6 110.49-16.03 112.14-15.45 113.99-14.9 115.84-14.35 117.49-13.55 119.14-12.75 120.19-11.35 121.24-9.95 121.24-7.65L121.24-7.65Q121.24-5 119.79-3.2 118.34-1.4 115.87-0.48 113.39 0.45 110.34 0.45L110.34 0.45Q108.49 0.45 106.54 0.15 104.59-0.15 102.54-0.7L102.54-0.7 102.89-7.4 105.44-7.4 105.94-2.5 105.49-3.05Q106.64-2.75 107.99-2.55 109.34-2.35 110.49-2.35L110.49-2.35Q112.29-2.35 113.82-2.88 115.34-3.4 116.29-4.42 117.24-5.45 117.24-7L117.24-7Q117.24-8.65 116.22-9.6 115.19-10.55 113.54-11.15 111.89-11.75 110.07-12.28 108.24-12.8 106.59-13.63 104.94-14.45 103.89-15.8 102.84-17.15 102.84-19.5L102.84-19.5Q102.84-22.05 104.17-23.68 105.49-25.3 107.67-26.08 109.84-26.85 112.34-26.85L112.34-26.85Q114.04-26.85 116.09-26.5 118.14-26.15 120.29-25.45L120.29-25.45 120.04-19.8 117.49-19.8 116.74-23.95 117.34-23.25Q114.74-24 112.44-24L112.44-24Q109.99-24 108.37-22.98 106.74-21.95 106.74-20ZM137.49 0.45L137.49 0.45Q134.14 0.45 131.56-1.07 128.99-2.6 127.54-5.55 126.09-8.5 126.09-12.75L126.09-12.75Q126.09-17.1 127.59-20.25 129.09-23.4 131.84-25.13 134.59-26.85 138.29-26.85L138.29-26.85Q141.79-26.85 144.06-25.38 146.34-23.9 147.46-21.3 148.59-18.7 148.59-15.35L148.59-15.35Q148.59-14.8 148.54-14.25 148.49-13.7 148.39-12.9L148.39-12.9 129.14-12.9 129.14-15.75 144.89-15.75 144.44-15.45Q144.49-17.7 143.89-19.6 143.29-21.5 141.84-22.65 140.39-23.8 137.99-23.8L137.99-23.8Q135.44-23.8 133.69-22.45 131.94-21.1 131.09-18.75 130.24-16.4 130.24-13.3L130.24-13.3Q130.24-10 131.19-7.63 132.14-5.25 133.96-3.95 135.79-2.65 138.44-2.65L138.44-2.65Q140.29-2.65 142.49-3.38 144.69-4.1 147.04-5.6L147.04-5.6 148.49-3.35Q145.69-1.45 142.89-0.5 140.09 0.45 137.49 0.45ZM155.34-16.25L169.64-16.25 169.64-13.1 155.34-13.1 155.34-16.25ZM192.03 0.45L192.03 0.45Q187.73 0.45 184.31-1.5 180.88-3.45 178.91-7.38 176.93-11.3 176.93-17.1L176.93-17.1Q176.93-21.65 178.16-25.08 179.38-28.5 181.58-30.8 183.78-33.1 186.66-34.23 189.53-35.35 192.83-35.35L192.83-35.35Q196.03-35.35 198.83-34.27 201.63-33.2 203.73-31.03 205.83-28.85 207.01-25.6 208.18-22.35 208.18-18.05L208.18-18.05Q208.18-12.15 206.06-8.03 203.93-3.9 200.28-1.73 196.63 0.45 192.03 0.45ZM192.28-2.8L192.28-2.8Q195.38-2.8 198.01-4.38 200.63-5.95 202.21-9.25 203.78-12.55 203.78-17.8L203.78-17.8Q203.78-22.8 202.31-25.95 200.83-29.1 198.31-30.6 195.78-32.1 192.63-32.1L192.63-32.1Q189.58-32.1 187.01-30.58 184.43-29.05 182.88-25.78 181.33-22.5 181.33-17.25L181.33-17.25Q181.33-12.25 182.81-9.05 184.28-5.85 186.76-4.33 189.23-2.8 192.28-2.8ZM225.78 0L213.13 0 213.13-2.15 217.53-3.1 217.03-2.5 217.03-23.95 217.53-23.4 213.03-23.4 213.03-25.6 217.63-26.25 217.03-25.5 217.03-29.7Q217.03-34.4 219.46-36.63 221.88-38.85 225.83-38.85L225.83-38.85Q227.13-38.85 228.48-38.63 229.83-38.4 231.33-37.9L231.33-37.9 230.68-35.15Q229.53-35.5 228.48-35.7 227.43-35.9 226.43-35.9L226.43-35.9Q223.98-35.9 222.51-34.5 221.03-33.1 221.03-30.05L221.03-30.05 221.03-25.5 220.38-26.2 228.03-26.2 227.93-23.4 220.53-23.4 221.03-23.95 221.03-2.55 220.53-3.1 225.78-2.15 225.78 0ZM243.18 0L230.53 0 230.53-2.15 234.93-3.1 234.43-2.5 234.43-23.95 234.93-23.4 230.43-23.4 230.43-25.6 235.03-26.25 234.43-25.5 234.43-29.7Q234.43-34.4 236.85-36.63 239.28-38.85 243.23-38.85L243.23-38.85Q244.53-38.85 245.88-38.63 247.23-38.4 248.73-37.9L248.73-37.9 248.08-35.15Q246.93-35.5 245.88-35.7 244.83-35.9 243.83-35.9L243.83-35.9Q241.38-35.9 239.9-34.5 238.43-33.1 238.43-30.05L238.43-30.05 238.43-25.5 237.78-26.2 245.43-26.2 245.33-23.4 237.93-23.4 238.43-23.95 238.43-2.55 237.93-3.1 243.18-2.15 243.18 0ZM259.78 0.45L259.78 0.45Q256.43 0.45 253.85-1.07 251.28-2.6 249.83-5.55 248.38-8.5 248.38-12.75L248.38-12.75Q248.38-17.1 249.88-20.25 251.38-23.4 254.13-25.13 256.88-26.85 260.58-26.85L260.58-26.85Q264.08-26.85 266.35-25.38 268.63-23.9 269.75-21.3 270.88-18.7 270.88-15.35L270.88-15.35Q270.88-14.8 270.83-14.25 270.78-13.7 270.68-12.9L270.68-12.9 251.43-12.9 251.43-15.75 267.18-15.75 266.73-15.45Q266.78-17.7 266.18-19.6 265.58-21.5 264.13-22.65 262.68-23.8 260.28-23.8L260.28-23.8Q257.73-23.8 255.98-22.45 254.23-21.1 253.38-18.75 252.53-16.4 252.53-13.3L252.53-13.3Q252.53-10 253.48-7.63 254.43-5.25 256.25-3.95 258.08-2.65 260.73-2.65L260.73-2.65Q262.58-2.65 264.78-3.38 266.98-4.1 269.33-5.6L269.33-5.6 270.78-3.35Q267.98-1.45 265.18-0.5 262.38 0.45 259.78 0.45ZM287.97 0L275.22 0 275.22-2.15 279.62-3.1 279.12-2.35 279.12-23.9 279.67-23.15 275.22-24.1 275.22-26.25 282.22-26.6 282.77-21.7 282.22-21.9Q284.47-24.25 286.62-25.55 288.77-26.85 291.32-26.85L291.32-26.85Q292.92-26.85 294.67-26.35L294.67-26.35 294.37-19.05 291.87-19.05 291.27-24.3 291.72-23.4Q291.37-23.5 290.97-23.55 290.57-23.6 290.17-23.6L290.17-23.6Q288.17-23.6 286.3-22.4 284.42-21.2 282.72-19.3L282.72-19.3 283.12-20.5 283.12-2.35 282.52-3.1 287.97-2.15 287.97 0ZM306.17 0.45L306.17 0.45Q303.57 0.45 302.07-1.18 300.57-2.8 300.57-6.1L300.57-6.1 300.57-24.25 301.22-23.6 296.07-23.6 296.07-25.8 301.27-26.55 300.57-25.75 300.57-32.35 304.57-33 304.57-25.75 304.02-26.4 311.87-26.4 311.72-23.6 304.02-23.6 304.57-24.25 304.57-6.65Q304.57-4.55 305.4-3.6 306.22-2.65 307.72-2.65L307.72-2.65Q308.62-2.65 309.67-2.95 310.72-3.25 311.92-3.8L311.92-3.8 312.77-1.5Q309.22 0.45 306.17 0.45ZM327.32 0.45L327.32 0.45Q323.97 0.45 321.39-1.07 318.82-2.6 317.37-5.55 315.92-8.5 315.92-12.75L315.92-12.75Q315.92-17.1 317.42-20.25 318.92-23.4 321.67-25.13 324.42-26.85 328.12-26.85L328.12-26.85Q331.62-26.85 333.89-25.38 336.17-23.9 337.29-21.3 338.42-18.7 338.42-15.35L338.42-15.35Q338.42-14.8 338.37-14.25 338.32-13.7 338.22-12.9L338.22-12.9 318.97-12.9 318.97-15.75 334.72-15.75 334.27-15.45Q334.32-17.7 333.72-19.6 333.12-21.5 331.67-22.65 330.22-23.8 327.82-23.8L327.82-23.8Q325.27-23.8 323.52-22.45 321.77-21.1 320.92-18.75 320.07-16.4 320.07-13.3L320.07-13.3Q320.07-10 321.02-7.63 321.97-5.25 323.79-3.95 325.62-2.65 328.27-2.65L328.27-2.65Q330.12-2.65 332.32-3.38 334.52-4.1 336.87-5.6L336.87-5.6 338.32-3.35Q335.52-1.45 332.72-0.5 329.92 0.45 327.32 0.45ZM354.42 0L342.77 0 342.77-2.15 347.27-3.15 346.67-2.4 346.67-23.9 347.27-23.15 342.77-24.1 342.77-26.25 349.77-26.6 350.32-21.7 349.77-21.9Q352.27-24.45 354.99-25.65 357.72-26.85 360.17-26.85L360.17-26.85Q363.47-26.85 365.64-24.83 367.82-22.8 367.77-18.55L367.77-18.55 367.77-2.4 367.27-3.1 371.67-2.15 371.67 0 360.02 0 360.02-2.15 364.37-3.1 363.77-2.35 363.77-17.7Q363.77-20.8 362.37-22.25 360.97-23.7 358.62-23.7L358.62-23.7Q356.77-23.7 354.59-22.7 352.42-21.7 350.32-19.6L350.32-19.6 350.67-20.4 350.67-2.35 350.17-3.05 354.42-2.15 354.42 0Z" opacity="1" transform="matrix(1,0,0,1,0,0)" fill="#000000" class="wordmark-text-0" data-fill-palette-color="primary" id="text-0"></path></svg></g></svg></g><g transform="matrix(1,0,0,1,0,52.29582535420794)"><svg viewBox="0 0 187.87199999999996 9.364561766087363" height="9.364561766087363" width="187.87199999999996"><g transform="matrix(1,0,0,1,8,0)"><svg width="171.87199999999996" viewBox="2.15 -34.08 638.63 34.809999999999995" height="9.364561766087363" data-palette-color="#ff0000"><path d="M15.55 0.73L15.55 0.73Q8.93 0.73 5.54-2.74 2.15-6.2 2.15-12.65L2.15-12.65 2.15-19.15Q2.15-25.63 5.54-29.13 8.93-32.63 15.55-32.63L15.55-32.63Q22.18-32.63 25.56-29.13 28.95-25.63 28.95-19.15L28.95-19.15 28.95-12.65Q28.95-6.2 25.58-2.74 22.2 0.73 15.55 0.73ZM15.55-4.73L15.55-4.73Q18.93-4.73 20.6-6.73 22.28-8.72 22.28-12.35L22.28-12.35 22.28-19.45Q22.28-23.2 20.6-25.21 18.93-27.23 15.55-27.23L15.55-27.23Q12.2-27.23 10.53-25.21 8.85-23.2 8.85-19.45L8.85-19.45 8.85-12.35Q8.85-8.72 10.53-6.73 12.2-4.73 15.55-4.73ZM56.3 0L49.9 0 49.9-14.73Q49.9-16.28 49.48-17.4 49.07-18.53 48.12-19.15 47.17-19.78 45.52-19.78L45.52-19.78Q44.07-19.78 42.98-19.25 41.9-18.73 41.21-17.84 40.52-16.95 40.17-15.83L40.17-15.83 39.17-19.33 40.37-19.33Q40.77-20.95 41.71-22.25 42.65-23.55 44.26-24.31 45.87-25.08 48.3-25.08L48.3-25.08Q51.12-25.08 52.87-24.01 54.62-22.95 55.46-20.85 56.3-18.75 56.3-15.65L56.3-15.65 56.3 0ZM40.32 0L33.92 0 33.92-24.53 40.32-24.53 40.07-18.55 40.32-18.03 40.32 0ZM68.12 0L61.7 0 61.7-33.05 68.12-33.05 68.12 0ZM80.22 0L73.82 0 73.82-24.53 80.22-24.53 80.22 0ZM77.02-27.43L77.02-27.43Q75.19-27.43 74.33-28.29 73.47-29.15 73.47-30.68L73.47-30.68 73.47-30.8Q73.47-32.33 74.33-33.2 75.19-34.08 77.02-34.08L77.02-34.08Q78.82-34.08 79.69-33.2 80.57-32.33 80.57-30.8L80.57-30.8 80.57-30.68Q80.57-29.13 79.69-28.28 78.82-27.43 77.02-27.43ZM108.22 0L101.82 0 101.82-14.73Q101.82-16.28 101.4-17.4 100.99-18.53 100.04-19.15 99.09-19.78 97.44-19.78L97.44-19.78Q95.99-19.78 94.9-19.25 93.82-18.73 93.13-17.84 92.44-16.95 92.09-15.83L92.09-15.83 91.09-19.33 92.29-19.33Q92.69-20.95 93.63-22.25 94.57-23.55 96.18-24.31 97.79-25.08 100.22-25.08L100.22-25.08Q103.04-25.08 104.79-24.01 106.54-22.95 107.38-20.85 108.22-18.75 108.22-15.65L108.22-15.65 108.22 0ZM92.24 0L85.84 0 85.84-24.53 92.24-24.53 91.99-18.55 92.24-18.03 92.24 0ZM125.09 0.6L125.09 0.6Q118.79 0.6 115.71-2.3 112.64-5.2 112.64-10.7L112.64-10.7 112.64-13.9Q112.64-19.35 115.51-22.28 118.39-25.2 123.86-25.2L123.86-25.2Q127.56-25.2 130.04-23.9 132.51-22.6 133.75-20.21 134.99-17.82 134.99-14.5L134.99-14.5 134.99-13.63Q134.99-12.73 134.9-11.79 134.81-10.85 134.66-10.03L134.66-10.03 128.86-10.03Q128.94-11.4 128.95-12.64 128.96-13.88 128.96-14.88L128.96-14.88Q128.96-16.6 128.41-17.81 127.86-19.03 126.74-19.65 125.61-20.28 123.86-20.28L123.86-20.28Q121.29-20.28 120.06-18.85 118.84-17.43 118.84-14.8L118.84-14.8 118.84-12.53 118.86-11.8 118.86-9.88Q118.86-8.72 119.23-7.75 119.59-6.78 120.44-6.06 121.29-5.35 122.7-4.95 124.11-4.55 126.24-4.55L126.24-4.55Q128.54-4.55 130.63-5.06 132.71-5.58 134.59-6.45L134.59-6.45 134.04-1.4Q132.36-0.48 130.1 0.06 127.84 0.6 125.09 0.6ZM133.36-10.03L116.04-10.03 116.04-14.28 133.36-14.28 133.36-10.03ZM158.28-31.95L158.28 0 151.68 0 151.68-31.95 158.28-31.95ZM177.38-31.95L177.38 0 170.81 0 170.81-31.95 177.38-31.95ZM155.46-13.65L155.46-19.13 173.31-19.13 173.31-13.65 155.46-13.65ZM203.91 0L197.58 0 197.81-6 197.63-6.55 197.63-14.23 197.61-15.33Q197.61-17.73 196.29-18.85 194.98-19.98 192.01-19.98L192.01-19.98Q189.48-19.98 187.27-19.31 185.06-18.65 183.18-17.78L183.18-17.78 183.73-22.88Q184.83-23.45 186.24-23.96 187.66-24.48 189.41-24.8 191.16-25.13 193.18-25.13L193.18-25.13Q196.18-25.13 198.26-24.41 200.33-23.7 201.57-22.38 202.81-21.05 203.36-19.21 203.91-17.38 203.91-15.15L203.91-15.15 203.91 0ZM189.56 0.58L189.56 0.58Q185.91 0.58 183.99-1.25 182.08-3.08 182.08-6.45L182.08-6.45 182.08-7.15Q182.08-10.73 184.28-12.44 186.48-14.15 191.26-14.8L191.26-14.8 198.21-15.75 198.58-11.63 192.18-10.7Q190.08-10.43 189.19-9.7 188.31-8.97 188.31-7.58L188.31-7.58 188.31-7.33Q188.31-5.95 189.17-5.19 190.03-4.42 191.88-4.42L191.88-4.42Q193.53-4.42 194.71-4.95 195.88-5.48 196.64-6.34 197.41-7.2 197.73-8.28L197.73-8.28 198.63-5.1 197.53-5.1Q197.13-3.53 196.24-2.24 195.36-0.95 193.76-0.19 192.16 0.58 189.56 0.58ZM231.53 0L225.13 0 225.13-14.73Q225.13-16.28 224.72-17.4 224.3-18.53 223.35-19.15 222.4-19.78 220.75-19.78L220.75-19.78Q219.3-19.78 218.22-19.25 217.13-18.73 216.44-17.84 215.75-16.95 215.4-15.83L215.4-15.83 214.4-19.33 215.6-19.33Q216-20.95 216.94-22.25 217.88-23.55 219.49-24.31 221.1-25.08 223.53-25.08L223.53-25.08Q226.35-25.08 228.1-24.01 229.85-22.95 230.69-20.85 231.53-18.75 231.53-15.65L231.53-15.65 231.53 0ZM215.55 0L209.15 0 209.15-24.53 215.55-24.53 215.3-18.55 215.55-18.03 215.55 0ZM244.83 0.58L244.83 0.58Q240.5 0.58 238.25-2.23 236-5.03 236-10.48L236-10.48 236-13.85Q236-19.38 238.28-22.23 240.55-25.08 245.05-25.08L245.05-25.08Q247.25-25.08 248.76-24.38 250.28-23.68 251.21-22.38 252.15-21.08 252.53-19.33L252.53-19.33 254.4-19.33 252.78-14.58Q252.73-16.3 252.06-17.49 251.4-18.68 250.23-19.3 249.05-19.93 247.45-19.93L247.45-19.93Q245.03-19.93 243.74-18.53 242.45-17.13 242.45-14.35L242.45-14.35 242.45-10.3Q242.45-7.55 243.74-6.15 245.03-4.75 247.5-4.75L247.5-4.75Q248.9-4.75 250-5.28 251.1-5.8 251.84-6.71 252.58-7.63 252.9-8.78L252.9-8.78 254.43-5.2 252.63-5.2Q252.23-3.6 251.33-2.29 250.43-0.98 248.85-0.2 247.28 0.58 244.83 0.58ZM259.08 0L252.68 0 252.9-6 252.78-7.43 252.78-17.45 252.8-18.48 252.68-25.5 252.68-33.05 259.08-33.05 259.08 0ZM277.37 0L268.05 0 262.75-24.53 269.3-24.53 272.9-4.55 273.35-4.55 277-23.9 285.25-23.9 288.92-4.55 289.35-4.55 293-24.53 299.47-24.53 294.17 0 284.87 0 281.87-16.23 281.32-19.25 280.95-19.25 280.4-16.23 277.37 0ZM314.7 0.6L314.7 0.6Q308.4 0.6 305.32-2.3 302.25-5.2 302.25-10.7L302.25-10.7 302.25-13.9Q302.25-19.35 305.12-22.28 308-25.2 313.47-25.2L313.47-25.2Q317.17-25.2 319.65-23.9 322.12-22.6 323.36-20.21 324.6-17.82 324.6-14.5L324.6-14.5 324.6-13.63Q324.6-12.73 324.51-11.79 324.42-10.85 324.27-10.03L324.27-10.03 318.47-10.03Q318.55-11.4 318.56-12.64 318.57-13.88 318.57-14.88L318.57-14.88Q318.57-16.6 318.02-17.81 317.47-19.03 316.35-19.65 315.22-20.28 313.47-20.28L313.47-20.28Q310.9-20.28 309.67-18.85 308.45-17.43 308.45-14.8L308.45-14.8 308.45-12.53 308.47-11.8 308.47-9.88Q308.47-8.72 308.83-7.75 309.2-6.78 310.05-6.06 310.9-5.35 312.31-4.95 313.72-4.55 315.85-4.55L315.85-4.55Q318.15-4.55 320.23-5.06 322.32-5.58 324.2-6.45L324.2-6.45 323.65-1.4Q321.97-0.48 319.71 0.06 317.45 0.6 314.7 0.6ZM322.97-10.03L305.65-10.03 305.65-14.28 322.97-14.28 322.97-10.03ZM335.34-14.25L335.34-14.25 333.72-18.53 335.27-18.53Q335.94-21.5 337.72-23.2 339.49-24.9 342.64-24.9L342.64-24.9Q343.29-24.9 343.82-24.81 344.34-24.73 344.77-24.6L344.77-24.6 345.12-18.2Q344.57-18.38 343.84-18.46 343.12-18.55 342.32-18.55L342.32-18.55Q339.77-18.55 337.98-17.43 336.19-16.3 335.34-14.25ZM335.52 0L329.12 0 329.12-24.53 335.22-24.53 334.94-17 335.52-16.78 335.52 0ZM371.74 0L364.24 0 356.19-10.8 354.02-10.8 354.02-14.98 356.22-14.98 363.97-24.53 371.37-24.53 361.42-12.45 361.42-13.75 371.74 0ZM354.87 0L348.49 0 348.49-33.05 354.87-33.05 354.87 0ZM386.34 0.6L386.34 0.6Q380.04 0.6 376.96-2.3 373.89-5.2 373.89-10.7L373.89-10.7 373.89-13.9Q373.89-19.35 376.76-22.28 379.64-25.2 385.11-25.2L385.11-25.2Q388.81-25.2 391.29-23.9 393.76-22.6 395-20.21 396.24-17.82 396.24-14.5L396.24-14.5 396.24-13.63Q396.24-12.73 396.15-11.79 396.06-10.85 395.91-10.03L395.91-10.03 390.11-10.03Q390.19-11.4 390.2-12.64 390.21-13.88 390.21-14.88L390.21-14.88Q390.21-16.6 389.66-17.81 389.11-19.03 387.99-19.65 386.86-20.28 385.11-20.28L385.11-20.28Q382.54-20.28 381.31-18.85 380.09-17.43 380.09-14.8L380.09-14.8 380.09-12.53 380.11-11.8 380.11-9.88Q380.11-8.72 380.48-7.75 380.84-6.78 381.69-6.06 382.54-5.35 383.95-4.95 385.36-4.55 387.49-4.55L387.49-4.55Q389.79-4.55 391.88-5.06 393.96-5.58 395.84-6.45L395.84-6.45 395.29-1.4Q393.61-0.48 391.35 0.06 389.09 0.6 386.34 0.6ZM394.61-10.03L377.29-10.03 377.29-14.28 394.61-14.28 394.61-10.03ZM406.99-14.25L406.99-14.25 405.36-18.53 406.91-18.53Q407.59-21.5 409.36-23.2 411.14-24.9 414.29-24.9L414.29-24.9Q414.94-24.9 415.46-24.81 415.99-24.73 416.41-24.6L416.41-24.6 416.76-18.2Q416.21-18.38 415.49-18.46 414.76-18.55 413.96-18.55L413.96-18.55Q411.41-18.55 409.62-17.43 407.84-16.3 406.99-14.25ZM407.16 0L400.76 0 400.76-24.53 406.86-24.53 406.59-17 407.16-16.78 407.16 0ZM445.23-9.6L436.68-9.6 436.68-14.95 444.83-14.95Q447.53-14.95 448.74-16.21 449.96-17.48 449.96-19.88L449.96-19.88 449.96-21.7Q449.96-24.15 448.76-25.39 447.56-26.63 444.86-26.63L444.86-26.63 436.68-26.63 436.68-31.95 445.23-31.95Q451.06-31.95 453.77-29.33 456.48-26.7 456.48-21.88L456.48-21.88 456.48-19.68Q456.48-14.85 453.77-12.23 451.06-9.6 445.23-9.6L445.23-9.6ZM438.78 0L432.31 0 432.31-31.95 438.76-31.95 438.76-13.43 438.78-10.45 438.78 0ZM467.4 0L460.98 0 460.98-33.05 467.4-33.05 467.4 0ZM493.58 0L487.25 0 487.48-6 487.3-6.55 487.3-14.23 487.28-15.33Q487.28-17.73 485.96-18.85 484.65-19.98 481.68-19.98L481.68-19.98Q479.15-19.98 476.94-19.31 474.73-18.65 472.85-17.78L472.85-17.78 473.4-22.88Q474.5-23.45 475.91-23.96 477.33-24.48 479.08-24.8 480.83-25.13 482.85-25.13L482.85-25.13Q485.85-25.13 487.93-24.41 490-23.7 491.24-22.38 492.48-21.05 493.03-19.21 493.58-17.38 493.58-15.15L493.58-15.15 493.58 0ZM479.23 0.58L479.23 0.58Q475.58 0.58 473.66-1.25 471.75-3.08 471.75-6.45L471.75-6.45 471.75-7.15Q471.75-10.73 473.95-12.44 476.15-14.15 480.93-14.8L480.93-14.8 487.88-15.75 488.25-11.63 481.85-10.7Q479.75-10.43 478.86-9.7 477.98-8.97 477.98-7.58L477.98-7.58 477.98-7.33Q477.98-5.95 478.84-5.19 479.7-4.42 481.55-4.42L481.55-4.42Q483.2-4.42 484.38-4.95 485.55-5.48 486.31-6.34 487.08-7.2 487.4-8.28L487.4-8.28 488.3-5.1 487.2-5.1Q486.8-3.53 485.91-2.24 485.03-0.95 483.43-0.19 481.83 0.58 479.23 0.58ZM508.32 0.53L508.32 0.53Q505.2 0.53 503.34-0.41 501.47-1.35 500.65-3.25 499.82-5.15 499.82-7.93L499.82-7.93 499.82-22.23 506.17-22.23 506.17-8.88Q506.17-6.88 507.09-5.94 508-5 510.3-5L510.3-5Q511.65-5 512.9-5.29 514.15-5.58 515.2-6.05L515.2-6.05 514.65-0.7Q513.4-0.13 511.79 0.2 510.17 0.53 508.32 0.53ZM514.42-19.28L496.27-19.28 496.27-24.33 514.97-24.33 514.42-19.28ZM506-23.85L499.9-23.85 499.87-30.35 506.25-31 506-23.85ZM528.37 0.53L528.37 0.53Q525.24 0.53 523.38-0.41 521.52-1.35 520.69-3.25 519.87-5.15 519.87-7.93L519.87-7.93 519.87-22.23 526.22-22.23 526.22-8.88Q526.22-6.88 527.13-5.94 528.04-5 530.34-5L530.34-5Q531.69-5 532.94-5.29 534.19-5.58 535.24-6.05L535.24-6.05 534.69-0.7Q533.44-0.13 531.83 0.2 530.22 0.53 528.37 0.53ZM534.47-19.28L516.32-19.28 516.32-24.33 535.02-24.33 534.47-19.28ZM526.04-23.85L519.94-23.85 519.92-30.35 526.29-31 526.04-23.85ZM547.54-33.83L547.54-33.83Q549.49-33.83 551.14-33.5 552.79-33.18 554.07-32.7L554.07-32.7 554.64-27.9Q553.57-28.23 552.4-28.44 551.24-28.65 549.84-28.65L549.84-28.65Q548.17-28.65 547.2-28.28 546.24-27.9 545.84-27.2 545.44-26.5 545.44-25.55L545.44-25.55 545.44-25.48Q545.44-24.8 545.64-24.2 545.84-23.6 546.12-23.13L546.12-23.13 541.94-22.98 541.94-23.65Q540.79-24.2 539.99-25.28 539.19-26.35 539.19-27.95L539.19-27.95 539.19-28.08Q539.19-30.73 541.23-32.27 543.27-33.83 547.54-33.83ZM546.42 0L540.04 0 540.04-21.65 546.42-21.65 546.42 0ZM554.04-18.4L536.49-18.4 536.49-23.48 542.69-23.43 545.19-23.48 554.59-23.48 554.04-18.4ZM568.56 0.68L568.56 0.68Q562.86 0.68 559.93-2.25 556.99-5.18 556.99-10.58L556.99-10.58 556.99-13.9Q556.99-19.33 559.93-22.26 562.86-25.2 568.56-25.2L568.56-25.2Q574.24-25.2 577.16-22.26 580.09-19.33 580.09-13.9L580.09-13.9 580.09-10.58Q580.09-5.18 577.18-2.25 574.26 0.68 568.56 0.68ZM568.56-4.45L568.56-4.45Q571.06-4.45 572.38-5.95 573.69-7.45 573.69-10.25L573.69-10.25 573.69-14.23Q573.69-17.07 572.38-18.59 571.06-20.1 568.56-20.1L568.56-20.1Q566.04-20.1 564.73-18.59 563.41-17.07 563.41-14.23L563.41-14.23 563.41-10.25Q563.41-7.45 564.73-5.95 566.04-4.45 568.56-4.45ZM590.99-14.25L590.99-14.25 589.36-18.53 590.91-18.53Q591.59-21.5 593.36-23.2 595.14-24.9 598.29-24.9L598.29-24.9Q598.94-24.9 599.46-24.81 599.99-24.73 600.41-24.6L600.41-24.6 600.76-18.2Q600.21-18.38 599.49-18.46 598.76-18.55 597.96-18.55L597.96-18.55Q595.41-18.55 593.62-17.43 591.84-16.3 590.99-14.25ZM591.16 0L584.76 0 584.76-24.53 590.86-24.53 590.59-17 591.16-16.78 591.16 0ZM640.78 0L634.36 0 634.36-14.9Q634.36-16.4 633.98-17.49 633.61-18.57 632.75-19.18 631.88-19.78 630.41-19.78L630.41-19.78Q629.06-19.78 628.06-19.25 627.06-18.73 626.43-17.84 625.81-16.95 625.51-15.83L625.51-15.83 624.81-19.33 625.46-19.33Q625.86-20.9 626.76-22.21 627.66-23.53 629.22-24.3 630.78-25.08 633.18-25.08L633.18-25.08Q635.86-25.08 637.52-24.04 639.18-23 639.98-20.94 640.78-18.88 640.78-15.83L640.78-15.83 640.78 0ZM610.53 0L604.13 0 604.13-24.53 610.53-24.53 610.28-18.3 610.53-18.03 610.53 0ZM625.66 0L619.26 0 619.26-14.9Q619.26-16.4 618.88-17.49 618.51-18.57 617.65-19.18 616.78-19.78 615.31-19.78L615.31-19.78Q613.93-19.78 612.95-19.25 611.96-18.73 611.32-17.84 610.68-16.95 610.38-15.83L610.38-15.83 609.38-19.33 610.58-19.33Q610.96-20.95 611.85-22.25 612.73-23.55 614.26-24.31 615.78-25.08 618.06-25.08L618.06-25.08Q621.48-25.08 623.22-23.33 624.96-21.58 625.41-18.23L625.41-18.23Q625.51-17.73 625.58-17.06 625.66-16.4 625.66-15.83L625.66-15.83 625.66 0Z" opacity="1" transform="matrix(1,0,0,1,0,0)" fill="#ff0000" class="slogan-text-1" data-fill-palette-color="secondary" id="text-1"></path></svg></g></svg></g></svg></g></svg></g></svg></g><defs></defs></svg><rect width="395.5199999999999" height="61.660387120295304" fill="none" stroke="none" visibility="hidden"></rect></g></svg></g></svg>