<svg xmlns="http://www.w3.org/2000/svg" width="71" height="50" viewBox="0 0 71 50">
  <g id="Gruppe_268" data-name="Gruppe 268" transform="translate(-108 -1149)">
    <g id="Icon-HG-Flaeche" transform="translate(108 1149)">
      <rect id="Rechteck_81" data-name="Rechteck 81" width="71" height="50" fill="#fff"/>
    </g>
    <g id="Gruppe_226" data-name="Gruppe 226" transform="translate(-1 -459.12)">
      <path id="Pfad_1080" data-name="Pfad 1080" d="M1075.851,493.405h-13.044v-7.023l-14.014,9.843,14.014,9.843v-7.024h13.044Z" transform="translate(-908.355 1130.579)" fill="#3258a7" opacity="0.22"/>
      <circle id="Ellipse_85" data-name="Ellipse 85" cx="4.935" cy="4.935" r="4.935" transform="translate(152.831 1638.889)" fill="#d2daec"/>
      <circle id="Ellipse_86" data-name="Ellipse 86" cx="4.935" cy="4.935" r="4.935" transform="translate(127.591 1638.889)" fill="#d2daec"/>
      <line id="Linie_94" data-name="Linie 94" x1="15.37" transform="translate(137.461 1642.979)" fill="none" stroke="#3258a7" stroke-linecap="round" stroke-linejoin="round" stroke-width="1.05"/>
      <path id="Pfad_1092" data-name="Pfad 1092" d="M1069.376,490.482v20.237h-4.794" transform="translate(-901.881 1132.26)" fill="none" stroke="#3258a7" stroke-linecap="round" stroke-linejoin="round" stroke-width="1.05"/>
      <path id="Pfad_1093" data-name="Pfad 1093" d="M1040.994,511.437h-4.512V500.3l4.794-11.567h11.705" transform="translate(-913.403 1131.542)" fill="none" stroke="#3258a7" stroke-linecap="round" stroke-linejoin="round" stroke-width="1.05"/>
      <circle id="Ellipse_91" data-name="Ellipse 91" cx="4.935" cy="4.935" r="4.935" transform="translate(152.831 1638.89)" fill="none" stroke="#3258a7" stroke-linecap="round" stroke-linejoin="round" stroke-width="1.05"/>
      <circle id="Ellipse_92" data-name="Ellipse 92" cx="4.935" cy="4.935" r="4.935" transform="translate(127.591 1638.89)" fill="none" stroke="#3258a7" stroke-linecap="round" stroke-linejoin="round" stroke-width="1.05"/>
      <path id="Pfad_1094" data-name="Pfad 1094" d="M1047.168,491.87h-4.421l-2.771,6.646h7.192Z" transform="translate(-911.97 1132.83)" fill="none" stroke="#3258a7" stroke-linecap="round" stroke-linejoin="round" stroke-width="1.05"/>
      <circle id="Ellipse_93" data-name="Ellipse 93" cx="1.269" cy="1.269" r="1.269" transform="translate(131.257 1642.556)" fill="#3258a7"/>
      <circle id="Ellipse_94" data-name="Ellipse 94" cx="1.269" cy="1.269" r="1.269" transform="translate(156.497 1642.556)" fill="#3258a7"/>
      <path id="Pfad_1095" data-name="Pfad 1095" d="M1048.183,506.443V484.487H1076.1v8.453" transform="translate(-908.605 1129.802)" fill="none" stroke="#3258a7" stroke-linecap="round" stroke-linejoin="round" stroke-width="1.05"/>
      <circle id="Ellipse_95" data-name="Ellipse 95" cx="5.943" cy="5.943" r="5.943" transform="translate(126.583 1637.882)" fill="none" stroke="#fff" stroke-linecap="round" stroke-linejoin="round" stroke-width="1.05"/>
      <circle id="Ellipse_96" data-name="Ellipse 96" cx="5.943" cy="5.943" r="5.943" transform="translate(151.804 1637.882)" fill="none" stroke="#fff" stroke-linecap="round" stroke-linejoin="round" stroke-width="1.05"/>
      <line id="Linie_95" data-name="Linie 95" y1="21.955" transform="translate(138.575 1614.115)" fill="none" stroke="#fff" stroke-linecap="round" stroke-linejoin="round" stroke-width="1.05"/>
    </g>
  </g>
</svg>
