<svg xmlns="http://www.w3.org/2000/svg" xmlns:xlink="http://www.w3.org/1999/xlink" width="70" height="48" viewBox="0 0 70 48">
  <defs>
    <linearGradient id="linear-gradient" x1="0.146" y1="0.115" x2="1.047" y2="1.173" gradientUnits="objectBoundingBox">
      <stop offset="0" stop-color="#3258a7" stop-opacity="0.302"/>
      <stop offset="1" stop-color="#3258a7"/>
    </linearGradient>
    <linearGradient id="linear-gradient-2" x1="0.142" y1="0.074" x2="1.03" y2="1.11" gradientUnits="objectBoundingBox">
      <stop offset="0" stop-color="#3258a7"/>
      <stop offset="1" stop-color="#3258a7" stop-opacity="0.302"/>
    </linearGradient>
  </defs>
  <g id="Gruppe_291" data-name="Gruppe 291" transform="translate(-109 -1387)">
    <g id="Icon-HG-Flaeche" transform="translate(109 1387)">
      <rect id="Rechteck_81" data-name="Rechteck 81" width="70" height="48" fill="#fff"/>
    </g>
    <g id="Gruppe_290" data-name="Gruppe 290" transform="translate(-769.602 772.312)">
      <path id="Pfad_1137" data-name="Pfad 1137" d="M922.981,632.663l1.979-2.11a2.891,2.891,0,0,1,4.07-.131l1.05,1.05a1.315,1.315,0,0,1,0,1.969l-.131.131a.978.978,0,0,0,0,1.182l1.575,1.576a.978.978,0,0,0,1.181,0l4.333-4.595a.981.981,0,0,0,0-1.181l-1.576-1.576a.981.981,0,0,0-1.182,0h0a1.314,1.314,0,0,1-1.969,0l-.525-.656a1.487,1.487,0,0,1-.394-1.049v-1.839a1.486,1.486,0,0,0-.394-1.049l-4.726-4.333s-4.988-4.595-13.915-1.444l.132,1.313s5.251,0,8.139,2.757c2.625,2.494-1.717,6.18-1.717,6.18" transform="translate(-1.023)" fill="none" stroke="#3258a7" stroke-linecap="round" stroke-linejoin="round" stroke-width="1.05"/>
      <path id="Pfad_1138" data-name="Pfad 1138" d="M912.482,633.9l-4.692-3.952-1.049-1.05a2.565,2.565,0,0,1-.788-2.494c.263-1.576.431-4.256-1.407-5.962-2.169-2.07-5.108-2.325-7.914-1.39a.485.485,0,0,0-.131.919l2.363,1.576a3.17,3.17,0,0,1,.919,4.463l-.132.263a3.191,3.191,0,0,1-4.332,1.05l-2.494-1.445a.514.514,0,0,0-.788.525,10.1,10.1,0,0,0,2.888,5.251c1.575,1.707,4.2,1.313,5.645.787a2.322,2.322,0,0,1,2.1.394l5.382,5.513" transform="translate(0 -0.052)" fill="none" stroke="#3258a7" stroke-linecap="round" stroke-linejoin="round" stroke-width="1.05"/>
      <path id="Pfad_1139" data-name="Pfad 1139" d="M910.117,634.233l-3.461-3.093-1.481-1.418a3.411,3.411,0,0,1-1.02-2.768c.247-1.48.62-3.77-1.06-5.263a5.538,5.538,0,0,0-5.689-1.15c-.493.124-.214.085.156.208l1.312.884a2.9,2.9,0,0,1,1.066,4.076l-.276,1.343c-.863,1.356-3.49,1.143-4.846.279l-2.292-1.192c-.369-.246-.322,1.025-.2,1.4a6.476,6.476,0,0,0,2.273,4.03,4.7,4.7,0,0,0,5.026,1.061,5.044,5.044,0,0,1,3.055.3l4.428,4.336" transform="translate(-0.011 -0.136)" opacity="0.2" fill="url(#linear-gradient)"/>
      <path id="Pfad_1140" data-name="Pfad 1140" d="M914.016,644.636l8.926,9.19a3.172,3.172,0,0,0,4.595,0l1.445-1.444a3.294,3.294,0,0,0-.263-4.595l-10.108-8.664" transform="translate(-1.106 -1.087)" fill="none" stroke="#3258a7" stroke-linecap="round" stroke-linejoin="round" stroke-width="1.05"/>
      <path id="Pfad_1141" data-name="Pfad 1141" d="M915.062,645.738l8.836,8.836c1.181,1.313,2.072.911,3.385-.4l.975-1.147c1.181-1.314,1.883-1.7.571-2.882l-10.109-8.664" transform="translate(-1.159 -1.206)" opacity="0.2" fill="url(#linear-gradient-2)"/>
      <path id="Pfad_1142" data-name="Pfad 1142" d="M923.276,634.324l-17.065,20.217" transform="translate(-0.714 -0.846)" fill="none" stroke="#fff" stroke-linecap="round" stroke-linejoin="round" stroke-width="1.05"/>
      <path id="Pfad_1143" data-name="Pfad 1143" d="M900.9,653.34l-1.313-1.181a3.327,3.327,0,0,1,0-4.726l18.631-17.974,4.07,3.807-16.662,19.813A3.458,3.458,0,0,1,900.9,653.34Z" transform="translate(-0.331 -0.601)" fill="none" stroke="#3258a7" stroke-linecap="round" stroke-linejoin="round" stroke-width="1.05"/>
      <circle id="Ellipse_109" data-name="Ellipse 109" cx="1.282" cy="1.282" r="1.282" transform="translate(922.358 647.372)" fill="#3258a7"/>
    </g>
  </g>
</svg>
