<svg width="20" height="20" viewBox="0 0 20 20" fill="none" xmlns="http://www.w3.org/2000/svg">
<path d="M17.305 0H2.69514C1.20673 0 7.62939e-05 1.2066 7.62939e-05 2.69506V17.305C7.62939e-05 18.7934 1.20668 20 2.69514 20H9.90064L9.91292 12.8531H8.05614C7.81484 12.8531 7.619 12.658 7.61807 12.4167L7.60916 10.1129C7.60823 9.87032 7.80467 9.67315 8.04729 9.67315H9.90068V7.44714C9.90068 4.86388 11.4784 3.45727 13.7828 3.45727H15.6738C15.9157 3.45727 16.1119 3.65341 16.1119 3.8954V5.83793C16.1119 6.07982 15.9159 6.27592 15.674 6.27606L14.5136 6.2766C13.2603 6.2766 13.0177 6.87212 13.0177 7.74608V9.6732H15.7714C16.0338 9.6732 16.2374 9.90232 16.2065 10.1629L15.9334 12.4667C15.9073 12.6871 15.7204 12.8532 15.4984 12.8532H13.03L13.0177 20.0001H17.3051C18.7935 20.0001 20.0001 18.7935 20.0001 17.3051V2.69506C20 1.2066 18.7934 0 17.305 0Z" fill="#666666"/>
</svg>
