<?xml version="1.0" encoding="utf-8"?>
<!-- Generator: Adobe Illustrator 21.0.0, SVG Export Plug-In . SVG Version: 6.00 Build 0)  -->
<svg version="1.1" id="Шар_1" xmlns="http://www.w3.org/2000/svg" xmlns:xlink="http://www.w3.org/1999/xlink" x="0px" y="0px"
	 viewBox="0 0 35 35" style="enable-background:new 0 0 35 35;" xml:space="preserve">
<style type="text/css">
	.st0{fill:none;stroke:#333333;stroke-width:0.8;stroke-linecap:round;stroke-linejoin:round;stroke-miterlimit:10;}
	.st1{fill:#333333;}
	.st2{fill:none;}
	.st3{fill:#E6E6E6;stroke:#333333;stroke-width:0.8;stroke-linecap:round;stroke-linejoin:round;stroke-miterlimit:10;}
	.st4{fill:#FFFFFF;stroke:#333333;stroke-width:0.8;stroke-linecap:round;stroke-linejoin:round;stroke-miterlimit:10;}
</style>
<path class="st0" d="M12.1,6c0,0,2.6-2.1,5.6,0c0,0,2.9-2.1,5.9,0c0,0,2.7-2.1,5.7,0l4.4,23.9c-4.2-3-8,0-8,0c-4.2-3-8,0-8,0
	c-4.2-3-8,0-8,0c-4.2-3-8,0-8,0L6.3,6C6.3,6,9.1,3.9,12.1,6"/>
<path class="st0" d="M32.3,21.9c-3.8-2.7-7.2,0-7.2,0c-3.8-2.7-7.3,0-7.3,0c-3.8-2.7-7.2,0-7.2,0c-3.8-2.7-7.3,0-7.3,0"/>
<path class="st0" d="M30.8,14c-3.4-2.4-6.5,0-6.5,0c-3.4-2.4-6.6,0-6.6,0c-3.4-2.4-6.4,0-6.4,0c-3.4-2.4-6.5,0-6.5,0"/>
<line class="st0" x1="25.7" y1="29.9" x2="23.6" y2="6"/>
<line class="st0" x1="17.7" y1="29.9" x2="17.7" y2="6"/>
<line class="st0" x1="9.7" y1="29.9" x2="12.1" y2="6"/>
</svg>
