<?xml version="1.0" encoding="utf-8"?>
<!-- Generator: Adobe Illustrator 21.0.0, SVG Export Plug-In . SVG Version: 6.00 Build 0)  -->
<svg version="1.1" id="Шар_1" xmlns="http://www.w3.org/2000/svg" xmlns:xlink="http://www.w3.org/1999/xlink" x="0px" y="0px"
	 viewBox="0 0 35 35" style="enable-background:new 0 0 35 35;" xml:space="preserve">
<style type="text/css">
	.st0{fill:none;stroke:#333333;stroke-width:0.8;stroke-linecap:round;stroke-linejoin:round;stroke-miterlimit:10;}
	.st1{fill:#333333;}
	.st2{fill:none;}
	.st3{fill:#E6E6E6;stroke:#333333;stroke-width:0.8;stroke-linecap:round;stroke-linejoin:round;stroke-miterlimit:10;}
	.st4{fill:#FFFFFF;stroke:#333333;stroke-width:0.8;stroke-linecap:round;stroke-linejoin:round;stroke-miterlimit:10;}
</style>
<path class="st0" d="M9.9,26.6c-0.1,2-1.8,3.6-3.8,3.5c-2-0.1-3.7-1.7-3.7-3.8"/>
<path class="st0" d="M7.5,26.7c0,0.7-0.6,1.3-1.4,1.2c-0.7,0-1.3-0.6-1.3-1.3"/>
<path class="st0" d="M32.6,25.4c0.2,0.6,0.2,1.3,0,1.9c-0.5,2-2.6,3.2-4.6,2.7c-1.4-0.4-2.5-1.5-2.7-2.9"/>
<path class="st0" d="M30.6,25.5c0.1,0.3,0.1,0.6,0,0.9c-0.2,0.9-1.2,1.5-2.1,1.2c-0.7-0.2-1.1-0.7-1.2-1.3"/>
<path class="st0" d="M23.3,27l1.9,0l0.7,0c0.3,0,0.6-0.1,0.8-0.4l1.2-1.5c0,0,3.4,0.2,5.3,0.2c0.5,0,0.9-0.1,1-0.1
	c0.8-0.4-2-4.3-6.1-4.4"/>
<path class="st0" d="M22.6,9.5c0,0,0.6,5.9,0.7,8.2c0.1,1.7-2.1,4.3-3.1,5.6c-0.3,0.4-0.7,0.6-1.1,0.6c-0.8,0-0.6,0-1.8,0
	c-1.9-0.1-3-0.8-3-2.4c0-1.6,0.7-3.2,0.7-3.2"/>
<path class="st0" d="M3.6,18.1c0,0-2.2,4.2-2.8,6.3s1.7,1.9,3.1,1.9S23.3,27,23.3,27s3.6-3.7,4.3-5.1c0.7-1.4,1-1.9,0.5-3.3
	c-0.4-1.1-1.8-5.2-2.5-7.1"/>
<path class="st0" d="M28.2,11.5c0,0-5.4,0.7-5.6-2c-0.2-2.8,5.2-3.6,5.2-3.6L28.2,11.5z"/>
<path class="st0" d="M27.7,5.9c0,0,2.3,0.2,2.5,2.6c0.2,2.5-2,3-2,3L27.7,5.9z"/>
<path class="st0" d="M4.9,14.2c-0.5,0-1,0.2-1.2,0.6c-0.2,0.4-0.5,0.9-0.8,1.5c-0.5,1.2-0.2,1.8,1.5,1.9c1.6,0.1,7.4,0.3,10.8,0
	c0.3,0,0.5-0.3,0.6-0.6l0.2-1.1c0.1-0.4-0.2-0.7-0.6-0.8C13.5,15.4,8.8,14.6,4.9,14.2z"/>
<line class="st0" x1="23.2" y1="7.7" x2="20.5" y2="5.3"/>
<path class="st0" d="M12,26.6c0,0,1.1-3.8-2.1-5c-2.4-0.9-4.7,0.6-6,1.8"/>
<circle class="st0" cx="19.1" cy="4" r="1.9"/>
<line class="st0" x1="22.6" y1="9.9" x2="18.7" y2="11.4"/>
</svg>
