<?xml version="1.0" encoding="utf-8"?>
<!-- Generator: Adobe Illustrator 21.0.0, SVG Export Plug-In . SVG Version: 6.00 Build 0)  -->
<svg version="1.1" id="Шар_1" xmlns="http://www.w3.org/2000/svg" xmlns:xlink="http://www.w3.org/1999/xlink" x="0px" y="0px"
	 viewBox="0 0 35 35" style="enable-background:new 0 0 35 35;" xml:space="preserve">
<style type="text/css">
	.st0{fill:none;stroke:#333333;stroke-width:0.8;stroke-linecap:round;stroke-linejoin:round;stroke-miterlimit:10;}
	.st1{fill:#333333;}
	.st2{fill:none;}
	.st3{fill:#E6E6E6;stroke:#333333;stroke-width:0.8;stroke-linecap:round;stroke-linejoin:round;stroke-miterlimit:10;}
	.st4{fill:#FFFFFF;stroke:#333333;stroke-width:0.8;stroke-linecap:round;stroke-linejoin:round;stroke-miterlimit:10;}
</style>
<polygon class="st0" points="21.9,6.9 8.6,6.9 1.8,18.4 8.6,30 21.9,30 28.4,18.4 "/>
<circle class="st0" cx="15.1" cy="18.4" r="6.3"/>
<path class="st0" d="M13.4,16.6c0-1.7,0.7-3.3,1.8-4.4c0,0-0.1,0-0.1,0c-3.5,0-6.3,2.8-6.3,6.3c0,3.5,2.8,6.3,6.3,6.3
	c1.8,0,3.3-0.7,4.5-1.9C16.1,22.8,13.4,20,13.4,16.6z"/>
<path class="st0" d="M13.8,12.2c-1.6,1.2-2.6,3-2.6,5.2c0,3.6,2.9,6.4,6.4,6.4c0.3,0,0.5,0,0.7,0"/>
<polyline class="st0" points="21.9,30 26.7,27.9 33.2,16.4 28.4,18.4 "/>
<polyline class="st0" points="8.6,6.9 13.5,4.6 26.5,4.6 21.9,6.9 "/>
<line class="st0" x1="26.5" y1="4.6" x2="33.2" y2="16.4"/>
</svg>
