<?xml version="1.0" encoding="utf-8"?>
<!-- Generator: Adobe Illustrator 21.0.0, SVG Export Plug-In . SVG Version: 6.00 Build 0)  -->
<svg version="1.1" id="Шар_1" xmlns="http://www.w3.org/2000/svg" xmlns:xlink="http://www.w3.org/1999/xlink" x="0px" y="0px"
	 viewBox="0 0 35 35" style="enable-background:new 0 0 35 35;" xml:space="preserve">
<style type="text/css">
	.st0{fill:none;stroke:#333333;stroke-width:0.8;stroke-linecap:round;stroke-linejoin:round;stroke-miterlimit:10;}
</style>
<path class="st0" d="M25,29.4c-2.2,1.4-4.9,2.2-7.8,2.2c-8,0-14.5-6.5-14.5-14.5S9.3,2.6,17.3,2.6s14.5,6.5,14.5,14.5
	c0,2.5-0.6,4.8-1.7,6.8"/>
<path class="st0" d="M15.1,2.8c-2.2,1.4-6.5,5.4-6.5,14.3"/>
<path class="st0" d="M19.3,2.8c2.2,1.4,6.6,5.5,6.6,14.3"/>
<line class="st0" x1="17.3" y1="2.7" x2="17.3" y2="17"/>
<path class="st0" d="M15.1,31.4c-2.2-1.5-6.5-5.6-6.5-14.4"/>
<path class="st0" d="M25.5,21.3c0.2-1.3,0.4-2.7,0.4-4.3"/>
<path class="st0" d="M19.3,31.4c1.3-0.8,3.3-2.6,4.8-5.7"/>
<line class="st0" x1="17.3" y1="31.5" x2="17.3" y2="17.1"/>
<line class="st0" x1="5.3" y1="8.9" x2="29.1" y2="8.9"/>
<line class="st0" x1="5.3" y1="24.7" x2="23.7" y2="24.7"/>
<line class="st0" x1="3" y1="17" x2="31.8" y2="17"/>
<polygon class="st0" points="22.6,19.7 25.9,32.6 27.9,29.6 31.1,33.4 33.4,31.5 30.1,27.3 34.2,26.2 "/>
</svg>
