<?xml version="1.0" encoding="utf-8"?>
<!-- Generator: Adobe Illustrator 21.0.0, SVG Export Plug-In . SVG Version: 6.00 Build 0)  -->
<svg version="1.1" id="Шар_1" xmlns="http://www.w3.org/2000/svg" xmlns:xlink="http://www.w3.org/1999/xlink" x="0px" y="0px"
	 viewBox="0 0 35 35" style="enable-background:new 0 0 35 35;" xml:space="preserve">
<style type="text/css">
	.st0{fill:none;stroke:#333333;stroke-width:0.8;stroke-linecap:round;stroke-linejoin:round;stroke-miterlimit:10;}
	.st1{fill:#333333;}
	.st2{fill:none;}
	.st3{fill:#E6E6E6;stroke:#333333;stroke-width:0.8;stroke-linecap:round;stroke-linejoin:round;stroke-miterlimit:10;}
	.st4{fill:#FFFFFF;stroke:#333333;stroke-width:0.8;stroke-linecap:round;stroke-linejoin:round;stroke-miterlimit:10;}
</style>
<polyline class="st0" points="4.5,12.6 4.5,31.2 30.5,31.2 30.5,12.6 "/>
<path class="st0" d="M22.1,18.8h-8.5c-0.7,0-1.2,0.5-1.2,1.2v6c0,0.7,0.5,1.2,1.2,1.2h8.5c0.7,0,1.2-0.5,1.2-1.2v-6
	C23.2,19.3,22.7,18.8,22.1,18.8z"/>
<line class="st0" x1="1.7" y1="14.2" x2="17.5" y2="3.8"/>
<line class="st0" x1="33.3" y1="14.2" x2="17.5" y2="3.8"/>
<line class="st0" x1="1.6" y1="31.2" x2="33.4" y2="31.2"/>
<path class="st0" d="M17.8,12.4L17.8,12.4c-1.9,0-3.4,1.5-3.4,3.4v3h6.9v-3C21.2,13.9,19.7,12.4,17.8,12.4z"/>
<circle class="st1" cx="17.8" cy="22.4" r="1.1"/>
<line class="st0" x1="17.8" y1="23.4" x2="17.8" y2="24.8"/>
</svg>
