<?xml version="1.0" encoding="utf-8"?>
<!-- Generator: Adobe Illustrator 21.0.0, SVG Export Plug-In . SVG Version: 6.00 Build 0)  -->
<svg version="1.1" id="Шар_1" xmlns="http://www.w3.org/2000/svg" xmlns:xlink="http://www.w3.org/1999/xlink" x="0px" y="0px"
	 viewBox="0 0 35 35" style="enable-background:new 0 0 35 35;" xml:space="preserve">
<style type="text/css">
	.st0{fill:none;stroke:#333333;stroke-width:0.8;stroke-linecap:round;stroke-linejoin:round;stroke-miterlimit:10;}
</style>
<polyline class="st0" points="23,17.7 31.2,25.9 25.3,31.9 17.1,23.6 "/>
<polyline class="st0" points="12.7,19.2 3.1,9.5 9,3.6 18.7,13.3 "/>
<line class="st0" x1="9.1" y1="7.1" x2="10.8" y2="5.4"/>
<line class="st0" x1="9.7" y1="9.8" x2="12.4" y2="7"/>
<line class="st0" x1="12.5" y1="10.6" x2="14.3" y2="8.8"/>
<line class="st0" x1="13.1" y1="13.2" x2="15.8" y2="10.4"/>
<line class="st0" x1="15.9" y1="13.9" x2="17.6" y2="12.2"/>
<line class="st0" x1="22.9" y1="21.1" x2="24.6" y2="19.4"/>
<line class="st0" x1="26.4" y1="24.6" x2="28.1" y2="22.9"/>
<line class="st0" x1="23.6" y1="23.7" x2="26.3" y2="21"/>
<polygon class="st0" points="10.5,30.2 4.5,32.3 6.1,25.8 27.2,4.8 31.5,9.2 "/>
<line class="st0" x1="10.5" y1="30.2" x2="6.1" y2="25.8"/>
<line class="st0" x1="24.4" y1="7.6" x2="28.8" y2="11.9"/>
<line class="st0" x1="5.3" y1="29.3" x2="7.2" y2="31.2"/>
</svg>
