<?xml version="1.0" encoding="utf-8"?>
<!-- Generator: Adobe Illustrator 21.0.0, SVG Export Plug-In . SVG Version: 6.00 Build 0)  -->
<svg version="1.1" id="Шар_1" xmlns="http://www.w3.org/2000/svg" xmlns:xlink="http://www.w3.org/1999/xlink" x="0px" y="0px"
	 viewBox="0 0 35 35" style="enable-background:new 0 0 35 35;" xml:space="preserve">
<style type="text/css">
	.st0{fill:none;stroke:#333333;stroke-width:0.8;stroke-linecap:round;stroke-linejoin:round;stroke-miterlimit:10;}
	.st1{fill:#333333;}
	.st2{fill:none;}
	.st3{fill:#E6E6E6;stroke:#333333;stroke-width:0.8;stroke-linecap:round;stroke-linejoin:round;stroke-miterlimit:10;}
	.st4{fill:#FFFFFF;stroke:#333333;stroke-width:0.8;stroke-linecap:round;stroke-linejoin:round;stroke-miterlimit:10;}
</style>
<path class="st0" d="M17.5,5.2L17.5,5.2c-4.8,0-8.7,3.9-8.7,8.7v15.8h17.4V13.9C26.2,9.1,22.3,5.2,17.5,5.2z"/>
<path class="st0" d="M17.5,1.8L17.5,1.8C10.8,1.8,5.3,7.3,5.3,14v19h24.3V14C29.7,7.3,24.2,1.8,17.5,1.8z"/>
<line class="st0" x1="17.5" y1="29.7" x2="17.5" y2="5.2"/>
<line class="st0" x1="17.5" y1="18.2" x2="26.2" y2="18.2"/>
<line class="st0" x1="8.8" y1="18.2" x2="17.5" y2="18.2"/>
<line class="st0" x1="10.9" y1="25.9" x2="13.8" y2="22"/>
<line class="st0" x1="13.4" y1="25.9" x2="15.6" y2="23"/>
<line class="st0" x1="19.7" y1="25.6" x2="22.9" y2="21.4"/>
<line class="st0" x1="21.4" y1="26.9" x2="23.7" y2="23.9"/>
<line class="st0" x1="11.2" y1="15" x2="14.3" y2="10.9"/>
<line class="st0" x1="13.4" y1="15.7" x2="15.1" y2="13.4"/>
<line class="st0" x1="20" y1="15" x2="22.8" y2="11.3"/>
<line class="st0" x1="22.1" y1="15.4" x2="23.8" y2="13.2"/>
</svg>
