<?xml version="1.0" encoding="utf-8"?>
<!-- Generator: Adobe Illustrator 21.0.0, SVG Export Plug-In . SVG Version: 6.00 Build 0)  -->
<svg version="1.1" id="Шар_1" xmlns="http://www.w3.org/2000/svg" xmlns:xlink="http://www.w3.org/1999/xlink" x="0px" y="0px"
	 viewBox="0 0 35 35" style="enable-background:new 0 0 35 35;" xml:space="preserve">
<style type="text/css">
	.st0{fill:none;stroke:#333333;stroke-width:0.8;stroke-linecap:round;stroke-linejoin:round;stroke-miterlimit:10;}
</style>
<path class="st0" d="M7.1,30.6l-1-0.9c-1-1-1-2.6,0-3.6l14.5-14l3.1,2.9l-13,15.4C9.8,31.4,8.1,31.5,7.1,30.6z"/>
<path class="st0" d="M23.7,15l1.2-1.3c0.8-0.9,2.2-0.9,3.1-0.1l0.8,0.8c0.4,0.4,0.5,1.1,0,1.5L28.7,16c-0.2,0.3-0.2,0.7,0,0.9
	l1.2,1.2c0.3,0.2,0.7,0.2,0.9,0l3.3-3.5c0.2-0.3,0.2-0.7,0-0.9l-1.2-1.2c-0.3-0.2-0.7-0.2-0.9,0l0,0c-0.4,0.4-1.1,0.5-1.5,0L30.1,12
	c-0.2-0.2-0.3-0.5-0.3-0.8V9.8c0-0.3-0.1-0.6-0.3-0.8l-3.6-3.3c0,0-3.8-3.5-10.6-1.1l0.1,1c0,0,4,0,6.2,2.1c2,1.9-1,4.4-1,4.4"/>
<path class="st0" d="M16.3,16.3l-3.7-3.1l-0.8-0.8c-0.5-0.5-0.8-1.2-0.6-1.9c0.2-1.2,0.3-3.1-1.1-4.4C7.9,4,5.3,4.5,4.1,4.9
	C3.7,5,3.7,5.5,4,5.6l1.8,1.2C6.9,7.5,7.3,9,6.5,10.2l-0.1,0.2c-0.7,1.1-2.2,1.5-3.3,0.8l-1.9-1.1c-0.3-0.2-0.7,0.1-0.6,0.4
	c0.2,1,0.8,2.7,2.2,4c1.2,1.3,3.2,1,4.3,0.6c0.6-0.2,1.2,0,1.6,0.3l4.1,4.2"/>
<path class="st0" d="M16.5,23.6l6.8,7c0.9,1,2.5,1,3.5,0l1.1-1.1c0.9-1,0.8-2.6-0.2-3.5L20,19.4"/>
<ellipse transform="matrix(0.6842 -0.7293 0.7293 0.6842 -12.2556 26.6782)" class="st0" cx="24.7" cy="27.5" rx="1.2" ry="1.2"/>
</svg>
