<?xml version="1.0" encoding="utf-8"?>
<!-- Generator: Adobe Illustrator 21.0.0, SVG Export Plug-In . SVG Version: 6.00 Build 0)  -->
<svg version="1.1" id="Шар_1" xmlns="http://www.w3.org/2000/svg" xmlns:xlink="http://www.w3.org/1999/xlink" x="0px" y="0px"
	 viewBox="0 0 35 35" style="enable-background:new 0 0 35 35;" xml:space="preserve">
<style type="text/css">
	.st0{fill:none;stroke:#333333;stroke-width:0.8;stroke-linecap:round;stroke-linejoin:round;stroke-miterlimit:10;}
	.st1{fill:#333333;}
	.st2{fill:none;}
	.st3{fill:#E6E6E6;stroke:#333333;stroke-width:0.8;stroke-linecap:round;stroke-linejoin:round;stroke-miterlimit:10;}
	.st4{fill:#FFFFFF;stroke:#333333;stroke-width:0.8;stroke-linecap:round;stroke-linejoin:round;stroke-miterlimit:10;}
</style>
<path class="st0" d="M30.5,17c0.1-0.2,0.1-0.5,0.1-0.7c0-1.4-1.1-2.6-2.6-2.6c-0.4,0-0.9,0.1-1.2,0.3c-0.4-1.2-1.5-2.1-2.9-2.1
	c-1.2,0-2.2,0.7-2.7,1.7c-0.7-0.8-1.6-1.3-2.7-1.3c-2,0-3.6,1.6-3.6,3.6c0,0.4,0.1,0.8,0.2,1.1"/>
<polygon class="st0" points="17.5,26.3 3.9,26.3 1.5,34.2 19.9,34.2 "/>
<polyline class="st0" points="19.9,34.2 28.7,34.2 31.4,17 14.1,17 15.7,26.3 "/>
<line class="st0" x1="10.7" y1="26.3" x2="10.7" y2="0.6"/>
<line class="st0" x1="6.9" y1="31.5" x2="6.6" y2="34.2"/>
<line class="st0" x1="9.4" y1="32.4" x2="9.4" y2="34.2"/>
<line class="st0" x1="14.5" y1="31.5" x2="14.7" y2="34.2"/>
<path class="st0" d="M20.3,20.4c0,0,4.1,9.6,10.2,7.7c3.3-1,2.2-6.3,0.5-8.2"/>
<line class="st0" x1="19.3" y1="20.5" x2="21.7" y2="20.3"/>
<circle class="st0" cx="27" cy="8.3" r="2"/>
<circle class="st0" cx="20.8" cy="4.8" r="1.5"/>
<line class="st0" x1="3.3" y1="28.7" x2="18.1" y2="28.7"/>
</svg>
