<svg width="24" height="24" viewBox="0 0 24 24" fill="none" xmlns="http://www.w3.org/2000/svg">
<path d="M5.53381 21.0017C6.93319 21.0017 8.06761 19.8673 8.06761 18.4679C8.06761 17.0685 6.93319 15.9341 5.53381 15.9341C4.13442 15.9341 3 17.0685 3 18.4679C3 19.8673 4.13442 21.0017 5.53381 21.0017Z" fill="#666666"/>
<path d="M4.84805 9.64615C3.87172 9.48343 3 10.2854 3 11.2734C3 12.0986 3.61602 12.7611 4.42963 12.9006C7.82353 13.4934 10.4968 16.1783 11.1012 19.5722C11.2407 20.3858 11.9032 21.0018 12.7284 21.0018C13.7164 21.0018 14.5184 20.1301 14.3673 19.1537C13.9797 16.7702 12.8517 14.5691 11.1431 12.8626C9.43453 11.1561 7.23207 10.0308 4.84805 9.64615V9.64615ZM4.81318 3.00944C3.84848 2.90483 3 3.68357 3 4.64828C3 5.49676 3.63926 6.19413 4.47612 6.27549C11.4615 6.97287 17.0173 12.5287 17.7147 19.5141C17.796 20.3625 18.4934 21.0018 19.3419 21.0018C20.3182 21.0018 21.0853 20.1533 20.9924 19.1886C20.1439 10.6574 13.3561 3.85792 4.81318 3.00944V3.00944Z" fill="#666666"/>
</svg>
