<svg width="24" height="24" viewBox="0 0 24 24" fill="none" xmlns="http://www.w3.org/2000/svg">
<path d="M22.2232 1.00221C21.9268 1.02377 21.6359 1.09331 21.3618 1.2081H21.3581C21.095 1.31243 19.8439 1.83871 17.9419 2.63643L11.1262 5.50693C6.23555 7.56587 1.42799 9.59341 1.42799 9.59341L1.48523 9.57125C1.48523 9.57125 1.15377 9.6802 0.807537 9.91749C0.593636 10.0536 0.409575 10.2317 0.266489 10.441C0.0966041 10.6903 -0.0400426 11.0716 0.0107383 11.4658C0.0938343 12.1325 0.525933 12.5322 0.836159 12.7529C1.15008 12.9763 1.44922 13.0807 1.44922 13.0807H1.45661L5.96503 14.5995C6.16723 15.2486 7.33888 19.1005 7.62049 19.9878C7.78668 20.5178 7.94825 20.8492 8.15045 21.1022C8.24832 21.2315 8.36281 21.3395 8.50038 21.4263C8.5719 21.4679 8.64815 21.5007 8.72751 21.5242L8.68134 21.5131C8.69519 21.5168 8.70627 21.5278 8.71643 21.5315C8.75336 21.5417 8.77829 21.5454 8.82538 21.5528C9.53908 21.7688 10.1124 21.3256 10.1124 21.3256L10.1448 21.2998L12.8066 18.8762L17.2679 22.2988L17.3695 22.3422C18.2992 22.7503 19.241 22.5232 19.7387 22.1224C20.24 21.719 20.4348 21.2029 20.4348 21.2029L20.4671 21.1198L23.9147 3.45816C24.0126 3.02236 24.0375 2.61427 23.9295 2.21818C23.818 1.81731 23.5609 1.47254 23.2084 1.2515C22.9124 1.07156 22.5692 0.98471 22.2232 1.00221ZM22.13 2.89495C22.1263 2.95312 22.1374 2.94665 22.1115 3.05837V3.06853L18.6963 20.5464C18.6815 20.5713 18.6566 20.6258 18.5882 20.6803C18.5162 20.7375 18.459 20.7735 18.1589 20.6544L12.7023 16.471L9.40613 19.4754L10.0986 15.0528L19.0139 6.74322C19.3813 6.4016 19.2585 6.32959 19.2585 6.32959C19.2844 5.91041 18.7036 6.20679 18.7036 6.20679L7.46168 13.1712L7.45799 13.1527L2.06967 11.3384V11.3347L2.05582 11.332C2.06527 11.3288 2.07452 11.3251 2.08352 11.3209L2.11307 11.3061L2.14169 11.296C2.14169 11.296 6.95295 9.26841 11.8436 7.20948C14.2922 6.17817 16.7592 5.13947 18.6566 4.33805C20.5539 3.54125 21.9564 2.95681 22.0358 2.92542C22.1115 2.89587 22.0755 2.89587 22.13 2.89587V2.89495Z" fill="#999999"/>
</svg>
