<?xml version="1.0" encoding="utf-8"?>
<!-- Generator: Adobe Illustrator 21.0.0, SVG Export Plug-In . SVG Version: 6.00 Build 0)  -->
<svg version="1.1" id="Шар_1" xmlns="http://www.w3.org/2000/svg" xmlns:xlink="http://www.w3.org/1999/xlink" x="0px" y="0px"
	 viewBox="0 0 35 35" style="enable-background:new 0 0 35 35;" xml:space="preserve">
<style type="text/css">
	.st0{fill:none;stroke:#333333;stroke-width:0.8;stroke-linecap:round;stroke-linejoin:round;stroke-miterlimit:10;}
	.st1{fill:#333333;}
	.st2{fill:none;}
	.st3{fill:#E6E6E6;stroke:#333333;stroke-width:0.8;stroke-linecap:round;stroke-linejoin:round;stroke-miterlimit:10;}
	.st4{fill:#FFFFFF;stroke:#333333;stroke-width:0.8;stroke-linecap:round;stroke-linejoin:round;stroke-miterlimit:10;}
</style>
<line class="st0" x1="8.6" y1="31.3" x2="9.8" y2="28.7"/>
<line class="st0" x1="26.4" y1="31.2" x2="24.8" y2="28.8"/>
<path class="st0" d="M14.3,7.8c0-2.3-1.9-4.1-4.1-4.1h0c-2.3,0-4.1,1.9-4.1,4.1v10"/>
<polygon class="st0" points="14.3,7.6 11.2,11.8 17.5,11.8 "/>
<path class="st0" d="M32,20.6H3c-0.7,0-1.2-0.5-1.2-1.2v0c0-0.7,0.5-1.2,1.2-1.2h29c0.7,0,1.2,0.5,1.2,1.2v0
	C33.2,20,32.7,20.6,32,20.6z"/>
<path class="st0" d="M3.9,20.6c0.2,1.5,0.5,3.4,0.9,4.5c0.9,2,2.9,3.7,6.4,3.7c3.5,0,6.8,0,6.8,0s2.2,0,5.7,0c3.5,0,5.6-1.7,6.4-3.7
	c0.5-1.1,0.8-3,0.9-4.5"/>
<path class="st0" d="M7.3,23.9c0.6,1.4,2,2.6,4.5,2.6"/>
<line class="st0" x1="27.6" y1="3.7" x2="27.6" y2="5.2"/>
<line class="st0" x1="27.6" y1="7.6" x2="27.6" y2="9.1"/>
<line class="st0" x1="24.8" y1="6.4" x2="26.4" y2="6.4"/>
<line class="st0" x1="28.7" y1="6.4" x2="30.3" y2="6.4"/>
<line class="st0" x1="22.9" y1="11.7" x2="22.9" y2="12.6"/>
<line class="st0" x1="22.9" y1="14.7" x2="22.9" y2="15.6"/>
<line class="st0" x1="20.9" y1="13.7" x2="21.8" y2="13.7"/>
<line class="st0" x1="23.9" y1="13.7" x2="24.8" y2="13.7"/>
</svg>
