<?xml version="1.0" encoding="utf-8"?>
<!-- Generator: Adobe Illustrator 21.0.0, SVG Export Plug-In . SVG Version: 6.00 Build 0)  -->
<svg version="1.1" id="Шар_1" xmlns="http://www.w3.org/2000/svg" xmlns:xlink="http://www.w3.org/1999/xlink" x="0px" y="0px"
	 viewBox="0 0 35 35" style="enable-background:new 0 0 35 35;" xml:space="preserve">
<style type="text/css">
	.st0{fill:none;stroke:#333333;stroke-width:0.8;stroke-linecap:round;stroke-linejoin:round;stroke-miterlimit:10;}
	.st1{fill:#333333;}
</style>
<g>
	<path class="st0" d="M9.2,33.2L9.2,33.2c-1.1,0-2-0.9-2-2V20.7c0,0,0-0.1,0.1-0.1h3.8c0,0,0.1,0,0.1,0.1v10.5
		C11.2,32.3,10.4,33.2,9.2,33.2z"/>
	<line class="st0" x1="9.3" y1="17" x2="9.3" y2="20.6"/>
	<ellipse transform="matrix(0.4737 -0.8807 0.8807 0.4737 -22.5161 24.5392)" class="st1" cx="9.3" cy="31.1" rx="0.8" ry="0.8"/>
	<g>
		<path class="st0" d="M9.3,2c5.6,0,6.1,15,6.1,15H9.3H9.2H3.1C3.1,17,3.6,2,9.3,2L9.3,2z"/>
	</g>
	<line class="st0" x1="7.3" y1="23.5" x2="11.2" y2="23.5"/>
</g>
<g>
	<path class="st0" d="M25.9,33.2L25.9,33.2c-1.1,0-2-0.9-2-2V20.7c0,0,0-0.1,0.1-0.1h3.8c0,0,0.1,0,0.1,0.1v10.5
		C27.9,32.3,27,33.2,25.9,33.2z"/>
	<line class="st0" x1="25.9" y1="17.7" x2="25.9" y2="20.6"/>
	<ellipse transform="matrix(0.4737 -0.8807 0.8807 0.4737 -13.7234 39.2413)" class="st1" cx="26" cy="31.1" rx="0.8" ry="0.8"/>
	<path class="st0" d="M29.5,2.8V11c0,0.6-0.5,1.2-1.2,1.2l0,0c-0.6,0-1.2-0.5-1.2-1.2V2.8c0-0.7-0.5-1.2-1.2-1.2l0,0
		c-0.7,0-1.2,0.5-1.2,1.2V11c0,0.6-0.5,1.2-1.2,1.2l0,0c-0.6,0-1.2-0.5-1.2-1.2V2.8c0-0.7-0.5-1.2-1.2-1.2l0,0
		c-0.7,0-1.2,0.5-1.2,1.2v9.3l0,0c0,2.3,1.4,4.3,3.6,5l0.5,0.2c1.1,0.4,2.4,0.4,3.5,0l0.6-0.2c2.2-0.7,3.6-2.8,3.6-5.1l0,0V2.8
		c0-0.7-0.5-1.2-1.2-1.2l0,0C30,1.6,29.5,2.1,29.5,2.8z"/>
</g>
<line class="st0" x1="9.2" y1="17" x2="9.2" y2="8.4"/>
<line class="st0" x1="23.9" y1="23" x2="27.9" y2="23"/>
</svg>
