<?xml version="1.0" encoding="utf-8"?>
<!-- Generator: Adobe Illustrator 21.0.0, SVG Export Plug-In . SVG Version: 6.00 Build 0)  -->
<svg version="1.1" id="Шар_1" xmlns="http://www.w3.org/2000/svg" xmlns:xlink="http://www.w3.org/1999/xlink" x="0px" y="0px"
	 viewBox="0 0 35 35" style="enable-background:new 0 0 35 35;" xml:space="preserve">
<style type="text/css">
	.st0{fill:none;stroke:#333333;stroke-width:0.8;stroke-linecap:round;stroke-linejoin:round;stroke-miterlimit:10;}
	.st1{fill:#333333;}
	.st2{fill:none;}
	.st3{fill:#E6E6E6;stroke:#333333;stroke-width:0.8;stroke-linecap:round;stroke-linejoin:round;stroke-miterlimit:10;}
	.st4{fill:#FFFFFF;stroke:#333333;stroke-width:0.8;stroke-linecap:round;stroke-linejoin:round;stroke-miterlimit:10;}
</style>
<ellipse transform="matrix(0.4737 -0.8807 0.8807 0.4737 -17.8513 30.3655)" class="st1" cx="16.5" cy="30.1" rx="0.8" ry="0.8"/>
<path class="st0" d="M26.5,10.6H6.4c-0.8,0-1.4-0.6-1.4-1.4V3.5c0-0.8,0.6-1.4,1.4-1.4h20.1c0.8,0,1.4,0.6,1.4,1.4v5.7
	C27.9,10,27.3,10.6,26.5,10.6z"/>
<path class="st0" d="M16.5,32.8L16.5,32.8c-1.3,0-2.4-1.1-2.4-2.4v-7.7c0-1.3,1.1-2.4,2.4-2.4h0c1.3,0,2.4,1.1,2.4,2.4v7.7
	C18.9,31.7,17.8,32.8,16.5,32.8z"/>
<path class="st0" d="M16.5,20.3v-2.6c0-0.7,0.5-1.3,1.1-1.4L30.2,13c0.6-0.2,1.1-0.8,1.1-1.4V7.9c0-0.8-0.7-1.5-1.5-1.5h-1.9"/>
<g>
	<g>
		<g>
			<circle class="st1" cx="8.3" cy="4.3" r="0.6"/>
			<circle class="st1" cx="8.3" cy="8.5" r="0.6"/>
		</g>
		<circle class="st1" cx="11" cy="6.4" r="0.6"/>
	</g>
	<g>
		<g>
			<circle class="st1" cx="13.7" cy="4.3" r="0.6"/>
			<circle class="st1" cx="13.7" cy="8.5" r="0.6"/>
		</g>
		<circle class="st1" cx="16.5" cy="6.4" r="0.6"/>
	</g>
	<g>
		<g>
			<circle class="st1" cx="19.2" cy="4.3" r="0.6"/>
			<circle class="st1" cx="19.2" cy="8.5" r="0.6"/>
		</g>
		<circle class="st1" cx="22" cy="6.4" r="0.6"/>
	</g>
	<g>
		<g>
			<circle class="st1" cx="24.7" cy="4.3" r="0.6"/>
			<circle class="st1" cx="24.7" cy="8.5" r="0.6"/>
		</g>
	</g>
</g>
</svg>
