<?xml version="1.0" encoding="utf-8"?>
<!-- Generator: Adobe Illustrator 21.0.0, SVG Export Plug-In . SVG Version: 6.00 Build 0)  -->
<svg version="1.1" id="Шар_1" xmlns="http://www.w3.org/2000/svg" xmlns:xlink="http://www.w3.org/1999/xlink" x="0px" y="0px"
	 viewBox="0 0 35 35" style="enable-background:new 0 0 35 35;" xml:space="preserve">
<style type="text/css">
	.st0{fill:none;stroke:#333333;stroke-width:0.8;stroke-linecap:round;stroke-linejoin:round;stroke-miterlimit:10;}
	.st1{fill:#333333;}
	.st2{fill:none;}
	.st3{fill:#E6E6E6;stroke:#333333;stroke-width:0.8;stroke-linecap:round;stroke-linejoin:round;stroke-miterlimit:10;}
	.st4{fill:#FFFFFF;stroke:#333333;stroke-width:0.8;stroke-linecap:round;stroke-linejoin:round;stroke-miterlimit:10;}
</style>
<line class="st0" x1="23.8" y1="25" x2="12.9" y2="25"/>
<polyline class="st0" points="5.9,25 2.7,25 2.7,15.7 9.2,7.1 34.2,7.1 34.2,25 30.8,25 "/>
<circle class="st0" cx="27.3" cy="25.6" r="3.5"/>
<circle class="st0" cx="9.4" cy="25.6" r="3.5"/>
<polygon class="st0" points="15.2,9.9 10.8,9.9 6.1,16.2 15.2,16.2 "/>
<circle class="st1" cx="9.4" cy="25.6" r="0.9"/>
<path class="st0" d="M2.7,21.7c-1.1,0-2-0.9-2-2c0-1.1,0.9-2,2-2"/>
<circle class="st1" cx="27.3" cy="25.6" r="0.9"/>
<line class="st0" x1="18.9" y1="10.3" x2="30.6" y2="10.3"/>
<line class="st0" x1="18.9" y1="13.2" x2="30.6" y2="13.2"/>
<line class="st0" x1="18.9" y1="16" x2="30.6" y2="16"/>
</svg>
